<?xml version="1.0" encoding="UTF-8" standalone="no"?>
<!DOCTYPE svg PUBLIC "-//W3C//DTD SVG 1.1//EN"
 "http://www.w3.org/Graphics/SVG/1.1/DTD/svg11.dtd">
<!-- Generated by graphviz version 2.38.0 (20140413.2041)
 -->
<!-- Title: activitySelectTemplateActivity Pages: 1 -->
<svg width="2202pt" height="387pt"
 viewBox="0.00 0.00 2202.10 387.00" xmlns="http://www.w3.org/2000/svg" xmlns:xlink="http://www.w3.org/1999/xlink">
<g id="graph0" class="graph" transform="scale(1 1) rotate(0) translate(4 383)">
<title>activitySelectTemplateActivity</title>
<polygon fill="white" stroke="none" points="-4,4 -4,-383 2198.1,-383 2198.1,4 -4,4"/>
<!-- state_114 -->
<g id="node1" class="node"><title>state_114</title>
<g id="a_node1"><a xlink:href="../States/114.png" xlink:title="&lt;TABLE&gt;">
<polygon fill="none" stroke="black" points="613.103,-379 481.103,-379 481.103,-87 613.103,-87 613.103,-379"/>
<text text-anchor="start" x="520.103" y="-366.8" font-family="Times New Roman,serif" font-size="14.00">state_114</text>
<text text-anchor="start" x="514.603" y="-351.8" font-family="Times New Roman,serif" font-size="14.00">incoming: 5</text>
<text text-anchor="start" x="515.603" y="-336.8" font-family="Times New Roman,serif" font-size="14.00">outgoing: 4</text>
<text text-anchor="start" x="527.103" y="-321.8" font-family="Times New Roman,serif" font-size="14.00">loop: 2</text>
<image xlink:href="../States/114.png" width="130px" height="230px" preserveAspectRatio="xMinYMin meet" x="482.103" y="-318"/>
<polygon fill="none" stroke="black" points="481.103,-87 481.103,-379 613.103,-379 613.103,-87 481.103,-87"/>
</a>
</g>
</g>
<!-- state_114&#45;&gt;state_114 -->
<g id="edge5" class="edge"><title>state_114&#45;&gt;state_114</title>
<path fill="none" stroke="black" d="M613.304,-262.354C623.87,-258.058 631.103,-248.273 631.103,-233 631.103,-222.5 627.684,-214.593 622.114,-209.282"/>
<polygon fill="black" stroke="black" points="623.614,-206.086 613.304,-203.646 619.842,-211.983 623.614,-206.086"/>
<text text-anchor="middle" x="738.103" y="-236.8" font-family="Times New Roman,serif" font-size="14.00">click(&quot;Type template... index=0&quot;): 111</text>
<text text-anchor="middle" x="738.103" y="-221.8" font-family="Times New Roman,serif" font-size="14.00">click(&quot;index=1&quot;): 1267</text>
</g>
<!-- activityMainActivity -->
<g id="node4" class="node"><title>activityMainActivity</title>
<ellipse fill="none" stroke="teal" cx="819.103" cy="-18" rx="83.3857" ry="18"/>
<text text-anchor="middle" x="819.103" y="-14.3" font-family="Times New Roman,serif" font-size="14.00" fill="teal">activityMainActivity</text>
</g>
<!-- state_114&#45;&gt;activityMainActivity -->
<g id="edge4" class="edge"><title>state_114&#45;&gt;activityMainActivity</title>
<path fill="none" stroke="teal" d="M613.375,-158.954C655.23,-113.403 703.676,-61.9552 716.103,-54 728.134,-46.2977 742.048,-40.0914 755.681,-35.1695"/>
<polygon fill="teal" stroke="teal" points="757.194,-38.3515 765.528,-31.8095 754.933,-31.7265 757.194,-38.3515"/>
<text text-anchor="middle" x="805.103" y="-57.8" font-family="Times New Roman,serif" font-size="14.00" fill="teal"> &#160;&#160;click(&quot;取消 index=4&quot;): 2674 &#160;&#160;</text>
</g>
<!-- activityTemplatesListActivity -->
<g id="node5" class="node"><title>activityTemplatesListActivity</title>
<ellipse fill="none" stroke="teal" cx="1688.1" cy="-18" rx="116.18" ry="18"/>
<text text-anchor="middle" x="1688.1" y="-14.3" font-family="Times New Roman,serif" font-size="14.00" fill="teal">activityTemplatesListActivity</text>
</g>
<!-- state_114&#45;&gt;activityTemplatesListActivity -->
<g id="edge2" class="edge"><title>state_114&#45;&gt;activityTemplatesListActivity</title>
<path fill="none" stroke="teal" d="M613.472,-218.868C730.753,-194.828 981.577,-139.656 1186.1,-69 1201.71,-63.607 1204.08,-58.0073 1220.1,-54 1283.23,-38.2131 1449.76,-28.5012 1566.09,-23.4291"/>
<polygon fill="teal" stroke="teal" points="1566.29,-26.9238 1576.13,-22.9974 1565.99,-19.9303 1566.29,-26.9238"/>
<text text-anchor="middle" x="1340.6" y="-57.8" font-family="Times New Roman,serif" font-size="14.00" fill="teal"> &#160;&#160;click(&quot;編輯 index=0&quot;): 112, 1794, 3250 &#160;&#160;</text>
</g>
<!-- activityBlotterActivity -->
<g id="node6" class="node"><title>activityBlotterActivity</title>
<ellipse fill="none" stroke="teal" cx="174.103" cy="-18" rx="89.0842" ry="18"/>
<text text-anchor="middle" x="174.103" y="-14.3" font-family="Times New Roman,serif" font-size="14.00" fill="teal">activityBlotterActivity</text>
</g>
<!-- state_114&#45;&gt;activityBlotterActivity -->
<g id="edge3" class="edge"><title>state_114&#45;&gt;activityBlotterActivity</title>
<path fill="none" stroke="teal" d="M480.808,-165.94C439.084,-127.907 382.271,-82.2021 324.103,-54 302.828,-43.6853 278.356,-36.3205 255.433,-31.0984"/>
<polygon fill="teal" stroke="teal" points="255.888,-27.6159 245.374,-28.9182 254.406,-34.457 255.888,-27.6159"/>
<text text-anchor="middle" x="441.103" y="-57.8" font-family="Times New Roman,serif" font-size="14.00" fill="teal"> &#160;&#160;click(&quot;取消 index=4&quot;): 1650 &#160;&#160;</text>
</g>
<!-- state_1302 -->
<g id="node2" class="node"><title>state_1302</title>
<g id="a_node2"><a xlink:href="../States/1302.png" xlink:title="&lt;TABLE&gt;">
<polygon fill="none" stroke="black" points="1559.1,-379 1427.1,-379 1427.1,-87 1559.1,-87 1559.1,-379"/>
<text text-anchor="start" x="1462.6" y="-366.8" font-family="Times New Roman,serif" font-size="14.00">state_1302</text>
<text text-anchor="start" x="1460.6" y="-351.8" font-family="Times New Roman,serif" font-size="14.00">incoming: 1</text>
<text text-anchor="start" x="1461.6" y="-336.8" font-family="Times New Roman,serif" font-size="14.00">outgoing: 4</text>
<text text-anchor="start" x="1473.1" y="-321.8" font-family="Times New Roman,serif" font-size="14.00">loop: 1</text>
<image xlink:href="../States/1302.png" width="130px" height="230px" preserveAspectRatio="xMinYMin meet" x="1428.1" y="-318"/>
<polygon fill="none" stroke="black" points="1427.1,-87 1427.1,-379 1559.1,-379 1559.1,-87 1427.1,-87"/>
</a>
</g>
</g>
<!-- state_1302&#45;&gt;state_1302 -->
<g id="edge9" class="edge"><title>state_1302&#45;&gt;state_1302</title>
<path fill="none" stroke="black" d="M1559.3,-262.354C1569.87,-258.058 1577.1,-248.273 1577.1,-233 1577.1,-222.5 1573.68,-214.593 1568.11,-209.282"/>
<polygon fill="black" stroke="black" points="1569.61,-206.086 1559.3,-203.646 1565.84,-211.983 1569.61,-206.086"/>
<text text-anchor="middle" x="1687.6" y="-229.3" font-family="Times New Roman,serif" font-size="14.00">click(&quot;Type template... index=0&quot;): 1269</text>
</g>
<!-- state_1302&#45;&gt;activityMainActivity -->
<g id="edge8" class="edge"><title>state_1302&#45;&gt;activityMainActivity</title>
<path fill="none" stroke="teal" d="M1488.32,-86.9458C1482.85,-74.5366 1475.32,-63.2246 1465.1,-54 1444.91,-35.7685 1085.2,-25.0845 911.496,-20.9673"/>
<polygon fill="teal" stroke="teal" points="911.42,-17.4647 901.341,-20.7291 911.256,-24.4628 911.42,-17.4647"/>
<text text-anchor="middle" x="1566.1" y="-57.8" font-family="Times New Roman,serif" font-size="14.00" fill="teal"> &#160;&#160;click(&quot;取消 index=4&quot;): 2672 &#160;&#160;</text>
</g>
<!-- state_1302&#45;&gt;activityTemplatesListActivity -->
<g id="edge7" class="edge"><title>state_1302&#45;&gt;activityTemplatesListActivity</title>
<path fill="none" stroke="teal" d="M1559.27,-180.736C1594.4,-150.986 1636.35,-111.136 1666.1,-69 1671.16,-61.8401 1675.43,-53.3331 1678.83,-45.3849"/>
<polygon fill="teal" stroke="teal" points="1682.08,-46.6803 1682.53,-36.095 1675.58,-44.0893 1682.08,-46.6803"/>
<text text-anchor="middle" x="1763.1" y="-57.8" font-family="Times New Roman,serif" font-size="14.00" fill="teal"> &#160;&#160;click(&quot;編輯 index=0&quot;): 1270 &#160;&#160;</text>
</g>
<!-- state_2199 -->
<g id="node3" class="node"><title>state_2199</title>
<g id="a_node3"><a xlink:href="../States/2199.png" xlink:title="&lt;TABLE&gt;">
<polygon fill="none" stroke="black" points="1955.1,-379 1823.1,-379 1823.1,-87 1955.1,-87 1955.1,-379"/>
<text text-anchor="start" x="1858.6" y="-366.8" font-family="Times New Roman,serif" font-size="14.00">state_2199</text>
<text text-anchor="start" x="1856.6" y="-351.8" font-family="Times New Roman,serif" font-size="14.00">incoming: 1</text>
<text text-anchor="start" x="1857.6" y="-336.8" font-family="Times New Roman,serif" font-size="14.00">outgoing: 1</text>
<text text-anchor="start" x="1869.1" y="-321.8" font-family="Times New Roman,serif" font-size="14.00">loop: 1</text>
<image xlink:href="../States/2199.png" width="130px" height="230px" preserveAspectRatio="xMinYMin meet" x="1824.1" y="-318"/>
<polygon fill="none" stroke="black" points="1823.1,-87 1823.1,-379 1955.1,-379 1955.1,-87 1823.1,-87"/>
</a>
</g>
</g>
<!-- state_2199&#45;&gt;state_2199 -->
<g id="edge13" class="edge"><title>state_2199&#45;&gt;state_2199</title>
<path fill="none" stroke="black" d="M1955.3,-262.354C1965.87,-258.058 1973.1,-248.273 1973.1,-233 1973.1,-222.5 1969.68,-214.593 1964.11,-209.282"/>
<polygon fill="black" stroke="black" points="1965.61,-206.086 1955.3,-203.646 1961.84,-211.983 1965.61,-206.086"/>
<text text-anchor="middle" x="2083.6" y="-229.3" font-family="Times New Roman,serif" font-size="14.00">click(&quot;Type template... index=0&quot;): 2104</text>
</g>
<!-- state_2199&#45;&gt;activityTemplatesListActivity -->
<g id="edge12" class="edge"><title>state_2199&#45;&gt;activityTemplatesListActivity</title>
<path fill="none" stroke="teal" d="M1877.83,-86.5838C1872.42,-74.5678 1865.33,-63.4365 1856.1,-54 1846,-43.6671 1819.41,-36.1389 1790.3,-30.7738"/>
<polygon fill="teal" stroke="teal" points="1790.8,-27.3087 1780.35,-29.0363 1789.6,-34.2043 1790.8,-27.3087"/>
<text text-anchor="middle" x="1957.1" y="-57.8" font-family="Times New Roman,serif" font-size="14.00" fill="teal"> &#160;&#160;click(&quot;編輯 index=0&quot;): 2105 &#160;&#160;</text>
</g>
<!-- activityMainActivity&#45;&gt;state_114 -->
<g id="edge1" class="edge"><title>activityMainActivity&#45;&gt;state_114</title>
<path fill="none" stroke="teal" d="M870.654,-32.2365C891.597,-40.3685 908.668,-52.4441 898.103,-69 837.841,-163.427 707.198,-203.996 623.407,-220.807"/>
<polygon fill="teal" stroke="teal" points="622.579,-217.402 613.428,-222.742 623.912,-224.274 622.579,-217.402"/>
<text text-anchor="middle" x="1042.1" y="-57.8" font-family="Times New Roman,serif" font-size="14.00" fill="teal"> &#160;&#160;click(&quot;index=2&quot;): 110, 1266, 2099, 2670, 2673 &#160;&#160;</text>
</g>
<!-- activityMainActivity&#45;&gt;state_114 -->
<g id="edge6" class="edge"><title>activityMainActivity&#45;&gt;state_114</title>
<path fill="none" stroke="teal" d="M740.464,-23.8861C664.727,-29.4141 559.798,-39.5658 547.103,-54 540.949,-60.9966 536.244,-68.8144 532.734,-77.1628"/>
<polygon fill="teal" stroke="teal" points="529.359,-76.2041 529.263,-86.7985 535.945,-78.5761 529.359,-76.2041"/>
<text text-anchor="middle" x="621.603" y="-57.8" font-family="Times New Roman,serif" font-size="14.00" fill="teal"> &#160;&#160;click(&quot;index=2&quot;): 1793 &#160;&#160;</text>
</g>
<!-- activityBlotterActivity&#45;&gt;state_114 -->
<g id="edge10" class="edge"><title>activityBlotterActivity&#45;&gt;state_114</title>
<path fill="none" stroke="teal" d="M93.6036,-25.7714C55.1462,-30.8473 14.9333,-39.5025 3.10261,-54 -1.11239,-59.1651 -0.877831,-63.6521 3.10261,-69 59.3833,-144.616 335.091,-198.211 471.031,-220.495"/>
<polygon fill="teal" stroke="teal" points="470.537,-223.96 480.969,-222.109 471.659,-217.051 470.537,-223.96"/>
<text text-anchor="middle" x="77.6026" y="-57.8" font-family="Times New Roman,serif" font-size="14.00" fill="teal"> &#160;&#160;click(&quot;index=2&quot;): 1649 &#160;&#160;</text>
</g>
<!-- activityBlotterActivity&#45;&gt;state_114 -->
<g id="edge11" class="edge"><title>activityBlotterActivity&#45;&gt;state_114</title>
<path fill="none" stroke="teal" d="M168.239,-36.0741C165.798,-46.4102 164.804,-59.4038 171.103,-69 237.455,-170.084 381.42,-208.792 470.706,-223.394"/>
<polygon fill="teal" stroke="teal" points="470.355,-226.882 480.777,-224.977 471.442,-219.967 470.355,-226.882"/>
<text text-anchor="middle" x="245.603" y="-57.8" font-family="Times New Roman,serif" font-size="14.00" fill="teal"> &#160;&#160;click(&quot;index=2&quot;): 3249 &#160;&#160;</text>
</g>
</g>
</svg>
