<?xml version="1.0" encoding="UTF-8" standalone="no"?>
<!DOCTYPE svg PUBLIC "-//W3C//DTD SVG 1.1//EN"
 "http://www.w3.org/Graphics/SVG/1.1/DTD/svg11.dtd">
<!-- Generated by graphviz version 2.38.0 (20140413.2041)
 -->
<!-- Title: activityProjectActivity Pages: 1 -->
<svg width="1556pt" height="387pt"
 viewBox="0.00 0.00 1556.17 387.00" xmlns="http://www.w3.org/2000/svg" xmlns:xlink="http://www.w3.org/1999/xlink">
<g id="graph0" class="graph" transform="scale(1 1) rotate(0) translate(4 383)">
<title>activityProjectActivity</title>
<polygon fill="white" stroke="none" points="-4,4 -4,-383 1552.17,-383 1552.17,4 -4,4"/>
<!-- state_1682 -->
<g id="node1" class="node"><title>state_1682</title>
<g id="a_node1"><a xlink:href="../States/1682.png" xlink:title="&lt;TABLE&gt;">
<polygon fill="none" stroke="black" points="593.169,-379 461.169,-379 461.169,-87 593.169,-87 593.169,-379"/>
<text text-anchor="start" x="496.669" y="-366.8" font-family="Times New Roman,serif" font-size="14.00">state_1682</text>
<text text-anchor="start" x="494.669" y="-351.8" font-family="Times New Roman,serif" font-size="14.00">incoming: 4</text>
<text text-anchor="start" x="495.669" y="-336.8" font-family="Times New Roman,serif" font-size="14.00">outgoing: 4</text>
<text text-anchor="start" x="507.169" y="-321.8" font-family="Times New Roman,serif" font-size="14.00">loop: 1</text>
<image xlink:href="../States/1682.png" width="130px" height="230px" preserveAspectRatio="xMinYMin meet" x="462.169" y="-318"/>
<polygon fill="none" stroke="black" points="461.169,-87 461.169,-379 593.169,-379 593.169,-87 461.169,-87"/>
</a>
</g>
</g>
<!-- state_1682&#45;&gt;state_1682 -->
<g id="edge5" class="edge"><title>state_1682&#45;&gt;state_1682</title>
<path fill="none" stroke="black" d="M593.371,-262.354C603.937,-258.058 611.169,-248.273 611.169,-233 611.169,-222.5 607.751,-214.593 602.181,-209.282"/>
<polygon fill="black" stroke="black" points="603.681,-206.086 593.371,-203.646 599.909,-211.983 603.681,-206.086"/>
<text text-anchor="middle" x="674.669" y="-229.3" font-family="Times New Roman,serif" font-size="14.00">click(&quot;index=1&quot;): 1628</text>
</g>
<!-- activityProjectListActivity -->
<g id="node3" class="node"><title>activityProjectListActivity</title>
<ellipse fill="none" stroke="teal" cx="731.169" cy="-18" rx="104.782" ry="18"/>
<text text-anchor="middle" x="731.169" y="-14.3" font-family="Times New Roman,serif" font-size="14.00" fill="teal">activityProjectListActivity</text>
</g>
<!-- state_1682&#45;&gt;activityProjectListActivity -->
<g id="edge2" class="edge"><title>state_1682&#45;&gt;activityProjectListActivity</title>
<path fill="none" stroke="teal" d="M461.108,-229.995C297.415,-222.915 -104.593,-191.415 26.1694,-54 46.1785,-32.9729 422.807,-23.8982 617.172,-20.6021"/>
<polygon fill="teal" stroke="teal" points="617.487,-24.0974 627.427,-20.4306 617.37,-17.0984 617.487,-24.0974"/>
<text text-anchor="middle" x="115.169" y="-57.8" font-family="Times New Roman,serif" font-size="14.00" fill="teal"> &#160;&#160;click(&quot;確定 index=0&quot;): 1632 &#160;&#160;</text>
</g>
<!-- state_1682&#45;&gt;activityProjectListActivity -->
<g id="edge3" class="edge"><title>state_1682&#45;&gt;activityProjectListActivity</title>
<path fill="none" stroke="teal" d="M461.108,-219.194C350.88,-195.13 148.881,-137.914 227.169,-54 253.127,-26.177 475.479,-19.9919 616.042,-18.8943"/>
<polygon fill="teal" stroke="teal" points="616.461,-22.3915 626.437,-18.8212 616.412,-15.3917 616.461,-22.3915"/>
<text text-anchor="middle" x="316.169" y="-57.8" font-family="Times New Roman,serif" font-size="14.00" fill="teal"> &#160;&#160;click(&quot;取消 index=1&quot;): 3211 &#160;&#160;</text>
</g>
<!-- state_1682&#45;&gt;activityProjectListActivity -->
<g id="edge4" class="edge"><title>state_1682&#45;&gt;activityProjectListActivity</title>
<path fill="none" stroke="teal" d="M461.134,-170.492C429.698,-133.874 404.897,-88.0624 435.169,-54 447.799,-39.7888 543.48,-30.3595 622.693,-24.9052"/>
<polygon fill="teal" stroke="teal" points="623.017,-28.3914 632.759,-24.2271 622.547,-21.4073 623.017,-28.3914"/>
<text text-anchor="middle" x="524.169" y="-57.8" font-family="Times New Roman,serif" font-size="14.00" fill="teal"> &#160;&#160;click(&quot;確定 index=0&quot;): 3221 &#160;&#160;</text>
</g>
<!-- state_1684 -->
<g id="node2" class="node"><title>state_1684</title>
<g id="a_node2"><a xlink:href="../States/1684.png" xlink:title="&lt;TABLE&gt;">
<polygon fill="none" stroke="black" points="1380.17,-379 1248.17,-379 1248.17,-87 1380.17,-87 1380.17,-379"/>
<text text-anchor="start" x="1283.67" y="-366.8" font-family="Times New Roman,serif" font-size="14.00">state_1684</text>
<text text-anchor="start" x="1281.67" y="-351.8" font-family="Times New Roman,serif" font-size="14.00">incoming: 1</text>
<text text-anchor="start" x="1282.67" y="-336.8" font-family="Times New Roman,serif" font-size="14.00">outgoing: 3</text>
<text text-anchor="start" x="1294.17" y="-321.8" font-family="Times New Roman,serif" font-size="14.00">loop: 1</text>
<image xlink:href="../States/1684.png" width="130px" height="230px" preserveAspectRatio="xMinYMin meet" x="1249.17" y="-318"/>
<polygon fill="none" stroke="black" points="1248.17,-87 1248.17,-379 1380.17,-379 1380.17,-87 1248.17,-87"/>
</a>
</g>
</g>
<!-- state_1684&#45;&gt;state_1684 -->
<g id="edge8" class="edge"><title>state_1684&#45;&gt;state_1684</title>
<path fill="none" stroke="black" d="M1380.37,-262.354C1390.94,-258.058 1398.17,-248.273 1398.17,-233 1398.17,-222.5 1394.75,-214.593 1389.18,-209.282"/>
<polygon fill="black" stroke="black" points="1390.68,-206.086 1380.37,-203.646 1386.91,-211.983 1390.68,-206.086"/>
<text text-anchor="middle" x="1461.67" y="-229.3" font-family="Times New Roman,serif" font-size="14.00">click(&quot;index=1&quot;): 1630</text>
</g>
<!-- state_1684&#45;&gt;activityProjectListActivity -->
<g id="edge6" class="edge"><title>state_1684&#45;&gt;activityProjectListActivity</title>
<path fill="none" stroke="teal" d="M1247.82,-129.246C1223.58,-99.9893 1193.55,-71.3749 1159.17,-54 1106.31,-27.2854 954.218,-20.249 846.418,-18.7551"/>
<polygon fill="teal" stroke="teal" points="846.172,-15.2519 836.129,-18.6274 846.085,-22.2513 846.172,-15.2519"/>
<text text-anchor="middle" x="1269.17" y="-57.8" font-family="Times New Roman,serif" font-size="14.00" fill="teal"> &#160;&#160;click(&quot;確定 index=0&quot;): 3215 &#160;&#160;</text>
</g>
<!-- state_1684&#45;&gt;activityProjectListActivity -->
<g id="edge7" class="edge"><title>state_1684&#45;&gt;activityProjectListActivity</title>
<path fill="none" stroke="teal" d="M1378.02,-86.839C1376.21,-74.8472 1371.3,-63.6489 1362.17,-54 1344.69,-35.5292 1021.57,-25.4549 844.682,-21.3031"/>
<polygon fill="teal" stroke="teal" points="844.628,-17.801 834.549,-21.068 844.465,-24.7991 844.628,-17.801"/>
<text text-anchor="middle" x="1459.17" y="-57.8" font-family="Times New Roman,serif" font-size="14.00" fill="teal"> &#160;&#160;click(&quot;取消 index=1&quot;): 3218 &#160;&#160;</text>
</g>
<!-- activityProjectListActivity&#45;&gt;state_1682 -->
<g id="edge1" class="edge"><title>activityProjectListActivity&#45;&gt;state_1682</title>
<path fill="none" stroke="teal" d="M668.667,-32.5482C654.65,-37.6406 640.572,-44.5798 629.169,-54 618.453,-62.8534 608.634,-73.1443 599.687,-84.2287"/>
<polygon fill="teal" stroke="teal" points="596.688,-82.3837 593.326,-92.4308 602.22,-86.6736 596.688,-82.3837"/>
<text text-anchor="middle" x="721.169" y="-57.8" font-family="Times New Roman,serif" font-size="14.00" fill="teal"> &#160;&#160;click(&quot;index=0&quot;): 1627, 3213 &#160;&#160;</text>
</g>
<!-- activityProjectListActivity&#45;&gt;state_1682 -->
<g id="edge9" class="edge"><title>activityProjectListActivity&#45;&gt;state_1682</title>
<path fill="none" stroke="teal" d="M788.205,-33.1249C807.768,-41.0581 822.636,-52.7091 813.169,-69 768.287,-146.24 671.586,-189.926 603.08,-212.237"/>
<polygon fill="teal" stroke="teal" points="601.661,-209.015 593.187,-215.375 603.777,-215.688 601.661,-209.015"/>
<text text-anchor="middle" x="889.669" y="-57.8" font-family="Times New Roman,serif" font-size="14.00" fill="teal"> &#160;&#160;click(&quot;index=0&quot;): 3216 &#160;&#160;</text>
</g>
<!-- activityProjectListActivity&#45;&gt;state_1682 -->
<g id="edge10" class="edge"><title>activityProjectListActivity&#45;&gt;state_1682</title>
<path fill="none" stroke="teal" d="M834.375,-21.2377C889.898,-24.8624 950.538,-33.574 968.169,-54 972.525,-59.0467 971.98,-63.5295 968.169,-69 885.548,-187.622 706.182,-220.128 603.47,-228.898"/>
<polygon fill="teal" stroke="teal" points="603.16,-225.411 593.471,-229.697 603.718,-232.389 603.16,-225.411"/>
<text text-anchor="middle" x="1063.17" y="-57.8" font-family="Times New Roman,serif" font-size="14.00" fill="teal"> &#160;&#160;click(&quot;index=0&quot;): 3210, 3220 &#160;&#160;</text>
</g>
</g>
</svg>
