<?xml version="1.0" encoding="UTF-8" standalone="no"?>
<!DOCTYPE svg PUBLIC "-//W3C//DTD SVG 1.1//EN"
 "http://www.w3.org/Graphics/SVG/1.1/DTD/svg11.dtd">
<!-- Generated by graphviz version 2.38.0 (20140413.2041)
 -->
<!-- Title: activityCurrencyActivity Pages: 1 -->
<svg width="3947pt" height="673pt"
 viewBox="0.00 0.00 3947.44 673.00" xmlns="http://www.w3.org/2000/svg" xmlns:xlink="http://www.w3.org/1999/xlink">
<g id="graph0" class="graph" transform="scale(1 1) rotate(0) translate(4 669)">
<title>activityCurrencyActivity</title>
<polygon fill="white" stroke="none" points="-4,4 -4,-669 3943.44,-669 3943.44,4 -4,4"/>
<!-- state_988 -->
<g id="node1" class="node"><title>state_988</title>
<g id="a_node1"><a xlink:href="../States/988.png" xlink:title="&lt;TABLE&gt;">
<polygon fill="none" stroke="black" points="178.44,-292 46.44,-292 46.44,-0 178.44,-0 178.44,-292"/>
<text text-anchor="start" x="85.44" y="-279.8" font-family="Times New Roman,serif" font-size="14.00">state_988</text>
<text text-anchor="start" x="79.94" y="-264.8" font-family="Times New Roman,serif" font-size="14.00">incoming: 3</text>
<text text-anchor="start" x="80.94" y="-249.8" font-family="Times New Roman,serif" font-size="14.00">outgoing: 3</text>
<text text-anchor="start" x="92.44" y="-234.8" font-family="Times New Roman,serif" font-size="14.00">loop: 3</text>
<image xlink:href="../States/988.png" width="130px" height="230px" preserveAspectRatio="xMinYMin meet" x="47.44" y="-231"/>
<polygon fill="none" stroke="black" points="46.44,-0 46.44,-292 178.44,-292 178.44,-0 46.44,-0"/>
</a>
</g>
</g>
<!-- state_988&#45;&gt;state_988 -->
<g id="edge2" class="edge"><title>state_988&#45;&gt;state_988</title>
<path fill="none" stroke="black" d="M178.641,-175.354C189.208,-171.058 196.44,-161.273 196.44,-146 196.44,-135.5 193.022,-127.593 187.452,-122.282"/>
<polygon fill="black" stroke="black" points="188.952,-119.086 178.641,-116.646 185.18,-124.983 188.952,-119.086"/>
<text text-anchor="middle" x="306.44" y="-157.3" font-family="Times New Roman,serif" font-size="14.00">click(&quot;index=1&quot;): 972</text>
<text text-anchor="middle" x="306.44" y="-142.3" font-family="Times New Roman,serif" font-size="14.00">click(&quot;ISO 4217 貨幣碼 index=0&quot;): 973</text>
<text text-anchor="middle" x="306.44" y="-127.3" font-family="Times New Roman,serif" font-size="14.00">click(&quot;$ £ ¥ π index=1&quot;): 974</text>
</g>
<!-- state_992 -->
<g id="node2" class="node"><title>state_992</title>
<g id="a_node2"><a xlink:href="../States/992Equivalent.svg" xlink:title="&lt;TABLE&gt;">
<polygon fill="none" stroke="peru" points="394.44,-665 242.44,-665 242.44,-343 394.44,-343 394.44,-665"/>
<text text-anchor="start" x="291.44" y="-652.8" font-family="Times New Roman,serif" font-size="14.00">state_992</text>
<text text-anchor="start" x="285.94" y="-637.8" font-family="Times New Roman,serif" font-size="14.00">incoming: 5</text>
<text text-anchor="start" x="286.94" y="-622.8" font-family="Times New Roman,serif" font-size="14.00">outgoing: 4</text>
<text text-anchor="start" x="298.44" y="-607.8" font-family="Times New Roman,serif" font-size="14.00">loop: 1</text>
<text text-anchor="start" x="273.44" y="-592.8" font-family="Times New Roman,serif" font-size="14.00">Equivalent State</text>
<text text-anchor="start" x="251.44" y="-577.8" font-family="Times New Roman,serif" font-size="14.00">EquivalentStateCount: 1</text>
<image xlink:href="../States/992.png" width="150px" height="230px" preserveAspectRatio="xMinYMin meet" x="243.44" y="-574"/>
<polygon fill="none" stroke="peru" points="242.44,-343 242.44,-665 394.44,-665 394.44,-343 242.44,-343"/>
</a>
</g>
</g>
<!-- state_992&#45;&gt;state_992 -->
<g id="edge3" class="edge"><title>state_992&#45;&gt;state_992</title>
<path fill="none" stroke="DodgerBlue" d="M394.787,-535.12C405.368,-529.994 412.44,-519.621 412.44,-504 412.44,-493.016 408.944,-484.627 403.19,-478.832"/>
<polygon fill="DodgerBlue" stroke="DodgerBlue" points="404.97,-475.805 394.787,-472.88 400.924,-481.517 404.97,-475.805"/>
<text text-anchor="middle" x="480.94" y="-500.3" font-family="Times New Roman,serif" font-size="14.00" fill="DodgerBlue">click(&quot;1 index=1&quot;): 1021</text>
</g>
<!-- state_994 -->
<g id="node3" class="node"><title>state_994</title>
<g id="a_node3"><a xlink:href="../States/994.png" xlink:title="&lt;TABLE&gt;">
<polygon fill="none" stroke="black" points="699.44,-650 567.44,-650 567.44,-358 699.44,-358 699.44,-650"/>
<text text-anchor="start" x="606.44" y="-637.8" font-family="Times New Roman,serif" font-size="14.00">state_994</text>
<text text-anchor="start" x="600.94" y="-622.8" font-family="Times New Roman,serif" font-size="14.00">incoming: 3</text>
<text text-anchor="start" x="601.94" y="-607.8" font-family="Times New Roman,serif" font-size="14.00">outgoing: 3</text>
<text text-anchor="start" x="613.44" y="-592.8" font-family="Times New Roman,serif" font-size="14.00">loop: 0</text>
<image xlink:href="../States/994.png" width="130px" height="230px" preserveAspectRatio="xMinYMin meet" x="568.44" y="-589"/>
<polygon fill="none" stroke="black" points="567.44,-358 567.44,-650 699.44,-650 699.44,-358 567.44,-358"/>
</a>
</g>
</g>
<!-- state_996 -->
<g id="node4" class="node"><title>state_996</title>
<g id="a_node4"><a xlink:href="../States/996.png" xlink:title="&lt;TABLE&gt;">
<polygon fill="none" stroke="black" points="849.44,-650 717.44,-650 717.44,-358 849.44,-358 849.44,-650"/>
<text text-anchor="start" x="756.44" y="-637.8" font-family="Times New Roman,serif" font-size="14.00">state_996</text>
<text text-anchor="start" x="750.94" y="-622.8" font-family="Times New Roman,serif" font-size="14.00">incoming: 1</text>
<text text-anchor="start" x="751.94" y="-607.8" font-family="Times New Roman,serif" font-size="14.00">outgoing: 1</text>
<text text-anchor="start" x="763.44" y="-592.8" font-family="Times New Roman,serif" font-size="14.00">loop: 0</text>
<image xlink:href="../States/996.png" width="130px" height="230px" preserveAspectRatio="xMinYMin meet" x="718.44" y="-589"/>
<polygon fill="none" stroke="black" points="717.44,-358 717.44,-650 849.44,-650 849.44,-358 717.44,-358"/>
</a>
</g>
</g>
<!-- state_997 -->
<g id="node5" class="node"><title>state_997</title>
<g id="a_node5"><a xlink:href="../States/997.png" xlink:title="&lt;TABLE&gt;">
<polygon fill="none" stroke="black" points="999.44,-650 867.44,-650 867.44,-358 999.44,-358 999.44,-650"/>
<text text-anchor="start" x="906.44" y="-637.8" font-family="Times New Roman,serif" font-size="14.00">state_997</text>
<text text-anchor="start" x="900.94" y="-622.8" font-family="Times New Roman,serif" font-size="14.00">incoming: 5</text>
<text text-anchor="start" x="901.94" y="-607.8" font-family="Times New Roman,serif" font-size="14.00">outgoing: 5</text>
<text text-anchor="start" x="913.44" y="-592.8" font-family="Times New Roman,serif" font-size="14.00">loop: 3</text>
<image xlink:href="../States/997.png" width="130px" height="230px" preserveAspectRatio="xMinYMin meet" x="868.44" y="-589"/>
<polygon fill="none" stroke="black" points="867.44,-358 867.44,-650 999.44,-650 999.44,-358 867.44,-358"/>
</a>
</g>
</g>
<!-- state_997&#45;&gt;state_997 -->
<g id="edge4" class="edge"><title>state_997&#45;&gt;state_997</title>
<path fill="none" stroke="black" d="M999.641,-536.116C1010.21,-531.416 1017.44,-520.711 1017.44,-504 1017.44,-492.25 1013.86,-483.469 1008.07,-477.657"/>
<polygon fill="black" stroke="black" points="1009.87,-474.649 999.641,-471.884 1005.91,-480.423 1009.87,-474.649"/>
<text text-anchor="middle" x="1127.44" y="-515.3" font-family="Times New Roman,serif" font-size="14.00">click(&quot;index=1&quot;): 981</text>
<text text-anchor="middle" x="1127.44" y="-500.3" font-family="Times New Roman,serif" font-size="14.00">click(&quot;ISO 4217 貨幣碼 index=0&quot;): 982</text>
<text text-anchor="middle" x="1127.44" y="-485.3" font-family="Times New Roman,serif" font-size="14.00">click(&quot;$ £ ¥ π index=1&quot;): 983</text>
</g>
<!-- state_1002 -->
<g id="node6" class="node"><title>state_1002</title>
<g id="a_node6"><a xlink:href="../States/1002.png" xlink:title="&lt;TABLE&gt;">
<polygon fill="none" stroke="black" points="1387.44,-650 1255.44,-650 1255.44,-358 1387.44,-358 1387.44,-650"/>
<text text-anchor="start" x="1290.94" y="-637.8" font-family="Times New Roman,serif" font-size="14.00">state_1002</text>
<text text-anchor="start" x="1288.94" y="-622.8" font-family="Times New Roman,serif" font-size="14.00">incoming: 1</text>
<text text-anchor="start" x="1289.94" y="-607.8" font-family="Times New Roman,serif" font-size="14.00">outgoing: 1</text>
<text text-anchor="start" x="1301.44" y="-592.8" font-family="Times New Roman,serif" font-size="14.00">loop: 3</text>
<image xlink:href="../States/1002.png" width="130px" height="230px" preserveAspectRatio="xMinYMin meet" x="1256.44" y="-589"/>
<polygon fill="none" stroke="black" points="1255.44,-358 1255.44,-650 1387.44,-650 1387.44,-358 1255.44,-358"/>
</a>
</g>
</g>
<!-- state_1002&#45;&gt;state_1002 -->
<g id="edge5" class="edge"><title>state_1002&#45;&gt;state_1002</title>
<path fill="none" stroke="black" d="M1387.64,-536.116C1398.21,-531.416 1405.44,-520.711 1405.44,-504 1405.44,-492.25 1401.86,-483.469 1396.07,-477.657"/>
<polygon fill="black" stroke="black" points="1397.87,-474.649 1387.64,-471.884 1393.91,-480.423 1397.87,-474.649"/>
<text text-anchor="middle" x="1515.44" y="-515.3" font-family="Times New Roman,serif" font-size="14.00">click(&quot;index=1&quot;): 986</text>
<text text-anchor="middle" x="1515.44" y="-500.3" font-family="Times New Roman,serif" font-size="14.00">click(&quot;ISO 4217 貨幣碼 index=0&quot;): 987</text>
<text text-anchor="middle" x="1515.44" y="-485.3" font-family="Times New Roman,serif" font-size="14.00">click(&quot;$ £ ¥ π index=1&quot;): 988</text>
</g>
<!-- state_1006 -->
<g id="node7" class="node"><title>state_1006</title>
<g id="a_node7"><a xlink:href="../States/1006.png" xlink:title="&lt;TABLE&gt;">
<polygon fill="none" stroke="black" points="1775.44,-650 1643.44,-650 1643.44,-358 1775.44,-358 1775.44,-650"/>
<text text-anchor="start" x="1678.94" y="-637.8" font-family="Times New Roman,serif" font-size="14.00">state_1006</text>
<text text-anchor="start" x="1676.94" y="-622.8" font-family="Times New Roman,serif" font-size="14.00">incoming: 1</text>
<text text-anchor="start" x="1677.94" y="-607.8" font-family="Times New Roman,serif" font-size="14.00">outgoing: 1</text>
<text text-anchor="start" x="1689.44" y="-592.8" font-family="Times New Roman,serif" font-size="14.00">loop: 0</text>
<image xlink:href="../States/1006.png" width="130px" height="230px" preserveAspectRatio="xMinYMin meet" x="1644.44" y="-589"/>
<polygon fill="none" stroke="black" points="1643.44,-358 1643.44,-650 1775.44,-650 1775.44,-358 1643.44,-358"/>
</a>
</g>
</g>
<!-- state_1009 -->
<g id="node8" class="node"><title>state_1009</title>
<g id="a_node8"><a xlink:href="../States/1009.png" xlink:title="&lt;TABLE&gt;">
<polygon fill="none" stroke="black" points="1925.44,-650 1793.44,-650 1793.44,-358 1925.44,-358 1925.44,-650"/>
<text text-anchor="start" x="1828.94" y="-637.8" font-family="Times New Roman,serif" font-size="14.00">state_1009</text>
<text text-anchor="start" x="1826.94" y="-622.8" font-family="Times New Roman,serif" font-size="14.00">incoming: 2</text>
<text text-anchor="start" x="1827.94" y="-607.8" font-family="Times New Roman,serif" font-size="14.00">outgoing: 2</text>
<text text-anchor="start" x="1839.44" y="-592.8" font-family="Times New Roman,serif" font-size="14.00">loop: 3</text>
<image xlink:href="../States/1009.png" width="130px" height="230px" preserveAspectRatio="xMinYMin meet" x="1794.44" y="-589"/>
<polygon fill="none" stroke="black" points="1793.44,-358 1793.44,-650 1925.44,-650 1925.44,-358 1793.44,-358"/>
</a>
</g>
</g>
<!-- state_1009&#45;&gt;state_1009 -->
<g id="edge6" class="edge"><title>state_1009&#45;&gt;state_1009</title>
<path fill="none" stroke="black" d="M1925.64,-536.116C1936.21,-531.416 1943.44,-520.711 1943.44,-504 1943.44,-492.25 1939.86,-483.469 1934.07,-477.657"/>
<polygon fill="black" stroke="black" points="1935.87,-474.649 1925.64,-471.884 1931.91,-480.423 1935.87,-474.649"/>
<text text-anchor="middle" x="2053.44" y="-515.3" font-family="Times New Roman,serif" font-size="14.00">click(&quot;index=1&quot;): 993</text>
<text text-anchor="middle" x="2053.44" y="-500.3" font-family="Times New Roman,serif" font-size="14.00">click(&quot;ISO 4217 貨幣碼 index=0&quot;): 994</text>
<text text-anchor="middle" x="2053.44" y="-485.3" font-family="Times New Roman,serif" font-size="14.00">click(&quot;$ £ ¥ π index=1&quot;): 995</text>
</g>
<!-- state_1014 -->
<g id="node9" class="node"><title>state_1014</title>
<g id="a_node9"><a xlink:href="../States/1014.png" xlink:title="&lt;TABLE&gt;">
<polygon fill="none" stroke="black" points="2313.44,-650 2181.44,-650 2181.44,-358 2313.44,-358 2313.44,-650"/>
<text text-anchor="start" x="2216.94" y="-637.8" font-family="Times New Roman,serif" font-size="14.00">state_1014</text>
<text text-anchor="start" x="2214.94" y="-622.8" font-family="Times New Roman,serif" font-size="14.00">incoming: 1</text>
<text text-anchor="start" x="2215.94" y="-607.8" font-family="Times New Roman,serif" font-size="14.00">outgoing: 1</text>
<text text-anchor="start" x="2227.44" y="-592.8" font-family="Times New Roman,serif" font-size="14.00">loop: 3</text>
<image xlink:href="../States/1014.png" width="130px" height="230px" preserveAspectRatio="xMinYMin meet" x="2182.44" y="-589"/>
<polygon fill="none" stroke="black" points="2181.44,-358 2181.44,-650 2313.44,-650 2313.44,-358 2181.44,-358"/>
</a>
</g>
</g>
<!-- state_1014&#45;&gt;state_1014 -->
<g id="edge7" class="edge"><title>state_1014&#45;&gt;state_1014</title>
<path fill="none" stroke="black" d="M2313.64,-536.116C2324.21,-531.416 2331.44,-520.711 2331.44,-504 2331.44,-492.25 2327.86,-483.469 2322.07,-477.657"/>
<polygon fill="black" stroke="black" points="2323.87,-474.649 2313.64,-471.884 2319.91,-480.423 2323.87,-474.649"/>
<text text-anchor="middle" x="2441.44" y="-515.3" font-family="Times New Roman,serif" font-size="14.00">click(&quot;index=1&quot;): 998</text>
<text text-anchor="middle" x="2441.44" y="-500.3" font-family="Times New Roman,serif" font-size="14.00">click(&quot;ISO 4217 貨幣碼 index=0&quot;): 999</text>
<text text-anchor="middle" x="2441.44" y="-485.3" font-family="Times New Roman,serif" font-size="14.00">click(&quot;$ £ ¥ π index=1&quot;): 1000</text>
</g>
<!-- state_1018 -->
<g id="node10" class="node"><title>state_1018</title>
<g id="a_node10"><a xlink:href="../States/1018.png" xlink:title="&lt;TABLE&gt;">
<polygon fill="none" stroke="black" points="2701.44,-650 2569.44,-650 2569.44,-358 2701.44,-358 2701.44,-650"/>
<text text-anchor="start" x="2604.94" y="-637.8" font-family="Times New Roman,serif" font-size="14.00">state_1018</text>
<text text-anchor="start" x="2602.94" y="-622.8" font-family="Times New Roman,serif" font-size="14.00">incoming: 1</text>
<text text-anchor="start" x="2603.94" y="-607.8" font-family="Times New Roman,serif" font-size="14.00">outgoing: 1</text>
<text text-anchor="start" x="2615.44" y="-592.8" font-family="Times New Roman,serif" font-size="14.00">loop: 0</text>
<image xlink:href="../States/1018.png" width="130px" height="230px" preserveAspectRatio="xMinYMin meet" x="2570.44" y="-589"/>
<polygon fill="none" stroke="black" points="2569.44,-358 2569.44,-650 2701.44,-650 2701.44,-358 2569.44,-358"/>
</a>
</g>
</g>
<!-- state_1020 -->
<g id="node11" class="node"><title>state_1020</title>
<g id="a_node11"><a xlink:href="../States/1020.png" xlink:title="&lt;TABLE&gt;">
<polygon fill="none" stroke="black" points="2851.44,-650 2719.44,-650 2719.44,-358 2851.44,-358 2851.44,-650"/>
<text text-anchor="start" x="2754.94" y="-637.8" font-family="Times New Roman,serif" font-size="14.00">state_1020</text>
<text text-anchor="start" x="2752.94" y="-622.8" font-family="Times New Roman,serif" font-size="14.00">incoming: 1</text>
<text text-anchor="start" x="2753.94" y="-607.8" font-family="Times New Roman,serif" font-size="14.00">outgoing: 1</text>
<text text-anchor="start" x="2765.44" y="-592.8" font-family="Times New Roman,serif" font-size="14.00">loop: 0</text>
<image xlink:href="../States/1020.png" width="130px" height="230px" preserveAspectRatio="xMinYMin meet" x="2720.44" y="-589"/>
<polygon fill="none" stroke="black" points="2719.44,-358 2719.44,-650 2851.44,-650 2851.44,-358 2719.44,-358"/>
</a>
</g>
</g>
<!-- state_1022 -->
<g id="node12" class="node"><title>state_1022</title>
<g id="a_node12"><a xlink:href="../States/1022.png" xlink:title="&lt;TABLE&gt;">
<polygon fill="none" stroke="black" points="3001.44,-650 2869.44,-650 2869.44,-358 3001.44,-358 3001.44,-650"/>
<text text-anchor="start" x="2904.94" y="-637.8" font-family="Times New Roman,serif" font-size="14.00">state_1022</text>
<text text-anchor="start" x="2902.94" y="-622.8" font-family="Times New Roman,serif" font-size="14.00">incoming: 1</text>
<text text-anchor="start" x="2903.94" y="-607.8" font-family="Times New Roman,serif" font-size="14.00">outgoing: 1</text>
<text text-anchor="start" x="2915.44" y="-592.8" font-family="Times New Roman,serif" font-size="14.00">loop: 0</text>
<image xlink:href="../States/1022.png" width="130px" height="230px" preserveAspectRatio="xMinYMin meet" x="2870.44" y="-589"/>
<polygon fill="none" stroke="black" points="2869.44,-358 2869.44,-650 3001.44,-650 3001.44,-358 2869.44,-358"/>
</a>
</g>
</g>
<!-- state_1024 -->
<g id="node13" class="node"><title>state_1024</title>
<g id="a_node13"><a xlink:href="../States/1024.png" xlink:title="&lt;TABLE&gt;">
<polygon fill="none" stroke="black" points="3151.44,-650 3019.44,-650 3019.44,-358 3151.44,-358 3151.44,-650"/>
<text text-anchor="start" x="3054.94" y="-637.8" font-family="Times New Roman,serif" font-size="14.00">state_1024</text>
<text text-anchor="start" x="3052.94" y="-622.8" font-family="Times New Roman,serif" font-size="14.00">incoming: 1</text>
<text text-anchor="start" x="3053.94" y="-607.8" font-family="Times New Roman,serif" font-size="14.00">outgoing: 1</text>
<text text-anchor="start" x="3065.44" y="-592.8" font-family="Times New Roman,serif" font-size="14.00">loop: 0</text>
<image xlink:href="../States/1024.png" width="130px" height="230px" preserveAspectRatio="xMinYMin meet" x="3020.44" y="-589"/>
<polygon fill="none" stroke="black" points="3019.44,-358 3019.44,-650 3151.44,-650 3151.44,-358 3019.44,-358"/>
</a>
</g>
</g>
<!-- state_1026 -->
<g id="node14" class="node"><title>state_1026</title>
<g id="a_node14"><a xlink:href="../States/1026.png" xlink:title="&lt;TABLE&gt;">
<polygon fill="none" stroke="black" points="3301.44,-650 3169.44,-650 3169.44,-358 3301.44,-358 3301.44,-650"/>
<text text-anchor="start" x="3204.94" y="-637.8" font-family="Times New Roman,serif" font-size="14.00">state_1026</text>
<text text-anchor="start" x="3202.94" y="-622.8" font-family="Times New Roman,serif" font-size="14.00">incoming: 2</text>
<text text-anchor="start" x="3203.94" y="-607.8" font-family="Times New Roman,serif" font-size="14.00">outgoing: 2</text>
<text text-anchor="start" x="3215.44" y="-592.8" font-family="Times New Roman,serif" font-size="14.00">loop: 3</text>
<image xlink:href="../States/1026.png" width="130px" height="230px" preserveAspectRatio="xMinYMin meet" x="3170.44" y="-589"/>
<polygon fill="none" stroke="black" points="3169.44,-358 3169.44,-650 3301.44,-650 3301.44,-358 3169.44,-358"/>
</a>
</g>
</g>
<!-- state_1026&#45;&gt;state_1026 -->
<g id="edge8" class="edge"><title>state_1026&#45;&gt;state_1026</title>
<path fill="none" stroke="black" d="M3301.64,-536.116C3312.21,-531.416 3319.44,-520.711 3319.44,-504 3319.44,-492.25 3315.86,-483.469 3310.07,-477.657"/>
<polygon fill="black" stroke="black" points="3311.87,-474.649 3301.64,-471.884 3307.91,-480.423 3311.87,-474.649"/>
<text text-anchor="middle" x="3432.44" y="-515.3" font-family="Times New Roman,serif" font-size="14.00">click(&quot;index=1&quot;): 1010</text>
<text text-anchor="middle" x="3432.44" y="-500.3" font-family="Times New Roman,serif" font-size="14.00">click(&quot;ISO 4217 貨幣碼 index=0&quot;): 1011</text>
<text text-anchor="middle" x="3432.44" y="-485.3" font-family="Times New Roman,serif" font-size="14.00">click(&quot;$ £ ¥ π index=1&quot;): 1012</text>
</g>
<!-- state_1033 -->
<g id="node15" class="node"><title>state_1033</title>
<g id="a_node15"><a xlink:href="../States/1033.png" xlink:title="&lt;TABLE&gt;">
<polygon fill="none" stroke="black" points="3695.44,-650 3563.44,-650 3563.44,-358 3695.44,-358 3695.44,-650"/>
<text text-anchor="start" x="3598.94" y="-637.8" font-family="Times New Roman,serif" font-size="14.00">state_1033</text>
<text text-anchor="start" x="3596.94" y="-622.8" font-family="Times New Roman,serif" font-size="14.00">incoming: 1</text>
<text text-anchor="start" x="3597.94" y="-607.8" font-family="Times New Roman,serif" font-size="14.00">outgoing: 1</text>
<text text-anchor="start" x="3609.44" y="-592.8" font-family="Times New Roman,serif" font-size="14.00">loop: 3</text>
<image xlink:href="../States/1033.png" width="130px" height="230px" preserveAspectRatio="xMinYMin meet" x="3564.44" y="-589"/>
<polygon fill="none" stroke="black" points="3563.44,-358 3563.44,-650 3695.44,-650 3695.44,-358 3563.44,-358"/>
</a>
</g>
</g>
<!-- state_1033&#45;&gt;state_1033 -->
<g id="edge9" class="edge"><title>state_1033&#45;&gt;state_1033</title>
<path fill="none" stroke="black" d="M3695.64,-536.116C3706.21,-531.416 3713.44,-520.711 3713.44,-504 3713.44,-492.25 3709.86,-483.469 3704.07,-477.657"/>
<polygon fill="black" stroke="black" points="3705.87,-474.649 3695.64,-471.884 3701.91,-480.423 3705.87,-474.649"/>
<text text-anchor="middle" x="3826.44" y="-515.3" font-family="Times New Roman,serif" font-size="14.00">click(&quot;index=1&quot;): 1017</text>
<text text-anchor="middle" x="3826.44" y="-500.3" font-family="Times New Roman,serif" font-size="14.00">click(&quot;ISO 4217 貨幣碼 index=0&quot;): 1018</text>
<text text-anchor="middle" x="3826.44" y="-485.3" font-family="Times New Roman,serif" font-size="14.00">click(&quot;$ £ ¥ π index=1&quot;): 1019</text>
</g>
<!-- activityCurrencyListActivity -->
<g id="node16" class="node"><title>activityCurrencyListActivity</title>
<ellipse fill="none" stroke="teal" cx="112.44" cy="-504" rx="112.38" ry="18"/>
<text text-anchor="middle" x="112.44" y="-500.3" font-family="Times New Roman,serif" font-size="14.00" fill="teal">activityCurrencyListActivity</text>
</g>
<!-- activityCurrencyListActivity&#45;&gt;state_988 -->
<g id="edge1" class="edge"><title>activityCurrencyListActivity&#45;&gt;state_988</title>
<path fill="none" stroke="teal" d="M112.44,-485.829C112.44,-452.268 112.44,-374.918 112.44,-302.585"/>
<polygon fill="teal" stroke="teal" points="115.94,-302.417 112.44,-292.417 108.94,-302.417 115.94,-302.417"/>
<text text-anchor="middle" x="198.44" y="-313.8" font-family="Times New Roman,serif" font-size="14.00" fill="teal"> &#160;&#160;click(&quot;確定 index=2&quot;): 971 &#160;&#160;</text>
</g>
</g>
</svg>
