<?xml version="1.0" encoding="UTF-8" standalone="no"?>
<!DOCTYPE svg PUBLIC "-//W3C//DTD SVG 1.1//EN"
 "http://www.w3.org/Graphics/SVG/1.1/DTD/svg11.dtd">
<!-- Generated by graphviz version 2.38.0 (20140413.2041)
 -->
<!-- Title: activityCategoryListActivity2 Pages: 1 -->
<svg width="468pt" height="474pt"
 viewBox="0.00 0.00 468.14 474.00" xmlns="http://www.w3.org/2000/svg" xmlns:xlink="http://www.w3.org/1999/xlink">
<g id="graph0" class="graph" transform="scale(1 1) rotate(0) translate(4 470)">
<title>activityCategoryListActivity2</title>
<polygon fill="white" stroke="none" points="-4,4 -4,-470 464.141,-470 464.141,4 -4,4"/>
<!-- state_1513 -->
<g id="node1" class="node"><title>state_1513</title>
<g id="a_node1"><a xlink:href="../States/1513.png" xlink:title="&lt;TABLE&gt;">
<polygon fill="none" stroke="black" points="277.141,-379 145.141,-379 145.141,-87 277.141,-87 277.141,-379"/>
<text text-anchor="start" x="180.641" y="-366.8" font-family="Times New Roman,serif" font-size="14.00">state_1513</text>
<text text-anchor="start" x="178.641" y="-351.8" font-family="Times New Roman,serif" font-size="14.00">incoming: 1</text>
<text text-anchor="start" x="179.641" y="-336.8" font-family="Times New Roman,serif" font-size="14.00">outgoing: 2</text>
<text text-anchor="start" x="191.141" y="-321.8" font-family="Times New Roman,serif" font-size="14.00">loop: 4</text>
<image xlink:href="../States/1513.png" width="130px" height="230px" preserveAspectRatio="xMinYMin meet" x="146.141" y="-318"/>
<polygon fill="none" stroke="black" points="145.141,-87 145.141,-379 277.141,-379 277.141,-87 145.141,-87"/>
</a>
</g>
</g>
<!-- state_1513&#45;&gt;state_1513 -->
<g id="edge4" class="edge"><title>state_1513&#45;&gt;state_1513</title>
<path fill="none" stroke="black" d="M277.343,-262.354C287.909,-258.058 295.141,-248.273 295.141,-233 295.141,-222.5 291.723,-214.593 286.153,-209.282"/>
<polygon fill="black" stroke="black" points="287.653,-206.086 277.343,-203.646 283.881,-211.983 287.653,-206.086"/>
<text text-anchor="middle" x="358.641" y="-251.8" font-family="Times New Roman,serif" font-size="14.00">click(&quot;index=2&quot;): 3159</text>
<text text-anchor="middle" x="358.641" y="-236.8" font-family="Times New Roman,serif" font-size="14.00">click(&quot;index=3&quot;): 3160</text>
<text text-anchor="middle" x="358.641" y="-221.8" font-family="Times New Roman,serif" font-size="14.00">click(&quot;index=4&quot;): 3161</text>
<text text-anchor="middle" x="358.641" y="-206.8" font-family="Times New Roman,serif" font-size="14.00">click(&quot;index=5&quot;): 3162</text>
</g>
<!-- activityCategoryActivity -->
<g id="node3" class="node"><title>activityCategoryActivity</title>
<ellipse fill="none" stroke="teal" cx="98.1413" cy="-18" rx="98.2828" ry="18"/>
<text text-anchor="middle" x="98.1413" y="-14.3" font-family="Times New Roman,serif" font-size="14.00" fill="teal">activityCategoryActivity</text>
</g>
<!-- state_1513&#45;&gt;activityCategoryActivity -->
<g id="edge2" class="edge"><title>state_1513&#45;&gt;activityCategoryActivity</title>
<path fill="none" stroke="teal" d="M145.087,-118.906C136.058,-102.331 127.15,-85.3399 119.141,-69 115.511,-61.5934 111.906,-53.4003 108.734,-45.8266"/>
<polygon fill="teal" stroke="teal" points="111.879,-44.2708 104.848,-36.3451 105.402,-46.9254 111.879,-44.2708"/>
<text text-anchor="middle" x="211.141" y="-57.8" font-family="Times New Roman,serif" font-size="14.00" fill="teal"> &#160;&#160;click(&quot;index=0&quot;): 1462, 3163 &#160;&#160;</text>
</g>
<!-- activityAttributeListActivity -->
<g id="node4" class="node"><title>activityAttributeListActivity</title>
<ellipse fill="none" stroke="teal" cx="325.141" cy="-18" rx="110.48" ry="18"/>
<text text-anchor="middle" x="325.141" y="-14.3" font-family="Times New Roman,serif" font-size="14.00" fill="teal">activityAttributeListActivity</text>
</g>
<!-- state_1513&#45;&gt;activityAttributeListActivity -->
<g id="edge3" class="edge"><title>state_1513&#45;&gt;activityAttributeListActivity</title>
<path fill="none" stroke="teal" d="M277.186,-118.338C286.17,-101.922 295.067,-85.1265 303.141,-69 306.903,-61.4871 310.696,-53.1859 314.048,-45.5419"/>
<polygon fill="teal" stroke="teal" points="317.278,-46.8884 318.022,-36.3197 310.85,-44.1179 317.278,-46.8884"/>
<text text-anchor="middle" x="385.641" y="-57.8" font-family="Times New Roman,serif" font-size="14.00" fill="teal"> &#160;&#160;click(&quot;index=1&quot;): 3083 &#160;&#160;</text>
</g>
<!-- activityMainActivity -->
<g id="node2" class="node"><title>activityMainActivity</title>
<ellipse fill="none" stroke="teal" cx="211.141" cy="-448" rx="83.3857" ry="18"/>
<text text-anchor="middle" x="211.141" y="-444.3" font-family="Times New Roman,serif" font-size="14.00" fill="teal">activityMainActivity</text>
</g>
<!-- activityMainActivity&#45;&gt;state_1513 -->
<g id="edge1" class="edge"><title>activityMainActivity&#45;&gt;state_1513</title>
<path fill="none" stroke="teal" d="M211.141,-429.929C211.141,-419.71 211.141,-405.615 211.141,-389.628"/>
<polygon fill="teal" stroke="teal" points="214.641,-389.447 211.141,-379.447 207.641,-389.447 214.641,-389.447"/>
<text text-anchor="middle" x="320.141" y="-400.8" font-family="Times New Roman,serif" font-size="14.00" fill="teal"> &#160;&#160;click(&quot;index=2&quot;): 1461, 3082, 3158 &#160;&#160;</text>
</g>
</g>
</svg>
