<?xml version="1.0" encoding="UTF-8" standalone="no"?>
<!DOCTYPE svg PUBLIC "-//W3C//DTD SVG 1.1//EN"
 "http://www.w3.org/Graphics/SVG/1.1/DTD/svg11.dtd">
<!-- Generated by graphviz version 2.38.0 (20140413.2041)
 -->
<!-- Title: activityReport2DChartActivity Pages: 1 -->
<svg width="3526pt" height="730pt"
 viewBox="0.00 0.00 3526.00 730.00" xmlns="http://www.w3.org/2000/svg" xmlns:xlink="http://www.w3.org/1999/xlink">
<g id="graph0" class="graph" transform="scale(1 1) rotate(0) translate(4 726)">
<title>activityReport2DChartActivity</title>
<polygon fill="white" stroke="none" points="-4,4 -4,-726 3522,-726 3522,4 -4,4"/>
<!-- state_869 -->
<g id="node1" class="node"><title>state_869</title>
<g id="a_node1"><a xlink:href="../States/869.png" xlink:title="&lt;TABLE&gt;">
<polygon fill="none" stroke="black" points="132,-292 0,-292 0,-0 132,-0 132,-292"/>
<text text-anchor="start" x="39" y="-279.8" font-family="Times New Roman,serif" font-size="14.00">state_869</text>
<text text-anchor="start" x="33.5" y="-264.8" font-family="Times New Roman,serif" font-size="14.00">incoming: 1</text>
<text text-anchor="start" x="34.5" y="-249.8" font-family="Times New Roman,serif" font-size="14.00">outgoing: 1</text>
<text text-anchor="start" x="46" y="-234.8" font-family="Times New Roman,serif" font-size="14.00">loop: 0</text>
<image xlink:href="../States/869.png" width="130px" height="230px" preserveAspectRatio="xMinYMin meet" x="1" y="-231"/>
<polygon fill="none" stroke="black" points="0,-0 0,-292 132,-292 132,-0 0,-0"/>
</a>
</g>
</g>
<!-- state_870 -->
<g id="node2" class="node"><title>state_870</title>
<g id="a_node2"><a xlink:href="../States/870.png" xlink:title="&lt;TABLE&gt;">
<polygon fill="none" stroke="black" points="783,-722 651,-722 651,-430 783,-430 783,-722"/>
<text text-anchor="start" x="690" y="-709.8" font-family="Times New Roman,serif" font-size="14.00">state_870</text>
<text text-anchor="start" x="684.5" y="-694.8" font-family="Times New Roman,serif" font-size="14.00">incoming: 2</text>
<text text-anchor="start" x="685.5" y="-679.8" font-family="Times New Roman,serif" font-size="14.00">outgoing: 2</text>
<text text-anchor="start" x="697" y="-664.8" font-family="Times New Roman,serif" font-size="14.00">loop: 2</text>
<image xlink:href="../States/870.png" width="130px" height="230px" preserveAspectRatio="xMinYMin meet" x="652" y="-661"/>
<polygon fill="none" stroke="black" points="651,-430 651,-722 783,-722 783,-430 651,-430"/>
</a>
</g>
</g>
<!-- state_870&#45;&gt;state_870 -->
<g id="edge6" class="edge"><title>state_870&#45;&gt;state_870</title>
<path fill="none" stroke="black" d="M783.201,-605.354C793.768,-601.058 801,-591.273 801,-576 801,-565.5 797.582,-557.593 792.012,-552.282"/>
<polygon fill="black" stroke="black" points="793.512,-549.086 783.201,-546.646 789.74,-554.983 793.512,-549.086"/>
<text text-anchor="middle" x="861" y="-579.8" font-family="Times New Roman,serif" font-size="14.00">click(&quot;index=0&quot;): 859</text>
<text text-anchor="middle" x="861" y="-564.8" font-family="Times New Roman,serif" font-size="14.00">click(&quot;index=2&quot;): 860</text>
</g>
<!-- activityReportPreferencesActivity -->
<g id="node18" class="node"><title>activityReportPreferencesActivity</title>
<ellipse fill="none" stroke="teal" cx="1293" cy="-361" rx="132.677" ry="18"/>
<text text-anchor="middle" x="1293" y="-357.3" font-family="Times New Roman,serif" font-size="14.00" fill="teal">activityReportPreferencesActivity</text>
</g>
<!-- state_870&#45;&gt;activityReportPreferencesActivity -->
<g id="edge5" class="edge"><title>state_870&#45;&gt;activityReportPreferencesActivity</title>
<path fill="none" stroke="teal" d="M783.041,-507.559C825.883,-468.257 885.098,-421.704 947,-397 984.71,-381.95 1078.3,-373.053 1158.65,-367.998"/>
<polygon fill="teal" stroke="teal" points="1159.11,-371.476 1168.88,-367.371 1158.68,-364.49 1159.11,-371.476"/>
<text text-anchor="middle" x="1035.5" y="-400.8" font-family="Times New Roman,serif" font-size="14.00" fill="teal"> &#160;&#160;click(&quot;index=3&quot;): 861, 2818 &#160;&#160;</text>
</g>
<!-- state_902 -->
<g id="node3" class="node"><title>state_902</title>
<g id="a_node3"><a xlink:href="../States/902.png" xlink:title="&lt;TABLE&gt;">
<polygon fill="none" stroke="black" points="432,-292 300,-292 300,-0 432,-0 432,-292"/>
<text text-anchor="start" x="339" y="-279.8" font-family="Times New Roman,serif" font-size="14.00">state_902</text>
<text text-anchor="start" x="333.5" y="-264.8" font-family="Times New Roman,serif" font-size="14.00">incoming: 2</text>
<text text-anchor="start" x="334.5" y="-249.8" font-family="Times New Roman,serif" font-size="14.00">outgoing: 3</text>
<text text-anchor="start" x="346" y="-234.8" font-family="Times New Roman,serif" font-size="14.00">loop: 0</text>
<image xlink:href="../States/902.png" width="130px" height="230px" preserveAspectRatio="xMinYMin meet" x="301" y="-231"/>
<polygon fill="none" stroke="black" points="300,-0 300,-292 432,-292 432,-0 300,-0"/>
</a>
</g>
</g>
<!-- state_903 -->
<g id="node4" class="node"><title>state_903</title>
<g id="a_node4"><a xlink:href="../States/903.png" xlink:title="&lt;TABLE&gt;">
<polygon fill="none" stroke="black" points="1071,-722 939,-722 939,-430 1071,-430 1071,-722"/>
<text text-anchor="start" x="978" y="-709.8" font-family="Times New Roman,serif" font-size="14.00">state_903</text>
<text text-anchor="start" x="972.5" y="-694.8" font-family="Times New Roman,serif" font-size="14.00">incoming: 2</text>
<text text-anchor="start" x="973.5" y="-679.8" font-family="Times New Roman,serif" font-size="14.00">outgoing: 2</text>
<text text-anchor="start" x="985" y="-664.8" font-family="Times New Roman,serif" font-size="14.00">loop: 2</text>
<image xlink:href="../States/903.png" width="130px" height="230px" preserveAspectRatio="xMinYMin meet" x="940" y="-661"/>
<polygon fill="none" stroke="black" points="939,-430 939,-722 1071,-722 1071,-430 939,-430"/>
</a>
</g>
</g>
<!-- state_903&#45;&gt;state_903 -->
<g id="edge8" class="edge"><title>state_903&#45;&gt;state_903</title>
<path fill="none" stroke="black" d="M1071.2,-605.354C1081.77,-601.058 1089,-591.273 1089,-576 1089,-565.5 1085.58,-557.593 1080.01,-552.282"/>
<polygon fill="black" stroke="black" points="1081.51,-549.086 1071.2,-546.646 1077.74,-554.983 1081.51,-549.086"/>
<text text-anchor="middle" x="1149" y="-579.8" font-family="Times New Roman,serif" font-size="14.00">click(&quot;index=0&quot;): 891</text>
<text text-anchor="middle" x="1149" y="-564.8" font-family="Times New Roman,serif" font-size="14.00">click(&quot;index=2&quot;): 892</text>
</g>
<!-- state_903&#45;&gt;activityReportPreferencesActivity -->
<g id="edge7" class="edge"><title>state_903&#45;&gt;activityReportPreferencesActivity</title>
<path fill="none" stroke="teal" d="M1071,-468.827C1092.28,-441.922 1117.98,-415.454 1147,-397 1160.57,-388.371 1176.08,-381.869 1191.8,-376.969"/>
<polygon fill="teal" stroke="teal" points="1192.98,-380.272 1201.61,-374.121 1191.03,-373.55 1192.98,-380.272"/>
<text text-anchor="middle" x="1218" y="-400.8" font-family="Times New Roman,serif" font-size="14.00" fill="teal"> &#160;&#160;click(&quot;index=3&quot;): 893 &#160;&#160;</text>
</g>
<!-- state_920 -->
<g id="node5" class="node"><title>state_920</title>
<g id="a_node5"><a xlink:href="../States/920.png" xlink:title="&lt;TABLE&gt;">
<polygon fill="none" stroke="black" points="697,-292 565,-292 565,-0 697,-0 697,-292"/>
<text text-anchor="start" x="604" y="-279.8" font-family="Times New Roman,serif" font-size="14.00">state_920</text>
<text text-anchor="start" x="598.5" y="-264.8" font-family="Times New Roman,serif" font-size="14.00">incoming: 1</text>
<text text-anchor="start" x="599.5" y="-249.8" font-family="Times New Roman,serif" font-size="14.00">outgoing: 1</text>
<text text-anchor="start" x="611" y="-234.8" font-family="Times New Roman,serif" font-size="14.00">loop: 0</text>
<image xlink:href="../States/920.png" width="130px" height="230px" preserveAspectRatio="xMinYMin meet" x="566" y="-231"/>
<polygon fill="none" stroke="black" points="565,-0 565,-292 697,-292 697,-0 565,-0"/>
</a>
</g>
</g>
<!-- state_921 -->
<g id="node6" class="node"><title>state_921</title>
<g id="a_node6"><a xlink:href="../States/921.png" xlink:title="&lt;TABLE&gt;">
<polygon fill="none" stroke="black" points="1359,-722 1227,-722 1227,-430 1359,-430 1359,-722"/>
<text text-anchor="start" x="1266" y="-709.8" font-family="Times New Roman,serif" font-size="14.00">state_921</text>
<text text-anchor="start" x="1260.5" y="-694.8" font-family="Times New Roman,serif" font-size="14.00">incoming: 1</text>
<text text-anchor="start" x="1261.5" y="-679.8" font-family="Times New Roman,serif" font-size="14.00">outgoing: 2</text>
<text text-anchor="start" x="1273" y="-664.8" font-family="Times New Roman,serif" font-size="14.00">loop: 2</text>
<image xlink:href="../States/921.png" width="130px" height="230px" preserveAspectRatio="xMinYMin meet" x="1228" y="-661"/>
<polygon fill="none" stroke="black" points="1227,-430 1227,-722 1359,-722 1359,-430 1227,-430"/>
</a>
</g>
</g>
<!-- state_921&#45;&gt;state_921 -->
<g id="edge10" class="edge"><title>state_921&#45;&gt;state_921</title>
<path fill="none" stroke="black" d="M1359.2,-605.354C1369.77,-601.058 1377,-591.273 1377,-576 1377,-565.5 1373.58,-557.593 1368.01,-552.282"/>
<polygon fill="black" stroke="black" points="1369.51,-549.086 1359.2,-546.646 1365.74,-554.983 1369.51,-549.086"/>
<text text-anchor="middle" x="1437" y="-579.8" font-family="Times New Roman,serif" font-size="14.00">click(&quot;index=0&quot;): 908</text>
<text text-anchor="middle" x="1437" y="-564.8" font-family="Times New Roman,serif" font-size="14.00">click(&quot;index=2&quot;): 909</text>
</g>
<!-- state_921&#45;&gt;activityReportPreferencesActivity -->
<g id="edge9" class="edge"><title>state_921&#45;&gt;activityReportPreferencesActivity</title>
<path fill="none" stroke="teal" d="M1293,-429.98C1293,-414.732 1293,-400.702 1293,-389.397"/>
<polygon fill="teal" stroke="teal" points="1296.5,-389.057 1293,-379.057 1289.5,-389.057 1296.5,-389.057"/>
<text text-anchor="middle" x="1364" y="-400.8" font-family="Times New Roman,serif" font-size="14.00" fill="teal"> &#160;&#160;click(&quot;index=3&quot;): 910 &#160;&#160;</text>
</g>
<!-- state_938 -->
<g id="node7" class="node"><title>state_938</title>
<g id="a_node7"><a xlink:href="../States/938.png" xlink:title="&lt;TABLE&gt;">
<polygon fill="none" stroke="black" points="1647,-722 1515,-722 1515,-430 1647,-430 1647,-722"/>
<text text-anchor="start" x="1554" y="-709.8" font-family="Times New Roman,serif" font-size="14.00">state_938</text>
<text text-anchor="start" x="1548.5" y="-694.8" font-family="Times New Roman,serif" font-size="14.00">incoming: 1</text>
<text text-anchor="start" x="1549.5" y="-679.8" font-family="Times New Roman,serif" font-size="14.00">outgoing: 1</text>
<text text-anchor="start" x="1561" y="-664.8" font-family="Times New Roman,serif" font-size="14.00">loop: 2</text>
<image xlink:href="../States/938.png" width="130px" height="230px" preserveAspectRatio="xMinYMin meet" x="1516" y="-661"/>
<polygon fill="none" stroke="black" points="1515,-430 1515,-722 1647,-722 1647,-430 1515,-430"/>
</a>
</g>
</g>
<!-- state_938&#45;&gt;state_938 -->
<g id="edge12" class="edge"><title>state_938&#45;&gt;state_938</title>
<path fill="none" stroke="black" d="M1647.2,-605.354C1657.77,-601.058 1665,-591.273 1665,-576 1665,-565.5 1661.58,-557.593 1656.01,-552.282"/>
<polygon fill="black" stroke="black" points="1657.51,-549.086 1647.2,-546.646 1653.74,-554.983 1657.51,-549.086"/>
<text text-anchor="middle" x="1725" y="-579.8" font-family="Times New Roman,serif" font-size="14.00">click(&quot;index=0&quot;): 924</text>
<text text-anchor="middle" x="1725" y="-564.8" font-family="Times New Roman,serif" font-size="14.00">click(&quot;index=2&quot;): 925</text>
</g>
<!-- state_938&#45;&gt;activityReportPreferencesActivity -->
<g id="edge11" class="edge"><title>state_938&#45;&gt;activityReportPreferencesActivity</title>
<path fill="none" stroke="teal" d="M1514.81,-439.348C1511.97,-436.102 1509.04,-432.976 1506,-430 1477.44,-401.996 1437.36,-385.519 1399.67,-375.827"/>
<polygon fill="teal" stroke="teal" points="1400.17,-372.347 1389.63,-373.387 1398.52,-379.15 1400.17,-372.347"/>
<text text-anchor="middle" x="1554" y="-400.8" font-family="Times New Roman,serif" font-size="14.00" fill="teal"> &#160;&#160;click(&quot;index=3&quot;): 926 &#160;&#160;</text>
</g>
<!-- state_2956 -->
<g id="node8" class="node"><title>state_2956</title>
<g id="a_node8"><a xlink:href="../States/2956.png" xlink:title="&lt;TABLE&gt;">
<polygon fill="none" stroke="black" points="2230,-722 2098,-722 2098,-430 2230,-430 2230,-722"/>
<text text-anchor="start" x="2133.5" y="-709.8" font-family="Times New Roman,serif" font-size="14.00">state_2956</text>
<text text-anchor="start" x="2128" y="-694.8" font-family="Times New Roman,serif" font-size="14.00">incoming: 10</text>
<text text-anchor="start" x="2132.5" y="-679.8" font-family="Times New Roman,serif" font-size="14.00">outgoing: 8</text>
<text text-anchor="start" x="2144" y="-664.8" font-family="Times New Roman,serif" font-size="14.00">loop: 1</text>
<image xlink:href="../States/2956.png" width="130px" height="230px" preserveAspectRatio="xMinYMin meet" x="2099" y="-661"/>
<polygon fill="none" stroke="black" points="2098,-430 2098,-722 2230,-722 2230,-430 2098,-430"/>
</a>
</g>
</g>
<!-- state_2956&#45;&gt;state_2956 -->
<g id="edge13" class="edge"><title>state_2956&#45;&gt;state_2956</title>
<path fill="none" stroke="black" d="M2230.2,-605.354C2240.77,-601.058 2248,-591.273 2248,-576 2248,-565.5 2244.58,-557.593 2239.01,-552.282"/>
<polygon fill="black" stroke="black" points="2240.51,-549.086 2230.2,-546.646 2236.74,-554.983 2240.51,-549.086"/>
<text text-anchor="middle" x="2332.5" y="-572.3" font-family="Times New Roman,serif" font-size="14.00">click(&quot;前半年 index=0&quot;): 2802</text>
</g>
<!-- state_2958 -->
<g id="node9" class="node"><title>state_2958</title>
<g id="a_node9"><a xlink:href="../States/2958.png" xlink:title="&lt;TABLE&gt;">
<polygon fill="none" stroke="black" points="2567,-722 2435,-722 2435,-430 2567,-430 2567,-722"/>
<text text-anchor="start" x="2470.5" y="-709.8" font-family="Times New Roman,serif" font-size="14.00">state_2958</text>
<text text-anchor="start" x="2468.5" y="-694.8" font-family="Times New Roman,serif" font-size="14.00">incoming: 7</text>
<text text-anchor="start" x="2469.5" y="-679.8" font-family="Times New Roman,serif" font-size="14.00">outgoing: 8</text>
<text text-anchor="start" x="2481" y="-664.8" font-family="Times New Roman,serif" font-size="14.00">loop: 1</text>
<image xlink:href="../States/2958.png" width="130px" height="230px" preserveAspectRatio="xMinYMin meet" x="2436" y="-661"/>
<polygon fill="none" stroke="black" points="2435,-430 2435,-722 2567,-722 2567,-430 2435,-430"/>
</a>
</g>
</g>
<!-- state_2958&#45;&gt;state_2958 -->
<g id="edge14" class="edge"><title>state_2958&#45;&gt;state_2958</title>
<path fill="none" stroke="black" d="M2567.2,-605.354C2577.77,-601.058 2585,-591.273 2585,-576 2585,-565.5 2581.58,-557.593 2576.01,-552.282"/>
<polygon fill="black" stroke="black" points="2577.51,-549.086 2567.2,-546.646 2573.74,-554.983 2577.51,-549.086"/>
<text text-anchor="middle" x="2676.5" y="-572.3" font-family="Times New Roman,serif" font-size="14.00">click(&quot;前 7 個月 index=1&quot;): 2828</text>
</g>
<!-- state_2960 -->
<g id="node10" class="node"><title>state_2960</title>
<g id="a_node10"><a xlink:href="../States/2960.png" xlink:title="&lt;TABLE&gt;">
<polygon fill="none" stroke="black" points="432,-722 300,-722 300,-430 432,-430 432,-722"/>
<text text-anchor="start" x="335.5" y="-709.8" font-family="Times New Roman,serif" font-size="14.00">state_2960</text>
<text text-anchor="start" x="333.5" y="-694.8" font-family="Times New Roman,serif" font-size="14.00">incoming: 7</text>
<text text-anchor="start" x="334.5" y="-679.8" font-family="Times New Roman,serif" font-size="14.00">outgoing: 8</text>
<text text-anchor="start" x="346" y="-664.8" font-family="Times New Roman,serif" font-size="14.00">loop: 1</text>
<image xlink:href="../States/2960.png" width="130px" height="230px" preserveAspectRatio="xMinYMin meet" x="301" y="-661"/>
<polygon fill="none" stroke="black" points="300,-430 300,-722 432,-722 432,-430 300,-430"/>
</a>
</g>
</g>
<!-- state_2960&#45;&gt;state_2960 -->
<g id="edge16" class="edge"><title>state_2960&#45;&gt;state_2960</title>
<path fill="none" stroke="black" d="M432.201,-605.354C442.768,-601.058 450,-591.273 450,-576 450,-565.5 446.582,-557.593 441.012,-552.282"/>
<polygon fill="black" stroke="black" points="442.512,-549.086 432.201,-546.646 438.74,-554.983 442.512,-549.086"/>
<text text-anchor="middle" x="541.5" y="-572.3" font-family="Times New Roman,serif" font-size="14.00">click(&quot;前 8 個月 index=2&quot;): 2853</text>
</g>
<!-- activityMainActivity -->
<g id="node17" class="node"><title>activityMainActivity</title>
<ellipse fill="none" stroke="teal" cx="366" cy="-361" rx="83.3857" ry="18"/>
<text text-anchor="middle" x="366" y="-357.3" font-family="Times New Roman,serif" font-size="14.00" fill="teal">activityMainActivity</text>
</g>
<!-- state_2960&#45;&gt;activityMainActivity -->
<g id="edge15" class="edge"><title>state_2960&#45;&gt;activityMainActivity</title>
<path fill="none" stroke="teal" d="M366,-429.98C366,-414.732 366,-400.702 366,-389.397"/>
<polygon fill="teal" stroke="teal" points="369.5,-389.057 366,-379.057 362.5,-389.057 369.5,-389.057"/>
<text text-anchor="middle" x="455" y="-400.8" font-family="Times New Roman,serif" font-size="14.00" fill="teal"> &#160;&#160;click(&quot;確定 index=2&quot;): 2864 &#160;&#160;</text>
</g>
<!-- state_2962 -->
<g id="node11" class="node"><title>state_2962</title>
<g id="a_node11"><a xlink:href="../States/2962.png" xlink:title="&lt;TABLE&gt;">
<polygon fill="none" stroke="black" points="2918,-722 2786,-722 2786,-430 2918,-430 2918,-722"/>
<text text-anchor="start" x="2821.5" y="-709.8" font-family="Times New Roman,serif" font-size="14.00">state_2962</text>
<text text-anchor="start" x="2819.5" y="-694.8" font-family="Times New Roman,serif" font-size="14.00">incoming: 3</text>
<text text-anchor="start" x="2820.5" y="-679.8" font-family="Times New Roman,serif" font-size="14.00">outgoing: 3</text>
<text text-anchor="start" x="2832" y="-664.8" font-family="Times New Roman,serif" font-size="14.00">loop: 0</text>
<image xlink:href="../States/2962.png" width="130px" height="230px" preserveAspectRatio="xMinYMin meet" x="2787" y="-661"/>
<polygon fill="none" stroke="black" points="2786,-430 2786,-722 2918,-722 2918,-430 2786,-430"/>
</a>
</g>
</g>
<!-- state_2964 -->
<g id="node12" class="node"><title>state_2964</title>
<g id="a_node12"><a xlink:href="../States/2964.png" xlink:title="&lt;TABLE&gt;">
<polygon fill="none" stroke="black" points="3068,-722 2936,-722 2936,-430 3068,-430 3068,-722"/>
<text text-anchor="start" x="2971.5" y="-709.8" font-family="Times New Roman,serif" font-size="14.00">state_2964</text>
<text text-anchor="start" x="2969.5" y="-694.8" font-family="Times New Roman,serif" font-size="14.00">incoming: 3</text>
<text text-anchor="start" x="2970.5" y="-679.8" font-family="Times New Roman,serif" font-size="14.00">outgoing: 3</text>
<text text-anchor="start" x="2982" y="-664.8" font-family="Times New Roman,serif" font-size="14.00">loop: 0</text>
<image xlink:href="../States/2964.png" width="130px" height="230px" preserveAspectRatio="xMinYMin meet" x="2937" y="-661"/>
<polygon fill="none" stroke="black" points="2936,-430 2936,-722 3068,-722 3068,-430 2936,-430"/>
</a>
</g>
</g>
<!-- state_2966 -->
<g id="node13" class="node"><title>state_2966</title>
<g id="a_node13"><a xlink:href="../States/2966.png" xlink:title="&lt;TABLE&gt;">
<polygon fill="none" stroke="black" points="3218,-722 3086,-722 3086,-430 3218,-430 3218,-722"/>
<text text-anchor="start" x="3121.5" y="-709.8" font-family="Times New Roman,serif" font-size="14.00">state_2966</text>
<text text-anchor="start" x="3119.5" y="-694.8" font-family="Times New Roman,serif" font-size="14.00">incoming: 3</text>
<text text-anchor="start" x="3120.5" y="-679.8" font-family="Times New Roman,serif" font-size="14.00">outgoing: 3</text>
<text text-anchor="start" x="3132" y="-664.8" font-family="Times New Roman,serif" font-size="14.00">loop: 0</text>
<image xlink:href="../States/2966.png" width="130px" height="230px" preserveAspectRatio="xMinYMin meet" x="3087" y="-661"/>
<polygon fill="none" stroke="black" points="3086,-430 3086,-722 3218,-722 3218,-430 3086,-430"/>
</a>
</g>
</g>
<!-- state_2968 -->
<g id="node14" class="node"><title>state_2968</title>
<g id="a_node14"><a xlink:href="../States/2968.png" xlink:title="&lt;TABLE&gt;">
<polygon fill="none" stroke="black" points="3368,-722 3236,-722 3236,-430 3368,-430 3368,-722"/>
<text text-anchor="start" x="3271.5" y="-709.8" font-family="Times New Roman,serif" font-size="14.00">state_2968</text>
<text text-anchor="start" x="3269.5" y="-694.8" font-family="Times New Roman,serif" font-size="14.00">incoming: 3</text>
<text text-anchor="start" x="3270.5" y="-679.8" font-family="Times New Roman,serif" font-size="14.00">outgoing: 3</text>
<text text-anchor="start" x="3282" y="-664.8" font-family="Times New Roman,serif" font-size="14.00">loop: 0</text>
<image xlink:href="../States/2968.png" width="130px" height="230px" preserveAspectRatio="xMinYMin meet" x="3237" y="-661"/>
<polygon fill="none" stroke="black" points="3236,-430 3236,-722 3368,-722 3368,-430 3236,-430"/>
</a>
</g>
</g>
<!-- state_2970 -->
<g id="node15" class="node"><title>state_2970</title>
<g id="a_node15"><a xlink:href="../States/2970.png" xlink:title="&lt;TABLE&gt;">
<polygon fill="none" stroke="black" points="3518,-722 3386,-722 3386,-430 3518,-430 3518,-722"/>
<text text-anchor="start" x="3421.5" y="-709.8" font-family="Times New Roman,serif" font-size="14.00">state_2970</text>
<text text-anchor="start" x="3419.5" y="-694.8" font-family="Times New Roman,serif" font-size="14.00">incoming: 3</text>
<text text-anchor="start" x="3420.5" y="-679.8" font-family="Times New Roman,serif" font-size="14.00">outgoing: 3</text>
<text text-anchor="start" x="3432" y="-664.8" font-family="Times New Roman,serif" font-size="14.00">loop: 0</text>
<image xlink:href="../States/2970.png" width="130px" height="230px" preserveAspectRatio="xMinYMin meet" x="3387" y="-661"/>
<polygon fill="none" stroke="black" points="3386,-430 3386,-722 3518,-722 3518,-430 3386,-430"/>
</a>
</g>
</g>
<!-- state_2997 -->
<g id="node16" class="node"><title>state_2997</title>
<g id="a_node16"><a xlink:href="../States/2997.png" xlink:title="&lt;TABLE&gt;">
<polygon fill="none" stroke="black" points="1935,-722 1803,-722 1803,-430 1935,-430 1935,-722"/>
<text text-anchor="start" x="1838.5" y="-709.8" font-family="Times New Roman,serif" font-size="14.00">state_2997</text>
<text text-anchor="start" x="1836.5" y="-694.8" font-family="Times New Roman,serif" font-size="14.00">incoming: 1</text>
<text text-anchor="start" x="1837.5" y="-679.8" font-family="Times New Roman,serif" font-size="14.00">outgoing: 1</text>
<text text-anchor="start" x="1849" y="-664.8" font-family="Times New Roman,serif" font-size="14.00">loop: 2</text>
<image xlink:href="../States/2997.png" width="130px" height="230px" preserveAspectRatio="xMinYMin meet" x="1804" y="-661"/>
<polygon fill="none" stroke="black" points="1803,-430 1803,-722 1935,-722 1935,-430 1803,-430"/>
</a>
</g>
</g>
<!-- state_2997&#45;&gt;state_2997 -->
<g id="edge18" class="edge"><title>state_2997&#45;&gt;state_2997</title>
<path fill="none" stroke="black" d="M1935.2,-605.354C1945.77,-601.058 1953,-591.273 1953,-576 1953,-565.5 1949.58,-557.593 1944.01,-552.282"/>
<polygon fill="black" stroke="black" points="1945.51,-549.086 1935.2,-546.646 1941.74,-554.983 1945.51,-549.086"/>
<text text-anchor="middle" x="2016.5" y="-579.8" font-family="Times New Roman,serif" font-size="14.00">click(&quot;index=0&quot;): 2842</text>
<text text-anchor="middle" x="2016.5" y="-564.8" font-family="Times New Roman,serif" font-size="14.00">click(&quot;index=2&quot;): 2843</text>
</g>
<!-- state_2997&#45;&gt;activityReportPreferencesActivity -->
<g id="edge17" class="edge"><title>state_2997&#45;&gt;activityReportPreferencesActivity</title>
<path fill="none" stroke="teal" d="M1802.83,-437.363C1800,-434.764 1797.06,-432.302 1794,-430 1738.49,-388.198 1559.99,-372.092 1431.87,-365.888"/>
<polygon fill="teal" stroke="teal" points="1431.73,-362.377 1421.58,-365.405 1431.4,-369.37 1431.73,-362.377"/>
<text text-anchor="middle" x="1833.5" y="-400.8" font-family="Times New Roman,serif" font-size="14.00" fill="teal"> &#160;&#160;click(&quot;index=3&quot;): 2844 &#160;&#160;</text>
</g>
<!-- activityMainActivity&#45;&gt;state_869 -->
<g id="edge1" class="edge"><title>activityMainActivity&#45;&gt;state_869</title>
<path fill="none" stroke="teal" d="M286.577,-355.437C206.641,-350.043 93.174,-339.878 79,-325 72.3294,-317.998 67.0921,-310.058 63.0377,-301.512"/>
<polygon fill="teal" stroke="teal" points="66.1612,-299.907 59.0908,-292.017 59.6974,-302.594 66.1612,-299.907"/>
<text text-anchor="middle" x="167.5" y="-313.8" font-family="Times New Roman,serif" font-size="14.00" fill="teal"> &#160;&#160;click(&quot;index=5&quot;): 857, 2799 &#160;&#160;</text>
</g>
<!-- activityMainActivity&#45;&gt;state_902 -->
<g id="edge2" class="edge"><title>activityMainActivity&#45;&gt;state_902</title>
<path fill="none" stroke="teal" d="M301.134,-349.706C287.766,-344.494 275.262,-336.684 267,-325 241.946,-289.569 263.662,-247.203 293.065,-212.694"/>
<polygon fill="teal" stroke="teal" points="295.858,-214.818 299.851,-205.005 290.61,-210.186 295.858,-214.818"/>
<text text-anchor="middle" x="355.5" y="-313.8" font-family="Times New Roman,serif" font-size="14.00" fill="teal"> &#160;&#160;click(&quot;index=6&quot;): 889, 2824 &#160;&#160;</text>
</g>
<!-- activityMainActivity&#45;&gt;state_902 -->
<g id="edge4" class="edge"><title>activityMainActivity&#45;&gt;state_902</title>
<path fill="none" stroke="teal" d="M417.565,-346.863C428.01,-341.764 437.709,-334.719 444,-325 447.623,-319.404 445.475,-316.501 444,-310 441.764,-300.147 438.856,-290.193 435.48,-280.319"/>
<polygon fill="teal" stroke="teal" points="438.769,-279.122 432.107,-270.884 432.178,-281.478 438.769,-279.122"/>
<text text-anchor="middle" x="517" y="-313.8" font-family="Times New Roman,serif" font-size="14.00" fill="teal"> &#160;&#160;click(&quot;index=8&quot;): 922 &#160;&#160;</text>
</g>
<!-- activityMainActivity&#45;&gt;state_920 -->
<g id="edge3" class="edge"><title>activityMainActivity&#45;&gt;state_920</title>
<path fill="none" stroke="teal" d="M447.136,-356.926C503.22,-353.084 571.313,-344.441 592,-325 599.435,-318.013 605.615,-309.961 610.739,-301.225"/>
<polygon fill="teal" stroke="teal" points="613.896,-302.743 615.519,-292.273 607.721,-299.446 613.896,-302.743"/>
<text text-anchor="middle" x="693.5" y="-313.8" font-family="Times New Roman,serif" font-size="14.00" fill="teal"> &#160;&#160;click(&quot;index=7&quot;): 906, 2849 &#160;&#160;</text>
</g>
</g>
</svg>
