<?xml version="1.0" encoding="UTF-8" standalone="no"?>
<!DOCTYPE svg PUBLIC "-//W3C//DTD SVG 1.1//EN"
 "http://www.w3.org/Graphics/SVG/1.1/DTD/svg11.dtd">
<!-- Generated by graphviz version 2.38.0 (20140413.2041)
 -->
<!-- Title: activityCurrencyListActivity Pages: 1 -->
<svg width="2922pt" height="760pt"
 viewBox="0.00 0.00 2921.89 760.00" xmlns="http://www.w3.org/2000/svg" xmlns:xlink="http://www.w3.org/1999/xlink">
<g id="graph0" class="graph" transform="scale(1 1) rotate(0) translate(4 756)">
<title>activityCurrencyListActivity</title>
<polygon fill="white" stroke="none" points="-4,4 -4,-756 2917.89,-756 2917.89,4 -4,4"/>
<!-- state_971 -->
<g id="node1" class="node"><title>state_971</title>
<g id="a_node1"><a xlink:href="../States/971.png" xlink:title="&lt;TABLE&gt;">
<polygon fill="none" stroke="black" points="199.888,-379 67.8881,-379 67.8881,-87 199.888,-87 199.888,-379"/>
<text text-anchor="start" x="106.888" y="-366.8" font-family="Times New Roman,serif" font-size="14.00">state_971</text>
<text text-anchor="start" x="101.388" y="-351.8" font-family="Times New Roman,serif" font-size="14.00">incoming: 1</text>
<text text-anchor="start" x="102.388" y="-336.8" font-family="Times New Roman,serif" font-size="14.00">outgoing: 2</text>
<text text-anchor="start" x="113.888" y="-321.8" font-family="Times New Roman,serif" font-size="14.00">loop: 0</text>
<image xlink:href="../States/971.png" width="130px" height="230px" preserveAspectRatio="xMinYMin meet" x="68.8881" y="-318"/>
<polygon fill="none" stroke="black" points="67.8881,-87 67.8881,-379 199.888,-379 199.888,-87 67.8881,-87"/>
</a>
</g>
</g>
<!-- activityExchangeRatesListActivity -->
<g id="node12" class="node"><title>activityExchangeRatesListActivity</title>
<ellipse fill="none" stroke="teal" cx="133.888" cy="-18" rx="133.776" ry="18"/>
<text text-anchor="middle" x="133.888" y="-14.3" font-family="Times New Roman,serif" font-size="14.00" fill="teal">activityExchangeRatesListActivity</text>
</g>
<!-- state_971&#45;&gt;activityExchangeRatesListActivity -->
<g id="edge3" class="edge"><title>state_971&#45;&gt;activityExchangeRatesListActivity</title>
<path fill="none" stroke="teal" d="M133.888,-86.9802C133.888,-71.7324 133.888,-57.7021 133.888,-46.3972"/>
<polygon fill="teal" stroke="teal" points="137.388,-46.0566 133.888,-36.0566 130.388,-46.0567 137.388,-46.0566"/>
<text text-anchor="middle" x="208.388" y="-57.8" font-family="Times New Roman,serif" font-size="14.00" fill="teal"> &#160;&#160;click(&quot;index=1&quot;): 3078 &#160;&#160;</text>
</g>
<!-- state_972 -->
<g id="node2" class="node"><title>state_972</title>
<g id="a_node2"><a xlink:href="../States/972.png" xlink:title="&lt;TABLE&gt;">
<polygon fill="none" stroke="black" points="657.888,-379 525.888,-379 525.888,-87 657.888,-87 657.888,-379"/>
<text text-anchor="start" x="564.888" y="-366.8" font-family="Times New Roman,serif" font-size="14.00">state_972</text>
<text text-anchor="start" x="555.888" y="-351.8" font-family="Times New Roman,serif" font-size="14.00">incoming: 12</text>
<text text-anchor="start" x="560.388" y="-336.8" font-family="Times New Roman,serif" font-size="14.00">outgoing: 8</text>
<text text-anchor="start" x="571.888" y="-321.8" font-family="Times New Roman,serif" font-size="14.00">loop: 1</text>
<image xlink:href="../States/972.png" width="130px" height="230px" preserveAspectRatio="xMinYMin meet" x="526.888" y="-318"/>
<polygon fill="none" stroke="black" points="525.888,-87 525.888,-379 657.888,-379 657.888,-87 525.888,-87"/>
</a>
</g>
</g>
<!-- state_972&#45;&gt;state_972 -->
<g id="edge5" class="edge"><title>state_972&#45;&gt;state_972</title>
<path fill="none" stroke="black" d="M658.09,-262.354C668.656,-258.058 675.888,-248.273 675.888,-233 675.888,-222.5 672.47,-214.593 666.9,-209.282"/>
<polygon fill="black" stroke="black" points="668.4,-206.086 658.09,-203.646 664.628,-211.983 668.4,-206.086"/>
<text text-anchor="middle" x="763.888" y="-229.3" font-family="Times New Roman,serif" font-size="14.00">click(&quot;新幣值… index=0&quot;): 956</text>
</g>
<!-- activityCurrencyActivity -->
<g id="node13" class="node"><title>activityCurrencyActivity</title>
<ellipse fill="none" stroke="teal" cx="591.888" cy="-18" rx="98.5829" ry="18"/>
<text text-anchor="middle" x="591.888" y="-14.3" font-family="Times New Roman,serif" font-size="14.00" fill="teal">activityCurrencyActivity</text>
</g>
<!-- state_972&#45;&gt;activityCurrencyActivity -->
<g id="edge4" class="edge"><title>state_972&#45;&gt;activityCurrencyActivity</title>
<path fill="none" stroke="teal" d="M591.888,-86.9802C591.888,-71.7324 591.888,-57.7021 591.888,-46.3972"/>
<polygon fill="teal" stroke="teal" points="595.388,-46.0566 591.888,-36.0566 588.388,-46.0567 595.388,-46.0566"/>
<text text-anchor="middle" x="677.888" y="-57.8" font-family="Times New Roman,serif" font-size="14.00" fill="teal"> &#160;&#160;click(&quot;確定 index=2&quot;): 971 &#160;&#160;</text>
</g>
<!-- state_974 -->
<g id="node3" class="node"><title>state_974</title>
<g id="a_node3"><a xlink:href="../States/974Equivalent.svg" xlink:title="&lt;TABLE&gt;">
<polygon fill="none" stroke="peru" points="857.888,-752 705.888,-752 705.888,-430 857.888,-430 857.888,-752"/>
<text text-anchor="start" x="754.888" y="-739.8" font-family="Times New Roman,serif" font-size="14.00">state_974</text>
<text text-anchor="start" x="749.388" y="-724.8" font-family="Times New Roman,serif" font-size="14.00">incoming: 7</text>
<text text-anchor="start" x="750.388" y="-709.8" font-family="Times New Roman,serif" font-size="14.00">outgoing: 7</text>
<text text-anchor="start" x="761.888" y="-694.8" font-family="Times New Roman,serif" font-size="14.00">loop: 2</text>
<text text-anchor="start" x="736.888" y="-679.8" font-family="Times New Roman,serif" font-size="14.00">Equivalent State</text>
<text text-anchor="start" x="714.888" y="-664.8" font-family="Times New Roman,serif" font-size="14.00">EquivalentStateCount: 1</text>
<image xlink:href="../States/974.png" width="150px" height="230px" preserveAspectRatio="xMinYMin meet" x="706.888" y="-661"/>
<polygon fill="none" stroke="peru" points="705.888,-430 705.888,-752 857.888,-752 857.888,-430 705.888,-430"/>
</a>
</g>
</g>
<!-- state_974&#45;&gt;state_974 -->
<g id="edge6" class="edge"><title>state_974&#45;&gt;state_974</title>
<path fill="none" stroke="black" d="M858.235,-622.12C868.816,-616.994 875.888,-606.621 875.888,-591 875.888,-580.016 872.392,-571.627 866.638,-565.832"/>
<polygon fill="black" stroke="black" points="868.418,-562.805 858.235,-559.88 864.372,-568.517 868.418,-562.805"/>
<text text-anchor="middle" x="1011.39" y="-594.8" font-family="Times New Roman,serif" font-size="14.00">click(&quot;AED (United Arab Emi... index=1&quot;): 1063</text>
<text text-anchor="middle" x="1011.39" y="-579.8" font-family="Times New Roman,serif" font-size="14.00">click(&quot;確定 index=2&quot;): 1076</text>
</g>
<!-- state_976 -->
<g id="node4" class="node"><title>state_976</title>
<g id="a_node4"><a xlink:href="../States/976Equivalent.svg" xlink:title="&lt;TABLE&gt;">
<polygon fill="none" stroke="peru" points="1316.89,-752 1164.89,-752 1164.89,-430 1316.89,-430 1316.89,-752"/>
<text text-anchor="start" x="1213.89" y="-739.8" font-family="Times New Roman,serif" font-size="14.00">state_976</text>
<text text-anchor="start" x="1208.39" y="-724.8" font-family="Times New Roman,serif" font-size="14.00">incoming: 7</text>
<text text-anchor="start" x="1209.39" y="-709.8" font-family="Times New Roman,serif" font-size="14.00">outgoing: 7</text>
<text text-anchor="start" x="1220.89" y="-694.8" font-family="Times New Roman,serif" font-size="14.00">loop: 2</text>
<text text-anchor="start" x="1195.89" y="-679.8" font-family="Times New Roman,serif" font-size="14.00">Equivalent State</text>
<text text-anchor="start" x="1173.89" y="-664.8" font-family="Times New Roman,serif" font-size="14.00">EquivalentStateCount: 1</text>
<image xlink:href="../States/976.png" width="150px" height="230px" preserveAspectRatio="xMinYMin meet" x="1165.89" y="-661"/>
<polygon fill="none" stroke="peru" points="1164.89,-430 1164.89,-752 1316.89,-752 1316.89,-430 1164.89,-430"/>
</a>
</g>
</g>
<!-- state_976&#45;&gt;state_976 -->
<g id="edge7" class="edge"><title>state_976&#45;&gt;state_976</title>
<path fill="none" stroke="black" d="M1317.24,-622.12C1327.82,-616.994 1334.89,-606.621 1334.89,-591 1334.89,-580.016 1331.39,-571.627 1325.64,-565.832"/>
<polygon fill="black" stroke="black" points="1327.42,-562.805 1317.24,-559.88 1323.37,-568.517 1327.42,-562.805"/>
<text text-anchor="middle" x="1462.39" y="-594.8" font-family="Times New Roman,serif" font-size="14.00">click(&quot;AFN (Afghan afghani) index=2&quot;): 1814</text>
<text text-anchor="middle" x="1462.39" y="-579.8" font-family="Times New Roman,serif" font-size="14.00">click(&quot;確定 index=2&quot;): 1825</text>
</g>
<!-- state_978 -->
<g id="node5" class="node"><title>state_978</title>
<g id="a_node5"><a xlink:href="../States/978Equivalent.svg" xlink:title="&lt;TABLE&gt;">
<polygon fill="none" stroke="peru" points="1759.89,-752 1607.89,-752 1607.89,-430 1759.89,-430 1759.89,-752"/>
<text text-anchor="start" x="1656.89" y="-739.8" font-family="Times New Roman,serif" font-size="14.00">state_978</text>
<text text-anchor="start" x="1651.39" y="-724.8" font-family="Times New Roman,serif" font-size="14.00">incoming: 7</text>
<text text-anchor="start" x="1652.39" y="-709.8" font-family="Times New Roman,serif" font-size="14.00">outgoing: 7</text>
<text text-anchor="start" x="1663.89" y="-694.8" font-family="Times New Roman,serif" font-size="14.00">loop: 2</text>
<text text-anchor="start" x="1638.89" y="-679.8" font-family="Times New Roman,serif" font-size="14.00">Equivalent State</text>
<text text-anchor="start" x="1616.89" y="-664.8" font-family="Times New Roman,serif" font-size="14.00">EquivalentStateCount: 1</text>
<image xlink:href="../States/978.png" width="150px" height="230px" preserveAspectRatio="xMinYMin meet" x="1608.89" y="-661"/>
<polygon fill="none" stroke="peru" points="1607.89,-430 1607.89,-752 1759.89,-752 1759.89,-430 1607.89,-430"/>
</a>
</g>
</g>
<!-- state_978&#45;&gt;state_978 -->
<g id="edge8" class="edge"><title>state_978&#45;&gt;state_978</title>
<path fill="none" stroke="black" d="M1760.24,-622.12C1770.82,-616.994 1777.89,-606.621 1777.89,-591 1777.89,-580.016 1774.39,-571.627 1768.64,-565.832"/>
<polygon fill="black" stroke="black" points="1770.42,-562.805 1760.24,-559.88 1766.37,-568.517 1770.42,-562.805"/>
<text text-anchor="middle" x="1896.89" y="-594.8" font-family="Times New Roman,serif" font-size="14.00">click(&quot;ALL (Albanian lek) index=3&quot;): 1961</text>
<text text-anchor="middle" x="1896.89" y="-579.8" font-family="Times New Roman,serif" font-size="14.00">click(&quot;確定 index=2&quot;): 1970</text>
</g>
<!-- state_980 -->
<g id="node6" class="node"><title>state_980</title>
<g id="a_node6"><a xlink:href="../States/980Equivalent.svg" xlink:title="&lt;TABLE&gt;">
<polygon fill="none" stroke="peru" points="2185.89,-752 2033.89,-752 2033.89,-430 2185.89,-430 2185.89,-752"/>
<text text-anchor="start" x="2082.89" y="-739.8" font-family="Times New Roman,serif" font-size="14.00">state_980</text>
<text text-anchor="start" x="2077.39" y="-724.8" font-family="Times New Roman,serif" font-size="14.00">incoming: 7</text>
<text text-anchor="start" x="2078.39" y="-709.8" font-family="Times New Roman,serif" font-size="14.00">outgoing: 7</text>
<text text-anchor="start" x="2089.89" y="-694.8" font-family="Times New Roman,serif" font-size="14.00">loop: 2</text>
<text text-anchor="start" x="2064.89" y="-679.8" font-family="Times New Roman,serif" font-size="14.00">Equivalent State</text>
<text text-anchor="start" x="2042.89" y="-664.8" font-family="Times New Roman,serif" font-size="14.00">EquivalentStateCount: 1</text>
<image xlink:href="../States/980.png" width="150px" height="230px" preserveAspectRatio="xMinYMin meet" x="2034.89" y="-661"/>
<polygon fill="none" stroke="peru" points="2033.89,-430 2033.89,-752 2185.89,-752 2185.89,-430 2033.89,-430"/>
</a>
</g>
</g>
<!-- state_980&#45;&gt;state_980 -->
<g id="edge9" class="edge"><title>state_980&#45;&gt;state_980</title>
<path fill="none" stroke="black" d="M2186.24,-622.12C2196.82,-616.994 2203.89,-606.621 2203.89,-591 2203.89,-580.016 2200.39,-571.627 2194.64,-565.832"/>
<polygon fill="black" stroke="black" points="2196.42,-562.805 2186.24,-559.88 2192.37,-568.517 2196.42,-562.805"/>
<text text-anchor="middle" x="2333.89" y="-594.8" font-family="Times New Roman,serif" font-size="14.00">click(&quot;AMD (Armenian dram) index=4&quot;): 3281</text>
<text text-anchor="middle" x="2333.89" y="-579.8" font-family="Times New Roman,serif" font-size="14.00">click(&quot;確定 index=2&quot;): 3288</text>
</g>
<!-- state_982 -->
<g id="node7" class="node"><title>state_982</title>
<g id="a_node7"><a xlink:href="../States/982.png" xlink:title="&lt;TABLE&gt;">
<polygon fill="none" stroke="black" points="2613.89,-737 2481.89,-737 2481.89,-445 2613.89,-445 2613.89,-737"/>
<text text-anchor="start" x="2520.89" y="-724.8" font-family="Times New Roman,serif" font-size="14.00">state_982</text>
<text text-anchor="start" x="2515.39" y="-709.8" font-family="Times New Roman,serif" font-size="14.00">incoming: 5</text>
<text text-anchor="start" x="2516.39" y="-694.8" font-family="Times New Roman,serif" font-size="14.00">outgoing: 5</text>
<text text-anchor="start" x="2527.89" y="-679.8" font-family="Times New Roman,serif" font-size="14.00">loop: 0</text>
<image xlink:href="../States/982.png" width="130px" height="230px" preserveAspectRatio="xMinYMin meet" x="2482.89" y="-676"/>
<polygon fill="none" stroke="black" points="2481.89,-445 2481.89,-737 2613.89,-737 2613.89,-445 2481.89,-445"/>
</a>
</g>
</g>
<!-- state_984 -->
<g id="node8" class="node"><title>state_984</title>
<g id="a_node8"><a xlink:href="../States/984.png" xlink:title="&lt;TABLE&gt;">
<polygon fill="none" stroke="black" points="2763.89,-737 2631.89,-737 2631.89,-445 2763.89,-445 2763.89,-737"/>
<text text-anchor="start" x="2670.89" y="-724.8" font-family="Times New Roman,serif" font-size="14.00">state_984</text>
<text text-anchor="start" x="2665.39" y="-709.8" font-family="Times New Roman,serif" font-size="14.00">incoming: 5</text>
<text text-anchor="start" x="2666.39" y="-694.8" font-family="Times New Roman,serif" font-size="14.00">outgoing: 5</text>
<text text-anchor="start" x="2677.89" y="-679.8" font-family="Times New Roman,serif" font-size="14.00">loop: 0</text>
<image xlink:href="../States/984.png" width="130px" height="230px" preserveAspectRatio="xMinYMin meet" x="2632.89" y="-676"/>
<polygon fill="none" stroke="black" points="2631.89,-445 2631.89,-737 2763.89,-737 2763.89,-445 2631.89,-445"/>
</a>
</g>
</g>
<!-- state_986 -->
<g id="node9" class="node"><title>state_986</title>
<g id="a_node9"><a xlink:href="../States/986.png" xlink:title="&lt;TABLE&gt;">
<polygon fill="none" stroke="black" points="2913.89,-737 2781.89,-737 2781.89,-445 2913.89,-445 2913.89,-737"/>
<text text-anchor="start" x="2820.89" y="-724.8" font-family="Times New Roman,serif" font-size="14.00">state_986</text>
<text text-anchor="start" x="2815.39" y="-709.8" font-family="Times New Roman,serif" font-size="14.00">incoming: 5</text>
<text text-anchor="start" x="2816.39" y="-694.8" font-family="Times New Roman,serif" font-size="14.00">outgoing: 5</text>
<text text-anchor="start" x="2827.89" y="-679.8" font-family="Times New Roman,serif" font-size="14.00">loop: 0</text>
<image xlink:href="../States/986.png" width="130px" height="230px" preserveAspectRatio="xMinYMin meet" x="2782.89" y="-676"/>
<polygon fill="none" stroke="black" points="2781.89,-445 2781.89,-737 2913.89,-737 2913.89,-445 2781.89,-445"/>
</a>
</g>
</g>
<!-- activityAccountActivity -->
<g id="node10" class="node"><title>activityAccountActivity</title>
<ellipse fill="none" stroke="teal" cx="591.888" cy="-591" rx="96.3833" ry="18"/>
<text text-anchor="middle" x="591.888" y="-587.3" font-family="Times New Roman,serif" font-size="14.00" fill="teal">activityAccountActivity</text>
</g>
<!-- activityAccountActivity&#45;&gt;state_972 -->
<g id="edge1" class="edge"><title>activityAccountActivity&#45;&gt;state_972</title>
<path fill="none" stroke="teal" d="M537.494,-576.147C447.934,-550.404 284.137,-489.286 334.888,-397 373.132,-327.456 454.981,-283.404 516.095,-258.872"/>
<polygon fill="teal" stroke="teal" points="517.682,-262.009 525.715,-255.101 515.127,-255.492 517.682,-262.009"/>
<text text-anchor="middle" x="409.388" y="-400.8" font-family="Times New Roman,serif" font-size="14.00" fill="teal"> &#160;&#160;click(&quot;index=2&quot;): 1061 &#160;&#160;</text>
</g>
<!-- activityAccountActivity&#45;&gt;state_972 -->
<g id="edge10" class="edge"><title>activityAccountActivity&#45;&gt;state_972</title>
<path fill="none" stroke="teal" d="M575.923,-573.157C546.921,-540.476 490.068,-465.631 506.888,-397 510.471,-382.379 515.62,-367.612 521.635,-353.25"/>
<polygon fill="teal" stroke="teal" points="524.933,-354.442 525.705,-343.876 518.512,-351.654 524.933,-354.442"/>
<text text-anchor="middle" x="581.388" y="-400.8" font-family="Times New Roman,serif" font-size="14.00" fill="teal"> &#160;&#160;click(&quot;index=2&quot;): 1812 &#160;&#160;</text>
</g>
<!-- activityAccountActivity&#45;&gt;state_972 -->
<g id="edge11" class="edge"><title>activityAccountActivity&#45;&gt;state_972</title>
<path fill="none" stroke="teal" d="M603.741,-573.107C625.527,-540.037 668.592,-464.116 655.888,-397 655.406,-394.452 654.884,-391.892 654.327,-389.325"/>
<polygon fill="teal" stroke="teal" points="657.69,-388.335 652.008,-379.393 650.874,-389.927 657.69,-388.335"/>
<text text-anchor="middle" x="731.388" y="-400.8" font-family="Times New Roman,serif" font-size="14.00" fill="teal"> &#160;&#160;click(&quot;index=2&quot;): 1959 &#160;&#160;</text>
</g>
<!-- activityAccountActivity&#45;&gt;state_972 -->
<g id="edge12" class="edge"><title>activityAccountActivity&#45;&gt;state_972</title>
<path fill="none" stroke="teal" d="M597.761,-572.81C610.204,-539.219 642.622,-465.09 696.888,-430 739.593,-402.386 776.877,-450.685 809.888,-412 863.79,-348.833 750.047,-291.087 667.492,-259.403"/>
<polygon fill="teal" stroke="teal" points="668.689,-256.114 658.097,-255.857 666.217,-262.663 668.689,-256.114"/>
<text text-anchor="middle" x="891.388" y="-400.8" font-family="Times New Roman,serif" font-size="14.00" fill="teal"> &#160;&#160;click(&quot;index=2&quot;): 3279 &#160;&#160;</text>
</g>
<!-- activityMainActivity -->
<g id="node11" class="node"><title>activityMainActivity</title>
<ellipse fill="none" stroke="teal" cx="133.888" cy="-591" rx="83.3857" ry="18"/>
<text text-anchor="middle" x="133.888" y="-587.3" font-family="Times New Roman,serif" font-size="14.00" fill="teal">activityMainActivity</text>
</g>
<!-- activityMainActivity&#45;&gt;state_971 -->
<g id="edge2" class="edge"><title>activityMainActivity&#45;&gt;state_971</title>
<path fill="none" stroke="teal" d="M133.888,-572.829C133.888,-539.268 133.888,-461.918 133.888,-389.585"/>
<polygon fill="teal" stroke="teal" points="137.388,-389.417 133.888,-379.417 130.388,-389.417 137.388,-389.417"/>
<text text-anchor="middle" x="222.388" y="-400.8" font-family="Times New Roman,serif" font-size="14.00" fill="teal"> &#160;&#160;click(&quot;index=0&quot;): 954, 3077 &#160;&#160;</text>
</g>
</g>
</svg>
