<?xml version="1.0" encoding="UTF-8" standalone="no"?>
<!DOCTYPE svg PUBLIC "-//W3C//DTD SVG 1.1//EN"
 "http://www.w3.org/Graphics/SVG/1.1/DTD/svg11.dtd">
<!-- Generated by graphviz version 2.38.0 (20140413.2041)
 -->
<!-- Title: activityAttributeListActivity Pages: 1 -->
<svg width="1267pt" height="474pt"
 viewBox="0.00 0.00 1266.72 474.00" xmlns="http://www.w3.org/2000/svg" xmlns:xlink="http://www.w3.org/1999/xlink">
<g id="graph0" class="graph" transform="scale(1 1) rotate(0) translate(4 470)">
<title>activityAttributeListActivity</title>
<polygon fill="white" stroke="none" points="-4,4 -4,-470 1262.72,-470 1262.72,4 -4,4"/>
<!-- state_3254 -->
<g id="node1" class="node"><title>state_3254</title>
<g id="a_node1"><a xlink:href="../States/3254.png" xlink:title="&lt;TABLE&gt;">
<polygon fill="none" stroke="black" points="685.723,-379 553.723,-379 553.723,-87 685.723,-87 685.723,-379"/>
<text text-anchor="start" x="589.223" y="-366.8" font-family="Times New Roman,serif" font-size="14.00">state_3254</text>
<text text-anchor="start" x="587.223" y="-351.8" font-family="Times New Roman,serif" font-size="14.00">incoming: 6</text>
<text text-anchor="start" x="588.223" y="-336.8" font-family="Times New Roman,serif" font-size="14.00">outgoing: 1</text>
<text text-anchor="start" x="599.723" y="-321.8" font-family="Times New Roman,serif" font-size="14.00">loop: 0</text>
<image xlink:href="../States/3254.png" width="130px" height="230px" preserveAspectRatio="xMinYMin meet" x="554.723" y="-318"/>
<polygon fill="none" stroke="black" points="553.723,-87 553.723,-379 685.723,-379 685.723,-87 553.723,-87"/>
</a>
</g>
</g>
<!-- activityAttributeActivity -->
<g id="node3" class="node"><title>activityAttributeActivity</title>
<ellipse fill="none" stroke="teal" cx="619.723" cy="-18" rx="96.6831" ry="18"/>
<text text-anchor="middle" x="619.723" y="-14.3" font-family="Times New Roman,serif" font-size="14.00" fill="teal">activityAttributeActivity</text>
</g>
<!-- state_3254&#45;&gt;activityAttributeActivity -->
<g id="edge2" class="edge"><title>state_3254&#45;&gt;activityAttributeActivity</title>
<path fill="none" stroke="teal" d="M553.561,-224.176C380.168,-202.397 -68.8109,-137.169 9.72251,-54 26.7286,-35.9902 343.737,-25.6274 513.855,-21.3413"/>
<polygon fill="teal" stroke="teal" points="514.183,-24.8343 524.093,-21.0863 514.009,-17.8365 514.183,-24.8343"/>
<text text-anchor="middle" x="153.223" y="-57.8" font-family="Times New Roman,serif" font-size="14.00" fill="teal"> &#160;&#160;click(&quot;index=0&quot;): 3084, 3091, 3112, 3119, 3139 &#160;&#160;</text>
</g>
<!-- activityCategoryListActivity2 -->
<g id="node2" class="node"><title>activityCategoryListActivity2</title>
<ellipse fill="none" stroke="teal" cx="619.723" cy="-448" rx="116.18" ry="18"/>
<text text-anchor="middle" x="619.723" y="-444.3" font-family="Times New Roman,serif" font-size="14.00" fill="teal">activityCategoryListActivity2</text>
</g>
<!-- activityCategoryListActivity2&#45;&gt;state_3254 -->
<g id="edge1" class="edge"><title>activityCategoryListActivity2&#45;&gt;state_3254</title>
<path fill="none" stroke="teal" d="M619.723,-429.929C619.723,-419.71 619.723,-405.615 619.723,-389.628"/>
<polygon fill="teal" stroke="teal" points="623.223,-389.447 619.723,-379.447 616.223,-389.447 623.223,-389.447"/>
<text text-anchor="middle" x="694.223" y="-400.8" font-family="Times New Roman,serif" font-size="14.00" fill="teal"> &#160;&#160;click(&quot;index=1&quot;): 3083 &#160;&#160;</text>
</g>
<!-- activityAttributeActivity&#45;&gt;state_3254 -->
<g id="edge3" class="edge"><title>activityAttributeActivity&#45;&gt;state_3254</title>
<path fill="none" stroke="teal" d="M527.546,-23.6586C444.542,-28.8226 333.494,-38.5287 319.723,-54 245.752,-137.102 432.429,-192.597 543.763,-217.313"/>
<polygon fill="teal" stroke="teal" points="543.112,-220.754 553.629,-219.467 544.605,-213.915 543.112,-220.754"/>
<text text-anchor="middle" x="408.723" y="-57.8" font-family="Times New Roman,serif" font-size="14.00" fill="teal"> &#160;&#160;click(&quot;取消 index=1&quot;): 3090 &#160;&#160;</text>
</g>
<!-- activityAttributeActivity&#45;&gt;state_3254 -->
<g id="edge4" class="edge"><title>activityAttributeActivity&#45;&gt;state_3254</title>
<path fill="none" stroke="teal" d="M551.303,-30.7508C539.293,-35.9296 528.248,-43.3575 520.723,-54 495.668,-89.4312 517.384,-131.797 546.788,-166.306"/>
<polygon fill="teal" stroke="teal" points="544.332,-168.814 553.574,-173.995 549.581,-164.182 544.332,-168.814"/>
<text text-anchor="middle" x="609.723" y="-57.8" font-family="Times New Roman,serif" font-size="14.00" fill="teal"> &#160;&#160;click(&quot;取消 index=1&quot;): 3111 &#160;&#160;</text>
</g>
<!-- activityAttributeActivity&#45;&gt;state_3254 -->
<g id="edge5" class="edge"><title>activityAttributeActivity&#45;&gt;state_3254</title>
<path fill="none" stroke="teal" d="M673.959,-33.0143C683.76,-38.0314 692.75,-44.8214 698.723,-54 702.359,-59.5878 700.214,-62.5023 698.723,-69 696.298,-79.5598 693.096,-90.2297 689.368,-100.789"/>
<polygon fill="teal" stroke="teal" points="685.982,-99.8548 685.805,-110.448 692.55,-102.278 685.982,-99.8548"/>
<text text-anchor="middle" x="789.723" y="-57.8" font-family="Times New Roman,serif" font-size="14.00" fill="teal"> &#160;&#160;click(&quot;取消 index=1&quot;): 3118 &#160;&#160;</text>
</g>
<!-- activityAttributeActivity&#45;&gt;state_3254 -->
<g id="edge6" class="edge"><title>activityAttributeActivity&#45;&gt;state_3254</title>
<path fill="none" stroke="teal" d="M716.569,-18.9914C782.337,-21.2904 861.138,-29.3532 882.723,-54 947.492,-127.96 794.437,-185.247 695.578,-213.205"/>
<polygon fill="teal" stroke="teal" points="694.588,-209.848 685.892,-215.9 696.464,-216.591 694.588,-209.848"/>
<text text-anchor="middle" x="980.723" y="-57.8" font-family="Times New Roman,serif" font-size="14.00" fill="teal"> &#160;&#160;click(&quot;取消 index=1&quot;): 3138 &#160;&#160;</text>
</g>
<!-- activityAttributeActivity&#45;&gt;state_3254 -->
<g id="edge7" class="edge"><title>activityAttributeActivity&#45;&gt;state_3254</title>
<path fill="none" stroke="teal" d="M716.22,-19.6127C842.317,-21.4361 1049.97,-28.3497 1073.72,-54 1187.76,-177.171 852.824,-216.324 695.967,-227.718"/>
<polygon fill="teal" stroke="teal" points="695.627,-224.233 685.899,-228.429 696.12,-231.216 695.627,-224.233"/>
<text text-anchor="middle" x="1169.72" y="-57.8" font-family="Times New Roman,serif" font-size="14.00" fill="teal"> &#160;&#160;click(&quot;取消 index=1&quot;): 3154 &#160;&#160;</text>
</g>
</g>
</svg>
