<?xml version="1.0" encoding="UTF-8" standalone="no"?>
<!DOCTYPE svg PUBLIC "-//W3C//DTD SVG 1.1//EN"
 "http://www.w3.org/Graphics/SVG/1.1/DTD/svg11.dtd">
<!-- Generated by graphviz version 2.38.0 (20140413.2041)
 -->
<!-- Title: activityBudgetListTotalsDetailsActivity Pages: 1 -->
<svg width="400pt" height="387pt"
 viewBox="0.00 0.00 400.21 387.00" xmlns="http://www.w3.org/2000/svg" xmlns:xlink="http://www.w3.org/1999/xlink">
<g id="graph0" class="graph" transform="scale(1 1) rotate(0) translate(4 383)">
<title>activityBudgetListTotalsDetailsActivity</title>
<polygon fill="white" stroke="none" points="-4,4 -4,-383 396.211,-383 396.211,4 -4,4"/>
<!-- state_767 -->
<g id="node1" class="node"><title>state_767</title>
<g id="a_node1"><a xlink:href="../States/767.png" xlink:title="&lt;TABLE&gt;">
<polygon fill="none" stroke="black" points="177.211,-379 45.2108,-379 45.2108,-87 177.211,-87 177.211,-379"/>
<text text-anchor="start" x="84.2108" y="-366.8" font-family="Times New Roman,serif" font-size="14.00">state_767</text>
<text text-anchor="start" x="78.7108" y="-351.8" font-family="Times New Roman,serif" font-size="14.00">incoming: 1</text>
<text text-anchor="start" x="79.7108" y="-336.8" font-family="Times New Roman,serif" font-size="14.00">outgoing: 1</text>
<text text-anchor="start" x="91.2108" y="-321.8" font-family="Times New Roman,serif" font-size="14.00">loop: 1</text>
<image xlink:href="../States/767.png" width="130px" height="230px" preserveAspectRatio="xMinYMin meet" x="46.2108" y="-318"/>
<polygon fill="none" stroke="black" points="45.2108,-87 45.2108,-379 177.211,-379 177.211,-87 45.2108,-87"/>
</a>
</g>
</g>
<!-- state_767&#45;&gt;state_767 -->
<g id="edge3" class="edge"><title>state_767&#45;&gt;state_767</title>
<path fill="none" stroke="black" d="M177.412,-262.354C187.978,-258.058 195.211,-248.273 195.211,-233 195.211,-222.5 191.792,-214.593 186.222,-209.282"/>
<polygon fill="black" stroke="black" points="187.722,-206.086 177.412,-203.646 183.95,-211.983 187.722,-206.086"/>
<text text-anchor="middle" x="255.211" y="-229.3" font-family="Times New Roman,serif" font-size="14.00">click(&quot;index=1&quot;): 762</text>
</g>
<!-- activityMainActivity -->
<g id="node2" class="node"><title>activityMainActivity</title>
<ellipse fill="none" stroke="teal" cx="111.211" cy="-18" rx="83.3857" ry="18"/>
<text text-anchor="middle" x="111.211" y="-14.3" font-family="Times New Roman,serif" font-size="14.00" fill="teal">activityMainActivity</text>
</g>
<!-- state_767&#45;&gt;activityMainActivity -->
<g id="edge2" class="edge"><title>state_767&#45;&gt;activityMainActivity</title>
<path fill="none" stroke="teal" d="M44.8723,-174.435C11.7789,-138.641 -15.9652,-92.3042 11.2108,-54 17.6077,-44.9838 26.5127,-38.2719 36.3956,-33.2794"/>
<polygon fill="teal" stroke="teal" points="37.9744,-36.4083 45.7028,-29.1611 35.1418,-30.007 37.9744,-36.4083"/>
<text text-anchor="middle" x="97.2108" y="-57.8" font-family="Times New Roman,serif" font-size="14.00" fill="teal"> &#160;&#160;click(&quot;確定 index=0&quot;): 763 &#160;&#160;</text>
</g>
<!-- activityMainActivity&#45;&gt;state_767 -->
<g id="edge1" class="edge"><title>activityMainActivity&#45;&gt;state_767</title>
<path fill="none" stroke="teal" d="M161.481,-32.3934C171.658,-37.482 181.1,-44.4584 187.211,-54 190.806,-59.6141 188.654,-62.4913 187.211,-69 185.39,-77.2163 183.109,-85.5093 180.487,-93.7718"/>
<polygon fill="teal" stroke="teal" points="177.102,-92.8572 177.258,-103.451 183.743,-95.0722 177.102,-92.8572"/>
<text text-anchor="middle" x="290.211" y="-57.8" font-family="Times New Roman,serif" font-size="14.00" fill="teal"> &#160;&#160;click(&quot;0.00 | 0.00 index=3&quot;): 761 &#160;&#160;</text>
</g>
</g>
</svg>
