<?xml version="1.0" encoding="UTF-8" standalone="no"?>
<!DOCTYPE svg PUBLIC "-//W3C//DTD SVG 1.1//EN"
 "http://www.w3.org/Graphics/SVG/1.1/DTD/svg11.dtd">
<!-- Generated by graphviz version 2.38.0 (20140413.2041)
 -->
<!-- Title: activityNoteFilterActivity Pages: 1 -->
<svg width="376pt" height="387pt"
 viewBox="0.00 0.00 376.32 387.00" xmlns="http://www.w3.org/2000/svg" xmlns:xlink="http://www.w3.org/1999/xlink">
<g id="graph0" class="graph" transform="scale(1 1) rotate(0) translate(4 383)">
<title>activityNoteFilterActivity</title>
<polygon fill="white" stroke="none" points="-4,4 -4,-383 372.316,-383 372.316,4 -4,4"/>
<!-- state_2173 -->
<g id="node1" class="node"><title>state_2173</title>
<g id="a_node1"><a xlink:href="../States/2173.png" xlink:title="&lt;TABLE&gt;">
<polygon fill="none" stroke="black" points="187.316,-379 55.3162,-379 55.3162,-87 187.316,-87 187.316,-379"/>
<text text-anchor="start" x="90.8162" y="-366.8" font-family="Times New Roman,serif" font-size="14.00">state_2173</text>
<text text-anchor="start" x="88.8162" y="-351.8" font-family="Times New Roman,serif" font-size="14.00">incoming: 1</text>
<text text-anchor="start" x="89.8162" y="-336.8" font-family="Times New Roman,serif" font-size="14.00">outgoing: 1</text>
<text text-anchor="start" x="101.316" y="-321.8" font-family="Times New Roman,serif" font-size="14.00">loop: 1</text>
<image xlink:href="../States/2173.png" width="130px" height="230px" preserveAspectRatio="xMinYMin meet" x="56.3162" y="-318"/>
<polygon fill="none" stroke="black" points="55.3162,-87 55.3162,-379 187.316,-379 187.316,-87 55.3162,-87"/>
</a>
</g>
</g>
<!-- state_2173&#45;&gt;state_2173 -->
<g id="edge3" class="edge"><title>state_2173&#45;&gt;state_2173</title>
<path fill="none" stroke="black" d="M187.518,-262.354C198.084,-258.058 205.316,-248.273 205.316,-233 205.316,-222.5 201.898,-214.593 196.328,-209.282"/>
<polygon fill="black" stroke="black" points="197.828,-206.086 187.518,-203.646 194.056,-211.983 197.828,-206.086"/>
<text text-anchor="middle" x="268.816" y="-229.3" font-family="Times New Roman,serif" font-size="14.00">click(&quot;index=1&quot;): 2079</text>
</g>
<!-- activityBlotterFilterActivity -->
<g id="node2" class="node"><title>activityBlotterFilterActivity</title>
<ellipse fill="none" stroke="teal" cx="121.316" cy="-18" rx="107.781" ry="18"/>
<text text-anchor="middle" x="121.316" y="-14.3" font-family="Times New Roman,serif" font-size="14.00" fill="teal">activityBlotterFilterActivity</text>
</g>
<!-- state_2173&#45;&gt;activityBlotterFilterActivity -->
<g id="edge2" class="edge"><title>state_2173&#45;&gt;activityBlotterFilterActivity</title>
<path fill="none" stroke="teal" d="M55.1243,-180.377C16.7549,-144.087 -18.5959,-94.9073 11.3162,-54 17.1545,-46.0157 24.8303,-39.8091 33.418,-34.9915"/>
<polygon fill="teal" stroke="teal" points="35.2228,-38.0047 42.6587,-30.4577 32.1394,-31.7204 35.2228,-38.0047"/>
<text text-anchor="middle" x="106.816" y="-57.8" font-family="Times New Roman,serif" font-size="14.00" fill="teal"> &#160;&#160;click(&quot;不過濾 index=2&quot;): 2080 &#160;&#160;</text>
</g>
<!-- activityBlotterFilterActivity&#45;&gt;state_2173 -->
<g id="edge1" class="edge"><title>activityBlotterFilterActivity&#45;&gt;state_2173</title>
<path fill="none" stroke="teal" d="M181.312,-33.0966C191.19,-38.0905 200.189,-44.8505 206.316,-54 227.22,-85.2134 214.601,-122.36 193.351,-154.624"/>
<polygon fill="teal" stroke="teal" points="190.267,-152.931 187.465,-163.149 196.027,-156.909 190.267,-152.931"/>
<text text-anchor="middle" x="290.316" y="-57.8" font-family="Times New Roman,serif" font-size="14.00" fill="teal"> &#160;&#160;click(&quot;index=14&quot;): 2078 &#160;&#160;</text>
</g>
</g>
</svg>
