<?xml version="1.0" encoding="UTF-8" standalone="no"?>
<!DOCTYPE svg PUBLIC "-//W3C//DTD SVG 1.1//EN"
 "http://www.w3.org/Graphics/SVG/1.1/DTD/svg11.dtd">
<!-- Generated by graphviz version 2.38.0 (20140413.2041)
 -->
<!-- Title: activityCategorySelectorActivity Pages: 1 -->
<svg width="2528pt" height="474pt"
 viewBox="0.00 0.00 2527.54 474.00" xmlns="http://www.w3.org/2000/svg" xmlns:xlink="http://www.w3.org/1999/xlink">
<g id="graph0" class="graph" transform="scale(1 1) rotate(0) translate(4 470)">
<title>activityCategorySelectorActivity</title>
<polygon fill="white" stroke="none" points="-4,4 -4,-470 2523.54,-470 2523.54,4 -4,4"/>
<!-- state_825 -->
<g id="node1" class="node"><title>state_825</title>
<g id="a_node1"><a xlink:href="../States/825.png" xlink:title="&lt;TABLE&gt;">
<polygon fill="none" stroke="black" points="1282.54,-379 1150.54,-379 1150.54,-87 1282.54,-87 1282.54,-379"/>
<text text-anchor="start" x="1189.54" y="-366.8" font-family="Times New Roman,serif" font-size="14.00">state_825</text>
<text text-anchor="start" x="1184.04" y="-351.8" font-family="Times New Roman,serif" font-size="14.00">incoming: 8</text>
<text text-anchor="start" x="1185.04" y="-336.8" font-family="Times New Roman,serif" font-size="14.00">outgoing: 7</text>
<text text-anchor="start" x="1196.54" y="-321.8" font-family="Times New Roman,serif" font-size="14.00">loop: 1</text>
<image xlink:href="../States/825.png" width="130px" height="230px" preserveAspectRatio="xMinYMin meet" x="1151.54" y="-318"/>
<polygon fill="none" stroke="black" points="1150.54,-87 1150.54,-379 1282.54,-379 1282.54,-87 1150.54,-87"/>
</a>
</g>
</g>
<!-- state_825&#45;&gt;state_825 -->
<g id="edge10" class="edge"><title>state_825&#45;&gt;state_825</title>
<path fill="none" stroke="black" d="M1282.74,-262.354C1293.31,-258.058 1300.54,-248.273 1300.54,-233 1300.54,-222.5 1297.12,-214.593 1291.55,-209.282"/>
<polygon fill="black" stroke="black" points="1293.05,-206.086 1282.74,-203.646 1289.28,-211.983 1293.05,-206.086"/>
<text text-anchor="middle" x="1375.04" y="-229.3" font-family="Times New Roman,serif" font-size="14.00">click(&quot;返回 index=0&quot;): 816</text>
</g>
<!-- activityReportFilterActivity -->
<g id="node3" class="node"><title>activityReportFilterActivity</title>
<ellipse fill="none" stroke="teal" cx="108.54" cy="-18" rx="108.581" ry="18"/>
<text text-anchor="middle" x="108.54" y="-14.3" font-family="Times New Roman,serif" font-size="14.00" fill="teal">activityReportFilterActivity</text>
</g>
<!-- state_825&#45;&gt;activityReportFilterActivity -->
<g id="edge3" class="edge"><title>state_825&#45;&gt;activityReportFilterActivity</title>
<path fill="none" stroke="teal" d="M1150.14,-228.049C908.519,-213.006 86.3563,-155.752 10.5404,-69 -2.3792,-54.2168 10.8755,-43.2442 31.3684,-35.4054"/>
<polygon fill="teal" stroke="teal" points="32.5653,-38.695 40.8803,-32.1291 30.2856,-32.0766 32.5653,-38.695"/>
<text text-anchor="middle" x="96.5404" y="-57.8" font-family="Times New Roman,serif" font-size="14.00" fill="teal"> &#160;&#160;click(&quot;選取 index=1&quot;): 817 &#160;&#160;</text>
</g>
<!-- activityCategoryActivity -->
<g id="node4" class="node"><title>activityCategoryActivity</title>
<ellipse fill="none" stroke="teal" cx="671.54" cy="-18" rx="98.2828" ry="18"/>
<text text-anchor="middle" x="671.54" y="-14.3" font-family="Times New Roman,serif" font-size="14.00" fill="teal">activityCategoryActivity</text>
</g>
<!-- state_825&#45;&gt;activityCategoryActivity -->
<g id="edge4" class="edge"><title>state_825&#45;&gt;activityCategoryActivity</title>
<path fill="none" stroke="teal" d="M1150.3,-229.653C968.855,-221.697 470.699,-189.114 371.54,-69 344.756,-36.5549 467.57,-25.1286 564.112,-21.1254"/>
<polygon fill="teal" stroke="teal" points="564.4,-24.6169 574.255,-20.7277 564.126,-17.6223 564.4,-24.6169"/>
<text text-anchor="middle" x="460.54" y="-57.8" font-family="Times New Roman,serif" font-size="14.00" fill="teal"> &#160;&#160;click(&quot;選取 index=1&quot;): 1464 &#160;&#160;</text>
</g>
<!-- state_825&#45;&gt;activityCategoryActivity -->
<g id="edge5" class="edge"><title>state_825&#45;&gt;activityCategoryActivity</title>
<path fill="none" stroke="teal" d="M1150.27,-225.358C1000.58,-208.845 643.782,-160.52 572.54,-69 560.331,-53.3157 574.064,-42.1505 594.804,-34.4101"/>
<polygon fill="teal" stroke="teal" points="596.037,-37.6881 604.41,-31.1953 593.816,-31.05 596.037,-37.6881"/>
<text text-anchor="middle" x="661.54" y="-57.8" font-family="Times New Roman,serif" font-size="14.00" fill="teal"> &#160;&#160;click(&quot;選取 index=1&quot;): 1467 &#160;&#160;</text>
</g>
<!-- activitySmsTemplateActivity -->
<g id="node5" class="node"><title>activitySmsTemplateActivity</title>
<ellipse fill="none" stroke="teal" cx="1819.54" cy="-18" rx="114.28" ry="18"/>
<text text-anchor="middle" x="1819.54" y="-14.3" font-family="Times New Roman,serif" font-size="14.00" fill="teal">activitySmsTemplateActivity</text>
</g>
<!-- state_825&#45;&gt;activitySmsTemplateActivity -->
<g id="edge6" class="edge"><title>state_825&#45;&gt;activitySmsTemplateActivity</title>
<path fill="none" stroke="teal" d="M1150.22,-174.712C1114.63,-137.254 1084.27,-88.9698 1117.54,-54 1137.12,-33.4163 1499.83,-24.2571 1696,-20.7944"/>
<polygon fill="teal" stroke="teal" points="1696.14,-24.2926 1706.07,-20.6189 1696.02,-17.2936 1696.14,-24.2926"/>
<text text-anchor="middle" x="1206.54" y="-57.8" font-family="Times New Roman,serif" font-size="14.00" fill="teal"> &#160;&#160;click(&quot;選取 index=1&quot;): 1478 &#160;&#160;</text>
</g>
<!-- state_825&#45;&gt;activitySmsTemplateActivity -->
<g id="edge7" class="edge"><title>state_825&#45;&gt;activitySmsTemplateActivity</title>
<path fill="none" stroke="teal" d="M1281.82,-86.7476C1292.47,-74.0274 1304.66,-62.7042 1318.54,-54 1349.8,-34.3985 1558.74,-25.4166 1696.74,-21.5804"/>
<polygon fill="teal" stroke="teal" points="1697.06,-25.073 1706.96,-21.302 1696.87,-18.0756 1697.06,-25.073"/>
<text text-anchor="middle" x="1407.54" y="-57.8" font-family="Times New Roman,serif" font-size="14.00" fill="teal"> &#160;&#160;click(&quot;選取 index=1&quot;): 1496 &#160;&#160;</text>
</g>
<!-- state_825&#45;&gt;activitySmsTemplateActivity -->
<g id="edge8" class="edge"><title>state_825&#45;&gt;activitySmsTemplateActivity</title>
<path fill="none" stroke="teal" d="M1282.73,-194.728C1339.82,-162.278 1424.24,-113.578 1496.54,-69 1506.93,-62.5947 1508.06,-58.1506 1519.54,-54 1553.2,-41.8254 1636.29,-32.6814 1706.51,-26.7984"/>
<polygon fill="teal" stroke="teal" points="1707.09,-30.2626 1716.77,-25.9541 1706.52,-23.2862 1707.09,-30.2626"/>
<text text-anchor="middle" x="1608.54" y="-57.8" font-family="Times New Roman,serif" font-size="14.00" fill="teal"> &#160;&#160;click(&quot;選取 index=1&quot;): 1518 &#160;&#160;</text>
</g>
<!-- state_825&#45;&gt;activitySmsTemplateActivity -->
<g id="edge9" class="edge"><title>state_825&#45;&gt;activitySmsTemplateActivity</title>
<path fill="none" stroke="teal" d="M1282.78,-215.247C1377.48,-190.041 1555.78,-137.882 1697.54,-69 1708.52,-63.6662 1709.6,-59.4055 1720.54,-54 1732.9,-47.8923 1746.6,-42.3384 1759.77,-37.5441"/>
<polygon fill="teal" stroke="teal" points="1760.98,-40.8286 1769.24,-34.1903 1758.64,-34.2303 1760.98,-40.8286"/>
<text text-anchor="middle" x="1809.54" y="-57.8" font-family="Times New Roman,serif" font-size="14.00" fill="teal"> &#160;&#160;click(&quot;選取 index=1&quot;): 1582 &#160;&#160;</text>
</g>
<!-- activityBlotterFilterActivity -->
<g id="node2" class="node"><title>activityBlotterFilterActivity</title>
<ellipse fill="none" stroke="teal" cx="1216.54" cy="-448" rx="107.781" ry="18"/>
<text text-anchor="middle" x="1216.54" y="-444.3" font-family="Times New Roman,serif" font-size="14.00" fill="teal">activityBlotterFilterActivity</text>
</g>
<!-- activityBlotterFilterActivity&#45;&gt;state_825 -->
<g id="edge1" class="edge"><title>activityBlotterFilterActivity&#45;&gt;state_825</title>
<path fill="none" stroke="teal" d="M1216.54,-429.929C1216.54,-419.71 1216.54,-405.615 1216.54,-389.628"/>
<polygon fill="teal" stroke="teal" points="1220.04,-389.447 1216.54,-379.447 1213.04,-389.447 1220.04,-389.447"/>
<text text-anchor="middle" x="1291.04" y="-400.8" font-family="Times New Roman,serif" font-size="14.00" fill="teal"> &#160;&#160;click(&quot;index=6&quot;): 2018 &#160;&#160;</text>
</g>
<!-- activityReportFilterActivity&#45;&gt;state_825 -->
<g id="edge2" class="edge"><title>activityReportFilterActivity&#45;&gt;state_825</title>
<path fill="none" stroke="teal" d="M142.721,-35.1231C170.288,-47.9129 206.947,-64.3818 222.54,-69 556.312,-167.851 972.012,-211.527 1140.42,-226.066"/>
<polygon fill="teal" stroke="teal" points="1140.17,-229.557 1150.43,-226.921 1140.77,-222.583 1140.17,-229.557"/>
<text text-anchor="middle" x="293.54" y="-57.8" font-family="Times New Roman,serif" font-size="14.00" fill="teal"> &#160;&#160;click(&quot;index=6&quot;): 815 &#160;&#160;</text>
</g>
<!-- activityCategoryActivity&#45;&gt;state_825 -->
<g id="edge11" class="edge"><title>activityCategoryActivity&#45;&gt;state_825</title>
<path fill="none" stroke="teal" d="M710.311,-34.6972C723.314,-40.3495 737.753,-47.0561 750.54,-54 761.265,-59.8239 762.633,-63.5249 773.54,-69 897.382,-131.167 1050.89,-182.322 1140.85,-209.891"/>
<polygon fill="teal" stroke="teal" points="1139.84,-213.242 1150.43,-212.81 1141.88,-206.546 1139.84,-213.242"/>
<text text-anchor="middle" x="848.04" y="-57.8" font-family="Times New Roman,serif" font-size="14.00" fill="teal"> &#160;&#160;click(&quot;index=0&quot;): 1463 &#160;&#160;</text>
</g>
<!-- activityCategoryActivity&#45;&gt;state_825 -->
<g id="edge12" class="edge"><title>activityCategoryActivity&#45;&gt;state_825</title>
<path fill="none" stroke="teal" d="M766.926,-22.4652C814.853,-26.6411 873.094,-35.4885 922.54,-54 933.97,-58.2789 935.199,-62.5205 945.54,-69 1011.21,-110.143 1086.84,-155.467 1141.49,-187.854"/>
<polygon fill="teal" stroke="teal" points="1140.03,-191.056 1150.42,-193.14 1143.6,-185.033 1140.03,-191.056"/>
<text text-anchor="middle" x="1020.04" y="-57.8" font-family="Times New Roman,serif" font-size="14.00" fill="teal"> &#160;&#160;click(&quot;index=0&quot;): 1466 &#160;&#160;</text>
</g>
<!-- activitySmsTemplateActivity&#45;&gt;state_825 -->
<g id="edge13" class="edge"><title>activitySmsTemplateActivity&#45;&gt;state_825</title>
<path fill="none" stroke="teal" d="M1874.26,-33.9229C1894.68,-42.267 1910.36,-54.0285 1898.54,-69 1823.68,-163.855 1454.82,-209.615 1292.94,-225.383"/>
<polygon fill="teal" stroke="teal" points="1292.2,-221.938 1282.58,-226.379 1292.87,-228.906 1292.2,-221.938"/>
<text text-anchor="middle" x="1977.04" y="-57.8" font-family="Times New Roman,serif" font-size="14.00" fill="teal"> &#160;&#160;click(&quot;index=0&quot;): 1477 &#160;&#160;</text>
</g>
<!-- activitySmsTemplateActivity&#45;&gt;state_825 -->
<g id="edge14" class="edge"><title>activitySmsTemplateActivity&#45;&gt;state_825</title>
<path fill="none" stroke="teal" d="M1931.3,-21.9305C1983.99,-25.9142 2038.94,-34.7507 2055.54,-54 2059.89,-59.048 2059.78,-63.856 2055.54,-69 1958.98,-186.131 1480.81,-220.153 1292.72,-229.092"/>
<polygon fill="teal" stroke="teal" points="1292.46,-225.6 1282.64,-229.56 1292.79,-232.592 1292.46,-225.6"/>
<text text-anchor="middle" x="2133.04" y="-57.8" font-family="Times New Roman,serif" font-size="14.00" fill="teal"> &#160;&#160;click(&quot;index=0&quot;): 1517 &#160;&#160;</text>
</g>
<!-- activitySmsTemplateActivity&#45;&gt;state_825 -->
<g id="edge15" class="edge"><title>activitySmsTemplateActivity&#45;&gt;state_825</title>
<path fill="none" stroke="teal" d="M1931.98,-21.4406C2041.08,-25.0025 2192.88,-33.5971 2211.54,-54 2216.04,-58.9192 2215.86,-63.9192 2211.54,-69 2093.14,-208.378 1505.13,-228.823 1293.01,-231.63"/>
<polygon fill="teal" stroke="teal" points="1292.85,-228.132 1282.89,-231.754 1292.93,-235.131 1292.85,-228.132"/>
<text text-anchor="middle" x="2289.04" y="-57.8" font-family="Times New Roman,serif" font-size="14.00" fill="teal"> &#160;&#160;click(&quot;index=0&quot;): 1495 &#160;&#160;</text>
</g>
<!-- activitySmsTemplateActivity&#45;&gt;state_825 -->
<g id="edge16" class="edge"><title>activitySmsTemplateActivity&#45;&gt;state_825</title>
<path fill="none" stroke="teal" d="M1934.04,-18.1516C2085.98,-18.246 2338.58,-23.1263 2367.54,-54 2372.1,-58.862 2371.91,-63.9663 2367.54,-69 2296.69,-150.592 1538.77,-209.75 1293,-226.902"/>
<polygon fill="teal" stroke="teal" points="1292.47,-223.431 1282.73,-227.616 1292.95,-230.414 1292.47,-223.431"/>
<text text-anchor="middle" x="2445.04" y="-57.8" font-family="Times New Roman,serif" font-size="14.00" fill="teal"> &#160;&#160;click(&quot;index=0&quot;): 1581 &#160;&#160;</text>
</g>
</g>
</svg>
