<?xml version="1.0" encoding="UTF-8" standalone="no"?>
<!DOCTYPE svg PUBLIC "-//W3C//DTD SVG 1.1//EN"
 "http://www.w3.org/Graphics/SVG/1.1/DTD/svg11.dtd">
<!-- Generated by graphviz version 2.38.0 (20140413.2041)
 -->
<!-- Title: activitySmsTemplateActivity Pages: 1 -->
<svg width="3303pt" height="817pt"
 viewBox="0.00 0.00 3302.96 817.00" xmlns="http://www.w3.org/2000/svg" xmlns:xlink="http://www.w3.org/1999/xlink">
<g id="graph0" class="graph" transform="scale(1 1) rotate(0) translate(4 813)">
<title>activitySmsTemplateActivity</title>
<polygon fill="white" stroke="none" points="-4,4 -4,-813 3298.96,-813 3298.96,4 -4,4"/>
<!-- state_1522 -->
<g id="node1" class="node"><title>state_1522</title>
<g id="a_node1"><a xlink:href="../States/1522.png" xlink:title="&lt;TABLE&gt;">
<polygon fill="none" stroke="black" points="939.956,-809 807.956,-809 807.956,-517 939.956,-517 939.956,-809"/>
<text text-anchor="start" x="843.456" y="-796.8" font-family="Times New Roman,serif" font-size="14.00">state_1522</text>
<text text-anchor="start" x="837.956" y="-781.8" font-family="Times New Roman,serif" font-size="14.00">incoming: 10</text>
<text text-anchor="start" x="842.456" y="-766.8" font-family="Times New Roman,serif" font-size="14.00">outgoing: 7</text>
<text text-anchor="start" x="853.956" y="-751.8" font-family="Times New Roman,serif" font-size="14.00">loop: 4</text>
<image xlink:href="../States/1522.png" width="130px" height="230px" preserveAspectRatio="xMinYMin meet" x="808.956" y="-748"/>
<polygon fill="none" stroke="black" points="807.956,-517 807.956,-809 939.956,-809 939.956,-517 807.956,-517"/>
</a>
</g>
</g>
<!-- state_1522&#45;&gt;state_1522 -->
<g id="edge10" class="edge"><title>state_1522&#45;&gt;state_1522</title>
<path fill="none" stroke="black" d="M940.158,-692.354C950.724,-688.058 957.956,-678.273 957.956,-663 957.956,-652.5 954.538,-644.593 948.968,-639.282"/>
<polygon fill="black" stroke="black" points="950.468,-636.086 940.158,-633.646 946.696,-641.983 950.468,-636.086"/>
<text text-anchor="middle" x="1093.96" y="-681.8" font-family="Times New Roman,serif" font-size="14.00">click(&quot;SMS sender number or... index=1&quot;): 1471</text>
<text text-anchor="middle" x="1093.96" y="-666.8" font-family="Times New Roman,serif" font-size="14.00">click(&quot;Specify template wit... index=3&quot;): 1475</text>
<text text-anchor="middle" x="1093.96" y="-651.8" font-family="Times New Roman,serif" font-size="14.00">click(&quot;Try with sms example... index=4&quot;): 1476</text>
<text text-anchor="middle" x="1093.96" y="-636.8" font-family="Times New Roman,serif" font-size="14.00">click(&quot;確定 index=0&quot;): 1509</text>
</g>
<!-- activityCategorySelectorActivity -->
<g id="node10" class="node"><title>activityCategorySelectorActivity</title>
<ellipse fill="none" stroke="teal" cx="1050.96" cy="-448" rx="128.077" ry="18"/>
<text text-anchor="middle" x="1050.96" y="-444.3" font-family="Times New Roman,serif" font-size="14.00" fill="teal">activityCategorySelectorActivity</text>
</g>
<!-- state_1522&#45;&gt;activityCategorySelectorActivity -->
<g id="edge7" class="edge"><title>state_1522&#45;&gt;activityCategorySelectorActivity</title>
<path fill="none" stroke="teal" d="M940.021,-525.583C950.731,-510.473 962.717,-496.175 975.956,-484 981.906,-478.529 988.861,-473.772 996.094,-469.681"/>
<polygon fill="teal" stroke="teal" points="998.104,-472.58 1005.35,-464.849 994.865,-466.374 998.104,-472.58"/>
<text text-anchor="middle" x="1050.46" y="-487.8" font-family="Times New Roman,serif" font-size="14.00" fill="teal"> &#160;&#160;click(&quot;index=0&quot;): 1477 &#160;&#160;</text>
</g>
<!-- activityCategoryActivity -->
<g id="node11" class="node"><title>activityCategoryActivity</title>
<ellipse fill="none" stroke="teal" cx="1444.96" cy="-448" rx="98.2828" ry="18"/>
<text text-anchor="middle" x="1444.96" y="-444.3" font-family="Times New Roman,serif" font-size="14.00" fill="teal">activityCategoryActivity</text>
</g>
<!-- state_1522&#45;&gt;activityCategoryActivity -->
<g id="edge8" class="edge"><title>state_1522&#45;&gt;activityCategoryActivity</title>
<path fill="none" stroke="teal" d="M940.07,-621.404C991.338,-589.367 1063.73,-542.905 1124.96,-499 1133.7,-492.73 1134.01,-488.111 1143.96,-484 1178.96,-469.53 1269.8,-460.266 1342.6,-454.928"/>
<polygon fill="teal" stroke="teal" points="1343.02,-458.407 1352.74,-454.201 1342.52,-451.425 1343.02,-458.407"/>
<text text-anchor="middle" x="1232.96" y="-487.8" font-family="Times New Roman,serif" font-size="14.00" fill="teal"> &#160;&#160;click(&quot;取消 index=1&quot;): 1510 &#160;&#160;</text>
</g>
<!-- activitySmsDragListActivity -->
<g id="node12" class="node"><title>activitySmsDragListActivity</title>
<ellipse fill="none" stroke="teal" cx="963.956" cy="-18" rx="112.38" ry="18"/>
<text text-anchor="middle" x="963.956" y="-14.3" font-family="Times New Roman,serif" font-size="14.00" fill="teal">activitySmsDragListActivity</text>
</g>
<!-- state_1522&#45;&gt;activitySmsDragListActivity -->
<g id="edge9" class="edge"><title>state_1522&#45;&gt;activitySmsDragListActivity</title>
<path fill="none" stroke="teal" d="M807.882,-656.193C597.642,-636.026 -39.6746,-561.103 1.95618,-397 44.5988,-228.909 40.9815,-146.041 187.956,-54 215.174,-36.9553 631.612,-25.8965 842.913,-21.3535"/>
<polygon fill="teal" stroke="teal" points="843.204,-24.8482 853.127,-21.1356 843.055,-17.8498 843.204,-24.8482"/>
<text text-anchor="middle" x="90.9562" y="-400.8" font-family="Times New Roman,serif" font-size="14.00" fill="teal"> &#160;&#160;click(&quot;取消 index=1&quot;): 1553 &#160;&#160;</text>
</g>
<!-- state_1524 -->
<g id="node2" class="node"><title>state_1524</title>
<g id="a_node2"><a xlink:href="../States/1524.png" xlink:title="&lt;TABLE&gt;">
<polygon fill="none" stroke="black" points="2599.96,-379 2467.96,-379 2467.96,-87 2599.96,-87 2599.96,-379"/>
<text text-anchor="start" x="2503.46" y="-366.8" font-family="Times New Roman,serif" font-size="14.00">state_1524</text>
<text text-anchor="start" x="2501.46" y="-351.8" font-family="Times New Roman,serif" font-size="14.00">incoming: 5</text>
<text text-anchor="start" x="2502.46" y="-336.8" font-family="Times New Roman,serif" font-size="14.00">outgoing: 7</text>
<text text-anchor="start" x="2513.96" y="-321.8" font-family="Times New Roman,serif" font-size="14.00">loop: 4</text>
<image xlink:href="../States/1524.png" width="130px" height="230px" preserveAspectRatio="xMinYMin meet" x="2468.96" y="-318"/>
<polygon fill="none" stroke="black" points="2467.96,-87 2467.96,-379 2599.96,-379 2599.96,-87 2467.96,-87"/>
</a>
</g>
</g>
<!-- state_1524&#45;&gt;state_1524 -->
<g id="edge13" class="edge"><title>state_1524&#45;&gt;state_1524</title>
<path fill="none" stroke="black" d="M2600.16,-262.354C2610.72,-258.058 2617.96,-248.273 2617.96,-233 2617.96,-222.5 2614.54,-214.593 2608.97,-209.282"/>
<polygon fill="black" stroke="black" points="2610.47,-206.086 2600.16,-203.646 2606.7,-211.983 2610.47,-206.086"/>
<text text-anchor="middle" x="2753.96" y="-251.8" font-family="Times New Roman,serif" font-size="14.00">click(&quot;SMS sender number or... index=1&quot;): 1473</text>
<text text-anchor="middle" x="2753.96" y="-236.8" font-family="Times New Roman,serif" font-size="14.00">click(&quot;Specify template wit... index=4&quot;): 1515</text>
<text text-anchor="middle" x="2753.96" y="-221.8" font-family="Times New Roman,serif" font-size="14.00">click(&quot;Try with sms example... index=5&quot;): 1516</text>
<text text-anchor="middle" x="2753.96" y="-206.8" font-family="Times New Roman,serif" font-size="14.00">click(&quot;確定 index=0&quot;): 1550</text>
</g>
<!-- state_1524&#45;&gt;activityCategorySelectorActivity -->
<g id="edge11" class="edge"><title>state_1524&#45;&gt;activityCategorySelectorActivity</title>
<path fill="none" stroke="teal" d="M2467.9,-372.546C2465.04,-374.855 2462.06,-377.013 2458.96,-379 2445.83,-387.403 1353.52,-429.185 1337.96,-430 1284.79,-432.784 1226.12,-436.198 1175.74,-439.235"/>
<polygon fill="teal" stroke="teal" points="1175.23,-435.76 1165.45,-439.857 1175.65,-442.748 1175.23,-435.76"/>
<text text-anchor="middle" x="2199.46" y="-400.8" font-family="Times New Roman,serif" font-size="14.00" fill="teal"> &#160;&#160;click(&quot;index=0&quot;): 1517 &#160;&#160;</text>
</g>
<!-- state_1524&#45;&gt;activitySmsDragListActivity -->
<g id="edge12" class="edge"><title>state_1524&#45;&gt;activitySmsDragListActivity</title>
<path fill="none" stroke="teal" d="M2467.74,-93.7023C2464.92,-91.32 2462,-89.0786 2458.96,-87 2343.83,-8.3336 2286.08,-63.4019 2146.96,-54 1760.25,-27.8668 1301.14,-21.2429 1086.28,-19.5664"/>
<polygon fill="teal" stroke="teal" points="1086.26,-16.0663 1076.23,-19.4903 1086.2,-23.0661 1086.26,-16.0663"/>
<text text-anchor="middle" x="2514.96" y="-57.8" font-family="Times New Roman,serif" font-size="14.00" fill="teal"> &#160;&#160;click(&quot;取消 index=1&quot;): 1551 &#160;&#160;</text>
</g>
<!-- state_1531 -->
<g id="node3" class="node"><title>state_1531</title>
<g id="a_node3"><a xlink:href="../States/1531.png" xlink:title="&lt;TABLE&gt;">
<polygon fill="none" stroke="black" points="2854.96,-809 2722.96,-809 2722.96,-517 2854.96,-517 2854.96,-809"/>
<text text-anchor="start" x="2758.46" y="-796.8" font-family="Times New Roman,serif" font-size="14.00">state_1531</text>
<text text-anchor="start" x="2756.46" y="-781.8" font-family="Times New Roman,serif" font-size="14.00">incoming: 5</text>
<text text-anchor="start" x="2757.46" y="-766.8" font-family="Times New Roman,serif" font-size="14.00">outgoing: 6</text>
<text text-anchor="start" x="2768.96" y="-751.8" font-family="Times New Roman,serif" font-size="14.00">loop: 6</text>
<image xlink:href="../States/1531.png" width="130px" height="230px" preserveAspectRatio="xMinYMin meet" x="2723.96" y="-748"/>
<polygon fill="none" stroke="black" points="2722.96,-517 2722.96,-809 2854.96,-809 2854.96,-517 2722.96,-517"/>
</a>
</g>
</g>
<!-- state_1531&#45;&gt;state_1531 -->
<g id="edge16" class="edge"><title>state_1531&#45;&gt;state_1531</title>
<path fill="none" stroke="black" d="M2855.16,-692.354C2865.72,-688.058 2872.96,-678.273 2872.96,-663 2872.96,-652.5 2869.54,-644.593 2863.97,-639.282"/>
<polygon fill="black" stroke="black" points="2865.47,-636.086 2855.16,-633.646 2861.7,-641.983 2865.47,-636.086"/>
<text text-anchor="middle" x="3008.96" y="-696.8" font-family="Times New Roman,serif" font-size="14.00">click(&quot;SMS sender number or... index=1&quot;): 1480</text>
<text text-anchor="middle" x="3008.96" y="-681.8" font-family="Times New Roman,serif" font-size="14.00">click(&quot;Specify template wit... index=3&quot;): 1484</text>
<text text-anchor="middle" x="3008.96" y="-666.8" font-family="Times New Roman,serif" font-size="14.00">click(&quot;Try with sms example... index=4&quot;): 1485</text>
<text text-anchor="middle" x="3008.96" y="-651.8" font-family="Times New Roman,serif" font-size="14.00">click(&quot;index=0&quot;): 1486</text>
<text text-anchor="middle" x="3008.96" y="-636.8" font-family="Times New Roman,serif" font-size="14.00">click(&quot;Start typing… index=1&quot;): 1521</text>
<text text-anchor="middle" x="3008.96" y="-621.8" font-family="Times New Roman,serif" font-size="14.00">click(&quot;確定 index=0&quot;): 1527</text>
</g>
<!-- state_1531&#45;&gt;activityCategoryActivity -->
<g id="edge14" class="edge"><title>state_1531&#45;&gt;activityCategoryActivity</title>
<path fill="none" stroke="teal" d="M2722.77,-651.51C2499.07,-616.059 1771.58,-500.763 1526.44,-461.914"/>
<polygon fill="teal" stroke="teal" points="1526.95,-458.452 1516.53,-460.343 1525.86,-465.365 1526.95,-458.452"/>
<text text-anchor="middle" x="1823.96" y="-487.8" font-family="Times New Roman,serif" font-size="14.00" fill="teal"> &#160;&#160;click(&quot;取消 index=1&quot;): 1528 &#160;&#160;</text>
</g>
<!-- state_1531&#45;&gt;activitySmsDragListActivity -->
<g id="edge15" class="edge"><title>state_1531&#45;&gt;activitySmsDragListActivity</title>
<path fill="none" stroke="teal" d="M2855.1,-557.633C2926.36,-430.574 3014.97,-216.918 2898.96,-87 2838.52,-19.3224 1503.22,-17.436 1086.82,-18.5026"/>
<polygon fill="teal" stroke="teal" points="1086.55,-15.0033 1076.56,-18.53 1086.57,-22.0032 1086.55,-15.0033"/>
<text text-anchor="middle" x="3013.96" y="-400.8" font-family="Times New Roman,serif" font-size="14.00" fill="teal"> &#160;&#160;click(&quot;取消 index=1&quot;): 1596 &#160;&#160;</text>
</g>
<!-- state_1533 -->
<g id="node4" class="node"><title>state_1533</title>
<g id="a_node4"><a xlink:href="../States/1533.png" xlink:title="&lt;TABLE&gt;">
<polygon fill="none" stroke="black" points="399.956,-379 267.956,-379 267.956,-87 399.956,-87 399.956,-379"/>
<text text-anchor="start" x="303.456" y="-366.8" font-family="Times New Roman,serif" font-size="14.00">state_1533</text>
<text text-anchor="start" x="301.456" y="-351.8" font-family="Times New Roman,serif" font-size="14.00">incoming: 4</text>
<text text-anchor="start" x="302.456" y="-336.8" font-family="Times New Roman,serif" font-size="14.00">outgoing: 6</text>
<text text-anchor="start" x="313.956" y="-321.8" font-family="Times New Roman,serif" font-size="14.00">loop: 6</text>
<image xlink:href="../States/1533.png" width="130px" height="230px" preserveAspectRatio="xMinYMin meet" x="268.956" y="-318"/>
<polygon fill="none" stroke="black" points="267.956,-87 267.956,-379 399.956,-379 399.956,-87 267.956,-87"/>
</a>
</g>
</g>
<!-- state_1533&#45;&gt;state_1533 -->
<g id="edge18" class="edge"><title>state_1533&#45;&gt;state_1533</title>
<path fill="none" stroke="black" d="M400.158,-262.354C410.724,-258.058 417.956,-248.273 417.956,-233 417.956,-222.5 414.538,-214.593 408.968,-209.282"/>
<polygon fill="black" stroke="black" points="410.468,-206.086 400.158,-203.646 406.696,-211.983 410.468,-206.086"/>
<text text-anchor="middle" x="553.956" y="-266.8" font-family="Times New Roman,serif" font-size="14.00">click(&quot;SMS sender number or... index=1&quot;): 1482</text>
<text text-anchor="middle" x="553.956" y="-251.8" font-family="Times New Roman,serif" font-size="14.00">click(&quot;Specify template wit... index=4&quot;): 1557</text>
<text text-anchor="middle" x="553.956" y="-236.8" font-family="Times New Roman,serif" font-size="14.00">click(&quot;Try with sms example... index=5&quot;): 1558</text>
<text text-anchor="middle" x="553.956" y="-221.8" font-family="Times New Roman,serif" font-size="14.00">click(&quot;index=0&quot;): 1559</text>
<text text-anchor="middle" x="553.956" y="-206.8" font-family="Times New Roman,serif" font-size="14.00">click(&quot;Start typing… index=1&quot;): 1562</text>
<text text-anchor="middle" x="553.956" y="-191.8" font-family="Times New Roman,serif" font-size="14.00">click(&quot;確定 index=0&quot;): 1574</text>
</g>
<!-- state_1533&#45;&gt;activitySmsDragListActivity -->
<g id="edge17" class="edge"><title>state_1533&#45;&gt;activitySmsDragListActivity</title>
<path fill="none" stroke="teal" d="M400.103,-191.731C471.444,-150.271 589.667,-87.1801 699.956,-54 748.11,-39.513 803,-31.0182 850.211,-26.0388"/>
<polygon fill="teal" stroke="teal" points="850.567,-29.5207 860.163,-25.0288 849.861,-22.5565 850.567,-29.5207"/>
<text text-anchor="middle" x="788.956" y="-57.8" font-family="Times New Roman,serif" font-size="14.00" fill="teal"> &#160;&#160;click(&quot;取消 index=1&quot;): 1575 &#160;&#160;</text>
</g>
<!-- state_1540 -->
<g id="node5" class="node"><title>state_1540</title>
<g id="a_node5"><a xlink:href="../States/1540.png" xlink:title="&lt;TABLE&gt;">
<polygon fill="none" stroke="black" points="1279.96,-379 1147.96,-379 1147.96,-87 1279.96,-87 1279.96,-379"/>
<text text-anchor="start" x="1183.46" y="-366.8" font-family="Times New Roman,serif" font-size="14.00">state_1540</text>
<text text-anchor="start" x="1181.46" y="-351.8" font-family="Times New Roman,serif" font-size="14.00">incoming: 6</text>
<text text-anchor="start" x="1182.46" y="-336.8" font-family="Times New Roman,serif" font-size="14.00">outgoing: 6</text>
<text text-anchor="start" x="1193.96" y="-321.8" font-family="Times New Roman,serif" font-size="14.00">loop: 4</text>
<image xlink:href="../States/1540.png" width="130px" height="230px" preserveAspectRatio="xMinYMin meet" x="1148.96" y="-318"/>
<polygon fill="none" stroke="black" points="1147.96,-87 1147.96,-379 1279.96,-379 1279.96,-87 1147.96,-87"/>
</a>
</g>
</g>
<!-- state_1540&#45;&gt;state_1540 -->
<g id="edge21" class="edge"><title>state_1540&#45;&gt;state_1540</title>
<path fill="none" stroke="black" d="M1280.16,-262.354C1290.72,-258.058 1297.96,-248.273 1297.96,-233 1297.96,-222.5 1294.54,-214.593 1288.97,-209.282"/>
<polygon fill="black" stroke="black" points="1290.47,-206.086 1280.16,-203.646 1286.7,-211.983 1290.47,-206.086"/>
<text text-anchor="middle" x="1433.96" y="-251.8" font-family="Times New Roman,serif" font-size="14.00">click(&quot;SMS sender number or... index=1&quot;): 1489</text>
<text text-anchor="middle" x="1433.96" y="-236.8" font-family="Times New Roman,serif" font-size="14.00">click(&quot;Specify template wit... index=3&quot;): 1493</text>
<text text-anchor="middle" x="1433.96" y="-221.8" font-family="Times New Roman,serif" font-size="14.00">click(&quot;Try with sms example... index=4&quot;): 1494</text>
<text text-anchor="middle" x="1433.96" y="-206.8" font-family="Times New Roman,serif" font-size="14.00">click(&quot;確定 index=0&quot;): 1543</text>
</g>
<!-- state_1540&#45;&gt;activityCategorySelectorActivity -->
<g id="edge19" class="edge"><title>state_1540&#45;&gt;activityCategorySelectorActivity</title>
<path fill="none" stroke="teal" d="M1147.74,-375.581C1137.95,-388.906 1127.04,-401.376 1114.96,-412 1109.33,-416.944 1102.89,-421.471 1096.31,-425.511"/>
<polygon fill="teal" stroke="teal" points="1094.23,-422.675 1087.32,-430.71 1097.73,-428.735 1094.23,-422.675"/>
<text text-anchor="middle" x="1200.46" y="-400.8" font-family="Times New Roman,serif" font-size="14.00" fill="teal"> &#160;&#160;click(&quot;index=0&quot;): 1495 &#160;&#160;</text>
</g>
<!-- state_1540&#45;&gt;activitySmsDragListActivity -->
<g id="edge20" class="edge"><title>state_1540&#45;&gt;activitySmsDragListActivity</title>
<path fill="none" stroke="teal" d="M1147.75,-96.3726C1144.91,-93.1188 1141.98,-89.9854 1138.96,-87 1112.98,-61.3751 1076.25,-45.158 1043.15,-35.0209"/>
<polygon fill="teal" stroke="teal" points="1044.05,-31.6367 1033.47,-32.1935 1042.09,-38.3561 1044.05,-31.6367"/>
<text text-anchor="middle" x="1203.96" y="-57.8" font-family="Times New Roman,serif" font-size="14.00" fill="teal"> &#160;&#160;click(&quot;取消 index=1&quot;): 1544 &#160;&#160;</text>
</g>
<!-- state_1542 -->
<g id="node6" class="node"><title>state_1542</title>
<g id="a_node6"><a xlink:href="../States/1542.png" xlink:title="&lt;TABLE&gt;">
<polygon fill="none" stroke="black" points="839.956,-379 707.956,-379 707.956,-87 839.956,-87 839.956,-379"/>
<text text-anchor="start" x="743.456" y="-366.8" font-family="Times New Roman,serif" font-size="14.00">state_1542</text>
<text text-anchor="start" x="741.456" y="-351.8" font-family="Times New Roman,serif" font-size="14.00">incoming: 5</text>
<text text-anchor="start" x="742.456" y="-336.8" font-family="Times New Roman,serif" font-size="14.00">outgoing: 7</text>
<text text-anchor="start" x="753.956" y="-321.8" font-family="Times New Roman,serif" font-size="14.00">loop: 4</text>
<image xlink:href="../States/1542.png" width="130px" height="230px" preserveAspectRatio="xMinYMin meet" x="708.956" y="-318"/>
<polygon fill="none" stroke="black" points="707.956,-87 707.956,-379 839.956,-379 839.956,-87 707.956,-87"/>
</a>
</g>
</g>
<!-- state_1542&#45;&gt;state_1542 -->
<g id="edge24" class="edge"><title>state_1542&#45;&gt;state_1542</title>
<path fill="none" stroke="black" d="M840.158,-262.354C850.724,-258.058 857.956,-248.273 857.956,-233 857.956,-222.5 854.538,-214.593 848.968,-209.282"/>
<polygon fill="black" stroke="black" points="850.468,-206.086 840.158,-203.646 846.696,-211.983 850.468,-206.086"/>
<text text-anchor="middle" x="993.956" y="-251.8" font-family="Times New Roman,serif" font-size="14.00">click(&quot;SMS sender number or... index=1&quot;): 1491</text>
<text text-anchor="middle" x="993.956" y="-236.8" font-family="Times New Roman,serif" font-size="14.00">click(&quot;Specify template wit... index=4&quot;): 1579</text>
<text text-anchor="middle" x="993.956" y="-221.8" font-family="Times New Roman,serif" font-size="14.00">click(&quot;Try with sms example... index=5&quot;): 1580</text>
<text text-anchor="middle" x="993.956" y="-206.8" font-family="Times New Roman,serif" font-size="14.00">click(&quot;確定 index=0&quot;): 1592</text>
</g>
<!-- state_1542&#45;&gt;activityCategorySelectorActivity -->
<g id="edge22" class="edge"><title>state_1542&#45;&gt;activityCategorySelectorActivity</title>
<path fill="none" stroke="teal" d="M840.095,-298.991C888.505,-346.151 948.065,-403.167 961.956,-412 971.181,-417.866 981.549,-423.03 991.86,-427.465"/>
<polygon fill="teal" stroke="teal" points="990.7,-430.772 1001.28,-431.332 993.359,-424.296 990.7,-430.772"/>
<text text-anchor="middle" x="1036.46" y="-400.8" font-family="Times New Roman,serif" font-size="14.00" fill="teal"> &#160;&#160;click(&quot;index=0&quot;): 1581 &#160;&#160;</text>
</g>
<!-- state_1542&#45;&gt;activitySmsDragListActivity -->
<g id="edge23" class="edge"><title>state_1542&#45;&gt;activitySmsDragListActivity</title>
<path fill="none" stroke="teal" d="M839.989,-116.327C856.094,-93.9318 874.618,-71.8959 894.956,-54 900.983,-48.6969 907.957,-43.9623 915.106,-39.8198"/>
<polygon fill="teal" stroke="teal" points="917.075,-42.7337 924.199,-34.8911 913.739,-36.5797 917.075,-42.7337"/>
<text text-anchor="middle" x="983.956" y="-57.8" font-family="Times New Roman,serif" font-size="14.00" fill="teal"> &#160;&#160;click(&quot;取消 index=1&quot;): 1593 &#160;&#160;</text>
</g>
<!-- state_1549 -->
<g id="node7" class="node"><title>state_1549</title>
<g id="a_node7"><a xlink:href="../States/1549.png" xlink:title="&lt;TABLE&gt;">
<polygon fill="none" stroke="black" points="1719.96,-379 1587.96,-379 1587.96,-87 1719.96,-87 1719.96,-379"/>
<text text-anchor="start" x="1623.46" y="-366.8" font-family="Times New Roman,serif" font-size="14.00">state_1549</text>
<text text-anchor="start" x="1621.46" y="-351.8" font-family="Times New Roman,serif" font-size="14.00">incoming: 5</text>
<text text-anchor="start" x="1622.46" y="-336.8" font-family="Times New Roman,serif" font-size="14.00">outgoing: 5</text>
<text text-anchor="start" x="1633.96" y="-321.8" font-family="Times New Roman,serif" font-size="14.00">loop: 6</text>
<image xlink:href="../States/1549.png" width="130px" height="230px" preserveAspectRatio="xMinYMin meet" x="1588.96" y="-318"/>
<polygon fill="none" stroke="black" points="1587.96,-87 1587.96,-379 1719.96,-379 1719.96,-87 1587.96,-87"/>
</a>
</g>
</g>
<!-- state_1549&#45;&gt;state_1549 -->
<g id="edge26" class="edge"><title>state_1549&#45;&gt;state_1549</title>
<path fill="none" stroke="black" d="M1720.16,-262.354C1730.72,-258.058 1737.96,-248.273 1737.96,-233 1737.96,-222.5 1734.54,-214.593 1728.97,-209.282"/>
<polygon fill="black" stroke="black" points="1730.47,-206.086 1720.16,-203.646 1726.7,-211.983 1730.47,-206.086"/>
<text text-anchor="middle" x="1873.96" y="-266.8" font-family="Times New Roman,serif" font-size="14.00">click(&quot;SMS sender number or... index=1&quot;): 1498</text>
<text text-anchor="middle" x="1873.96" y="-251.8" font-family="Times New Roman,serif" font-size="14.00">click(&quot;Specify template wit... index=3&quot;): 1502</text>
<text text-anchor="middle" x="1873.96" y="-236.8" font-family="Times New Roman,serif" font-size="14.00">click(&quot;Try with sms example... index=4&quot;): 1503</text>
<text text-anchor="middle" x="1873.96" y="-221.8" font-family="Times New Roman,serif" font-size="14.00">click(&quot;index=0&quot;): 1504</text>
<text text-anchor="middle" x="1873.96" y="-206.8" font-family="Times New Roman,serif" font-size="14.00">click(&quot;Start typing… index=1&quot;): 1523</text>
<text text-anchor="middle" x="1873.96" y="-191.8" font-family="Times New Roman,serif" font-size="14.00">click(&quot;確定 index=0&quot;): 1567</text>
</g>
<!-- state_1549&#45;&gt;activitySmsDragListActivity -->
<g id="edge25" class="edge"><title>state_1549&#45;&gt;activitySmsDragListActivity</title>
<path fill="none" stroke="teal" d="M1587.71,-93.7479C1584.9,-91.352 1581.99,-89.0955 1578.96,-87 1501.63,-33.5323 1242.55,-21.3903 1086.4,-19.0583"/>
<polygon fill="teal" stroke="teal" points="1086.31,-15.5569 1076.26,-18.9185 1086.21,-22.5562 1086.31,-15.5569"/>
<text text-anchor="middle" x="1622.96" y="-57.8" font-family="Times New Roman,serif" font-size="14.00" fill="teal"> &#160;&#160;click(&quot;取消 index=1&quot;): 1568 &#160;&#160;</text>
</g>
<!-- state_1551 -->
<g id="node8" class="node"><title>state_1551</title>
<g id="a_node8"><a xlink:href="../States/1551.png" xlink:title="&lt;TABLE&gt;">
<polygon fill="none" stroke="black" points="2159.96,-379 2027.96,-379 2027.96,-87 2159.96,-87 2159.96,-379"/>
<text text-anchor="start" x="2063.46" y="-366.8" font-family="Times New Roman,serif" font-size="14.00">state_1551</text>
<text text-anchor="start" x="2061.46" y="-351.8" font-family="Times New Roman,serif" font-size="14.00">incoming: 4</text>
<text text-anchor="start" x="2062.46" y="-336.8" font-family="Times New Roman,serif" font-size="14.00">outgoing: 6</text>
<text text-anchor="start" x="2073.96" y="-321.8" font-family="Times New Roman,serif" font-size="14.00">loop: 6</text>
<image xlink:href="../States/1551.png" width="130px" height="230px" preserveAspectRatio="xMinYMin meet" x="2028.96" y="-318"/>
<polygon fill="none" stroke="black" points="2027.96,-87 2027.96,-379 2159.96,-379 2159.96,-87 2027.96,-87"/>
</a>
</g>
</g>
<!-- state_1551&#45;&gt;state_1551 -->
<g id="edge28" class="edge"><title>state_1551&#45;&gt;state_1551</title>
<path fill="none" stroke="black" d="M2160.16,-262.354C2170.72,-258.058 2177.96,-248.273 2177.96,-233 2177.96,-222.5 2174.54,-214.593 2168.97,-209.282"/>
<polygon fill="black" stroke="black" points="2170.47,-206.086 2160.16,-203.646 2166.7,-211.983 2170.47,-206.086"/>
<text text-anchor="middle" x="2313.96" y="-266.8" font-family="Times New Roman,serif" font-size="14.00">click(&quot;SMS sender number or... index=1&quot;): 1500</text>
<text text-anchor="middle" x="2313.96" y="-251.8" font-family="Times New Roman,serif" font-size="14.00">click(&quot;Specify template wit... index=4&quot;): 1584</text>
<text text-anchor="middle" x="2313.96" y="-236.8" font-family="Times New Roman,serif" font-size="14.00">click(&quot;Try with sms example... index=5&quot;): 1585</text>
<text text-anchor="middle" x="2313.96" y="-221.8" font-family="Times New Roman,serif" font-size="14.00">click(&quot;index=0&quot;): 1586</text>
<text text-anchor="middle" x="2313.96" y="-206.8" font-family="Times New Roman,serif" font-size="14.00">click(&quot;Start typing… index=1&quot;): 1601</text>
<text text-anchor="middle" x="2313.96" y="-191.8" font-family="Times New Roman,serif" font-size="14.00">click(&quot;確定 index=0&quot;): 1606</text>
</g>
<!-- state_1551&#45;&gt;activitySmsDragListActivity -->
<g id="edge27" class="edge"><title>state_1551&#45;&gt;activitySmsDragListActivity</title>
<path fill="none" stroke="teal" d="M2027.73,-93.7151C2024.92,-91.329 2022,-89.0833 2018.96,-87 1943.66,-35.3776 1348.12,-22.9223 1086.5,-19.9348"/>
<polygon fill="teal" stroke="teal" points="1086.24,-16.4317 1076.2,-19.8201 1086.16,-23.4313 1086.24,-16.4317"/>
<text text-anchor="middle" x="2053.96" y="-57.8" font-family="Times New Roman,serif" font-size="14.00" fill="teal"> &#160;&#160;click(&quot;取消 index=1&quot;): 1607 &#160;&#160;</text>
</g>
<!-- state_1559 -->
<g id="node9" class="node"><title>state_1559</title>
<g id="a_node9"><a xlink:href="../States/1559.png" xlink:title="&lt;TABLE&gt;">
<polygon fill="none" stroke="black" points="3294.96,-809 3162.96,-809 3162.96,-517 3294.96,-517 3294.96,-809"/>
<text text-anchor="start" x="3198.46" y="-796.8" font-family="Times New Roman,serif" font-size="14.00">state_1559</text>
<text text-anchor="start" x="3196.46" y="-781.8" font-family="Times New Roman,serif" font-size="14.00">incoming: 8</text>
<text text-anchor="start" x="3197.46" y="-766.8" font-family="Times New Roman,serif" font-size="14.00">outgoing: 8</text>
<text text-anchor="start" x="3208.96" y="-751.8" font-family="Times New Roman,serif" font-size="14.00">loop: 0</text>
<image xlink:href="../States/1559.png" width="130px" height="230px" preserveAspectRatio="xMinYMin meet" x="3163.96" y="-748"/>
<polygon fill="none" stroke="black" points="3162.96,-517 3162.96,-809 3294.96,-809 3294.96,-517 3162.96,-517"/>
</a>
</g>
</g>
<!-- activityCategorySelectorActivity&#45;&gt;state_1522 -->
<g id="edge1" class="edge"><title>activityCategorySelectorActivity&#45;&gt;state_1522</title>
<path fill="none" stroke="teal" d="M937.271,-456.39C866.179,-462.204 786.033,-471.43 774.956,-484 745.382,-517.561 769.21,-561.418 800.885,-597.201"/>
<polygon fill="teal" stroke="teal" points="798.416,-599.688 807.746,-604.708 803.583,-594.965 798.416,-599.688"/>
<text text-anchor="middle" x="863.956" y="-487.8" font-family="Times New Roman,serif" font-size="14.00" fill="teal"> &#160;&#160;click(&quot;選取 index=1&quot;): 1478 &#160;&#160;</text>
</g>
<!-- activityCategorySelectorActivity&#45;&gt;state_1524 -->
<g id="edge3" class="edge"><title>activityCategorySelectorActivity&#45;&gt;state_1524</title>
<path fill="none" stroke="teal" d="M1164.4,-439.593C1217.15,-436.326 1280.74,-432.637 1337.96,-430 1462.51,-424.259 2354.35,-446.848 2458.96,-379 2459.25,-378.812 2459.53,-378.623 2459.82,-378.432"/>
<polygon fill="teal" stroke="teal" points="2461.9,-381.248 2467.87,-372.497 2457.75,-375.614 2461.9,-381.248"/>
<text text-anchor="middle" x="2478.96" y="-400.8" font-family="Times New Roman,serif" font-size="14.00" fill="teal"> &#160;&#160;click(&quot;選取 index=1&quot;): 1518 &#160;&#160;</text>
</g>
<!-- activityCategorySelectorActivity&#45;&gt;state_1540 -->
<g id="edge2" class="edge"><title>activityCategorySelectorActivity&#45;&gt;state_1540</title>
<path fill="none" stroke="teal" d="M1174.33,-443.113C1223.26,-438.734 1271.57,-429.838 1286.96,-412 1309.39,-385.993 1302.02,-352.158 1285.18,-320.981"/>
<polygon fill="teal" stroke="teal" points="1288.19,-319.208 1280.19,-312.267 1282.12,-322.685 1288.19,-319.208"/>
<text text-anchor="middle" x="1383.96" y="-400.8" font-family="Times New Roman,serif" font-size="14.00" fill="teal"> &#160;&#160;click(&quot;選取 index=1&quot;): 1496 &#160;&#160;</text>
</g>
<!-- activityCategorySelectorActivity&#45;&gt;state_1542 -->
<g id="edge4" class="edge"><title>activityCategorySelectorActivity&#45;&gt;state_1542</title>
<path fill="none" stroke="teal" d="M935.551,-440.06C861.309,-434.382 776.581,-425.134 764.956,-412 758.773,-405.014 754.171,-397.204 750.863,-388.861"/>
<polygon fill="teal" stroke="teal" points="754.138,-387.618 747.664,-379.231 747.495,-389.825 754.138,-387.618"/>
<text text-anchor="middle" x="853.956" y="-400.8" font-family="Times New Roman,serif" font-size="14.00" fill="teal"> &#160;&#160;click(&quot;選取 index=1&quot;): 1582 &#160;&#160;</text>
</g>
<!-- activityCategoryActivity&#45;&gt;state_1522 -->
<g id="edge5" class="edge"><title>activityCategoryActivity&#45;&gt;state_1522</title>
<path fill="none" stroke="teal" d="M1397.67,-463.825C1381.86,-469.414 1364.35,-476.303 1348.96,-484 1338.04,-489.459 1336.88,-493.56 1325.96,-499 1199.15,-562.142 1041.69,-613.237 950.039,-640.485"/>
<polygon fill="teal" stroke="teal" points="948.884,-637.176 940.287,-643.367 950.869,-643.889 948.884,-637.176"/>
<text text-anchor="middle" x="1423.46" y="-487.8" font-family="Times New Roman,serif" font-size="14.00" fill="teal"> &#160;&#160;click(&quot;index=0&quot;): 1470 &#160;&#160;</text>
</g>
<!-- activityCategoryActivity&#45;&gt;state_1522 -->
<g id="edge6" class="edge"><title>activityCategoryActivity&#45;&gt;state_1522</title>
<path fill="none" stroke="teal" d="M1479.98,-465.048C1495.21,-474.271 1507.62,-486.486 1497.96,-499 1430.97,-585.734 1101.57,-635.13 950.241,-653.577"/>
<polygon fill="teal" stroke="teal" points="949.607,-650.128 940.097,-654.8 950.444,-657.078 949.607,-650.128"/>
<text text-anchor="middle" x="1575.46" y="-487.8" font-family="Times New Roman,serif" font-size="14.00" fill="teal"> &#160;&#160;click(&quot;index=2&quot;): 1511 &#160;&#160;</text>
</g>
<!-- activitySmsDragListActivity&#45;&gt;state_1522 -->
<g id="edge29" class="edge"><title>activitySmsDragListActivity&#45;&gt;state_1522</title>
<path fill="none" stroke="teal" d="M852.373,-20.4335C651.545,-23.5471 247.922,-32.46 225.956,-54 112.118,-165.632 122.026,-274.628 202.956,-412 325.663,-620.284 649.117,-656.391 797.541,-661.714"/>
<polygon fill="teal" stroke="teal" points="797.813,-665.224 807.92,-662.046 798.037,-658.228 797.813,-665.224"/>
<text text-anchor="middle" x="277.456" y="-400.8" font-family="Times New Roman,serif" font-size="14.00" fill="teal"> &#160;&#160;click(&quot;index=1&quot;): 1537 &#160;&#160;</text>
</g>
<!-- activitySmsDragListActivity&#45;&gt;state_1522 -->
<g id="edge30" class="edge"><title>activitySmsDragListActivity&#45;&gt;state_1522</title>
<path fill="none" stroke="teal" d="M853.51,-21.6632C665.121,-27.3572 298.095,-43.9045 258.956,-87 171.706,-183.071 176.367,-278.893 258.956,-379 285.748,-411.475 312.134,-383.339 351.956,-397 519.229,-454.383 700.264,-556.183 799.079,-615.512"/>
<polygon fill="teal" stroke="teal" points="797.427,-618.603 807.799,-620.766 801.04,-612.607 797.427,-618.603"/>
<text text-anchor="middle" x="569.956" y="-400.8" font-family="Times New Roman,serif" font-size="14.00" fill="teal"> &#160;&#160;click(&quot;index=1&quot;): 1546, 1552, 1554, 1569, 1576, 1594, 1597 &#160;&#160;</text>
</g>
</g>
</svg>
