<?xml version="1.0" encoding="UTF-8" standalone="no"?>
<!DOCTYPE svg PUBLIC "-//W3C//DTD SVG 1.1//EN"
 "http://www.w3.org/Graphics/SVG/1.1/DTD/svg11.dtd">
<!-- Generated by graphviz version 2.38.0 (20140413.2041)
 -->
<!-- Title: activityReportPreferencesActivity Pages: 1 -->
<svg width="3192pt" height="673pt"
 viewBox="0.00 0.00 3192.25 673.00" xmlns="http://www.w3.org/2000/svg" xmlns:xlink="http://www.w3.org/1999/xlink">
<g id="graph0" class="graph" transform="scale(1 1) rotate(0) translate(4 669)">
<title>activityReportPreferencesActivity</title>
<polygon fill="white" stroke="none" points="-4,4 -4,-669 3188.25,-669 3188.25,4 -4,4"/>
<!-- state_873 -->
<g id="node1" class="node"><title>state_873</title>
<g id="a_node1"><a xlink:href="../States/873.png" xlink:title="&lt;TABLE&gt;">
<polygon fill="none" stroke="black" points="444.25,-292 312.25,-292 312.25,-0 444.25,-0 444.25,-292"/>
<text text-anchor="start" x="351.25" y="-279.8" font-family="Times New Roman,serif" font-size="14.00">state_873</text>
<text text-anchor="start" x="342.25" y="-264.8" font-family="Times New Roman,serif" font-size="14.00">incoming: 13</text>
<text text-anchor="start" x="346.75" y="-249.8" font-family="Times New Roman,serif" font-size="14.00">outgoing: 9</text>
<text text-anchor="start" x="358.25" y="-234.8" font-family="Times New Roman,serif" font-size="14.00">loop: 2</text>
<image xlink:href="../States/873.png" width="130px" height="230px" preserveAspectRatio="xMinYMin meet" x="313.25" y="-231"/>
<polygon fill="none" stroke="black" points="312.25,-0 312.25,-292 444.25,-292 444.25,-0 312.25,-0"/>
</a>
</g>
</g>
<!-- state_873&#45;&gt;state_873 -->
<g id="edge2" class="edge"><title>state_873&#45;&gt;state_873</title>
<path fill="none" stroke="black" d="M444.451,-175.354C455.018,-171.058 462.25,-161.273 462.25,-146 462.25,-135.5 458.832,-127.593 453.261,-122.282"/>
<polygon fill="black" stroke="black" points="454.761,-119.086 444.451,-116.646 450.99,-124.983 454.761,-119.086"/>
<text text-anchor="middle" x="600.75" y="-149.8" font-family="Times New Roman,serif" font-size="14.00">click(&quot;一般報告選項 index=0&quot;): 862</text>
<text text-anchor="middle" x="600.75" y="-134.8" font-family="Times New Roman,serif" font-size="14.00">click(&quot;根據分類與期間統計的選項 index=6&quot;): 894</text>
</g>
<!-- state_875 -->
<g id="node2" class="node"><title>state_875</title>
<g id="a_node2"><a xlink:href="../States/875.png" xlink:title="&lt;TABLE&gt;">
<polygon fill="none" stroke="black" points="649.25,-650 517.25,-650 517.25,-358 649.25,-358 649.25,-650"/>
<text text-anchor="start" x="556.25" y="-637.8" font-family="Times New Roman,serif" font-size="14.00">state_875</text>
<text text-anchor="start" x="550.75" y="-622.8" font-family="Times New Roman,serif" font-size="14.00">incoming: 5</text>
<text text-anchor="start" x="551.75" y="-607.8" font-family="Times New Roman,serif" font-size="14.00">outgoing: 5</text>
<text text-anchor="start" x="563.25" y="-592.8" font-family="Times New Roman,serif" font-size="14.00">loop: 0</text>
<image xlink:href="../States/875.png" width="130px" height="230px" preserveAspectRatio="xMinYMin meet" x="518.25" y="-589"/>
<polygon fill="none" stroke="black" points="517.25,-358 517.25,-650 649.25,-650 649.25,-358 517.25,-358"/>
</a>
</g>
</g>
<!-- state_877 -->
<g id="node3" class="node"><title>state_877</title>
<g id="a_node3"><a xlink:href="../States/877.png" xlink:title="&lt;TABLE&gt;">
<polygon fill="none" stroke="black" points="799.25,-650 667.25,-650 667.25,-358 799.25,-358 799.25,-650"/>
<text text-anchor="start" x="706.25" y="-637.8" font-family="Times New Roman,serif" font-size="14.00">state_877</text>
<text text-anchor="start" x="700.75" y="-622.8" font-family="Times New Roman,serif" font-size="14.00">incoming: 3</text>
<text text-anchor="start" x="701.75" y="-607.8" font-family="Times New Roman,serif" font-size="14.00">outgoing: 4</text>
<text text-anchor="start" x="713.25" y="-592.8" font-family="Times New Roman,serif" font-size="14.00">loop: 0</text>
<image xlink:href="../States/877.png" width="130px" height="230px" preserveAspectRatio="xMinYMin meet" x="668.25" y="-589"/>
<polygon fill="none" stroke="black" points="667.25,-358 667.25,-650 799.25,-650 799.25,-358 667.25,-358"/>
</a>
</g>
</g>
<!-- state_879 -->
<g id="node4" class="node"><title>state_879</title>
<g id="a_node4"><a xlink:href="../States/879.png" xlink:title="&lt;TABLE&gt;">
<polygon fill="none" stroke="black" points="949.25,-650 817.25,-650 817.25,-358 949.25,-358 949.25,-650"/>
<text text-anchor="start" x="856.25" y="-637.8" font-family="Times New Roman,serif" font-size="14.00">state_879</text>
<text text-anchor="start" x="850.75" y="-622.8" font-family="Times New Roman,serif" font-size="14.00">incoming: 3</text>
<text text-anchor="start" x="851.75" y="-607.8" font-family="Times New Roman,serif" font-size="14.00">outgoing: 4</text>
<text text-anchor="start" x="863.25" y="-592.8" font-family="Times New Roman,serif" font-size="14.00">loop: 0</text>
<image xlink:href="../States/879.png" width="130px" height="230px" preserveAspectRatio="xMinYMin meet" x="818.25" y="-589"/>
<polygon fill="none" stroke="black" points="817.25,-358 817.25,-650 949.25,-650 949.25,-358 817.25,-358"/>
</a>
</g>
</g>
<!-- state_881 -->
<g id="node5" class="node"><title>state_881</title>
<g id="a_node5"><a xlink:href="../States/881Equivalent.svg" xlink:title="&lt;TABLE&gt;">
<polygon fill="none" stroke="peru" points="1119.25,-665 967.25,-665 967.25,-343 1119.25,-343 1119.25,-665"/>
<text text-anchor="start" x="1016.25" y="-652.8" font-family="Times New Roman,serif" font-size="14.00">state_881</text>
<text text-anchor="start" x="1010.75" y="-637.8" font-family="Times New Roman,serif" font-size="14.00">incoming: 4</text>
<text text-anchor="start" x="1011.75" y="-622.8" font-family="Times New Roman,serif" font-size="14.00">outgoing: 4</text>
<text text-anchor="start" x="1023.25" y="-607.8" font-family="Times New Roman,serif" font-size="14.00">loop: 5</text>
<text text-anchor="start" x="998.25" y="-592.8" font-family="Times New Roman,serif" font-size="14.00">Equivalent State</text>
<text text-anchor="start" x="976.25" y="-577.8" font-family="Times New Roman,serif" font-size="14.00">EquivalentStateCount: 3</text>
<image xlink:href="../States/881.png" width="150px" height="230px" preserveAspectRatio="xMinYMin meet" x="968.25" y="-574"/>
<polygon fill="none" stroke="peru" points="967.25,-343 967.25,-665 1119.25,-665 1119.25,-343 967.25,-343"/>
</a>
</g>
</g>
<!-- state_881&#45;&gt;state_881 -->
<g id="edge3" class="edge"><title>state_881&#45;&gt;state_881</title>
<path fill="none" stroke="black" d="M1119.6,-535.12C1130.18,-529.994 1137.25,-519.621 1137.25,-504 1137.25,-493.016 1133.75,-484.627 1128,-478.832"/>
<polygon fill="black" stroke="black" points="1129.78,-475.805 1119.6,-472.88 1125.73,-481.517 1129.78,-475.805"/>
<text text-anchor="middle" x="1278.75" y="-530.3" font-family="Times New Roman,serif" font-size="14.00">click(&quot;一般報告選項 index=0&quot;): 870</text>
<text text-anchor="middle" x="1278.75" y="-515.3" font-family="Times New Roman,serif" font-size="14.00">click(&quot;index=5&quot;): 936</text>
<text text-anchor="middle" x="1278.75" y="-500.3" font-family="Times New Roman,serif" font-size="14.00">click(&quot;根據分類與期間統計的選項 index=6&quot;): 2820</text>
<text text-anchor="middle" x="1278.75" y="-485.3" font-family="Times New Roman,serif" font-size="14.00">click(&quot;index=7&quot;): 2821</text>
<text text-anchor="middle" x="1278.75" y="-470.3" font-family="Times New Roman,serif" font-size="14.00">click(&quot;index=8&quot;): 2846</text>
</g>
<!-- state_885 -->
<g id="node6" class="node"><title>state_885</title>
<g id="a_node6"><a xlink:href="../States/885.png" xlink:title="&lt;TABLE&gt;">
<polygon fill="none" stroke="black" points="1570.25,-650 1438.25,-650 1438.25,-358 1570.25,-358 1570.25,-650"/>
<text text-anchor="start" x="1477.25" y="-637.8" font-family="Times New Roman,serif" font-size="14.00">state_885</text>
<text text-anchor="start" x="1471.75" y="-622.8" font-family="Times New Roman,serif" font-size="14.00">incoming: 2</text>
<text text-anchor="start" x="1472.75" y="-607.8" font-family="Times New Roman,serif" font-size="14.00">outgoing: 2</text>
<text text-anchor="start" x="1484.25" y="-592.8" font-family="Times New Roman,serif" font-size="14.00">loop: 0</text>
<image xlink:href="../States/885.png" width="130px" height="230px" preserveAspectRatio="xMinYMin meet" x="1439.25" y="-589"/>
<polygon fill="none" stroke="black" points="1438.25,-358 1438.25,-650 1570.25,-650 1570.25,-358 1438.25,-358"/>
</a>
</g>
</g>
<!-- state_887 -->
<g id="node7" class="node"><title>state_887</title>
<g id="a_node7"><a xlink:href="../States/887.png" xlink:title="&lt;TABLE&gt;">
<polygon fill="none" stroke="black" points="1720.25,-650 1588.25,-650 1588.25,-358 1720.25,-358 1720.25,-650"/>
<text text-anchor="start" x="1627.25" y="-637.8" font-family="Times New Roman,serif" font-size="14.00">state_887</text>
<text text-anchor="start" x="1621.75" y="-622.8" font-family="Times New Roman,serif" font-size="14.00">incoming: 2</text>
<text text-anchor="start" x="1622.75" y="-607.8" font-family="Times New Roman,serif" font-size="14.00">outgoing: 2</text>
<text text-anchor="start" x="1634.25" y="-592.8" font-family="Times New Roman,serif" font-size="14.00">loop: 0</text>
<image xlink:href="../States/887.png" width="130px" height="230px" preserveAspectRatio="xMinYMin meet" x="1589.25" y="-589"/>
<polygon fill="none" stroke="black" points="1588.25,-358 1588.25,-650 1720.25,-650 1720.25,-358 1588.25,-358"/>
</a>
</g>
</g>
<!-- state_890 -->
<g id="node8" class="node"><title>state_890</title>
<g id="a_node8"><a xlink:href="../States/890Equivalent.svg" xlink:title="&lt;TABLE&gt;">
<polygon fill="none" stroke="peru" points="1890.25,-665 1738.25,-665 1738.25,-343 1890.25,-343 1890.25,-665"/>
<text text-anchor="start" x="1787.25" y="-652.8" font-family="Times New Roman,serif" font-size="14.00">state_890</text>
<text text-anchor="start" x="1781.75" y="-637.8" font-family="Times New Roman,serif" font-size="14.00">incoming: 4</text>
<text text-anchor="start" x="1782.75" y="-622.8" font-family="Times New Roman,serif" font-size="14.00">outgoing: 3</text>
<text text-anchor="start" x="1794.25" y="-607.8" font-family="Times New Roman,serif" font-size="14.00">loop: 2</text>
<text text-anchor="start" x="1769.25" y="-592.8" font-family="Times New Roman,serif" font-size="14.00">Equivalent State</text>
<text text-anchor="start" x="1747.25" y="-577.8" font-family="Times New Roman,serif" font-size="14.00">EquivalentStateCount: 1</text>
<image xlink:href="../States/890.png" width="150px" height="230px" preserveAspectRatio="xMinYMin meet" x="1739.25" y="-574"/>
<polygon fill="none" stroke="peru" points="1738.25,-343 1738.25,-665 1890.25,-665 1890.25,-343 1738.25,-343"/>
</a>
</g>
</g>
<!-- state_890&#45;&gt;state_890 -->
<g id="edge4" class="edge"><title>state_890&#45;&gt;state_890</title>
<path fill="none" stroke="black" d="M1890.6,-535.12C1901.18,-529.994 1908.25,-519.621 1908.25,-504 1908.25,-493.016 1904.75,-484.627 1899,-478.832"/>
<polygon fill="black" stroke="black" points="1900.78,-475.805 1890.6,-472.88 1896.73,-481.517 1900.78,-475.805"/>
<text text-anchor="middle" x="2008.25" y="-507.8" font-family="Times New Roman,serif" font-size="14.00">click(&quot;一般報告選項 index=0&quot;): 879</text>
<text text-anchor="middle" x="2008.25" y="-492.8" font-family="Times New Roman,serif" font-size="14.00">click(&quot;index=4&quot;): 886</text>
</g>
<!-- state_908 -->
<g id="node9" class="node"><title>state_908</title>
<g id="a_node9"><a xlink:href="../States/908Equivalent.svg" xlink:title="&lt;TABLE&gt;">
<polygon fill="none" stroke="peru" points="2278.25,-665 2126.25,-665 2126.25,-343 2278.25,-343 2278.25,-665"/>
<text text-anchor="start" x="2175.25" y="-652.8" font-family="Times New Roman,serif" font-size="14.00">state_908</text>
<text text-anchor="start" x="2169.75" y="-637.8" font-family="Times New Roman,serif" font-size="14.00">incoming: 4</text>
<text text-anchor="start" x="2170.75" y="-622.8" font-family="Times New Roman,serif" font-size="14.00">outgoing: 3</text>
<text text-anchor="start" x="2182.25" y="-607.8" font-family="Times New Roman,serif" font-size="14.00">loop: 2</text>
<text text-anchor="start" x="2157.25" y="-592.8" font-family="Times New Roman,serif" font-size="14.00">Equivalent State</text>
<text text-anchor="start" x="2135.25" y="-577.8" font-family="Times New Roman,serif" font-size="14.00">EquivalentStateCount: 1</text>
<image xlink:href="../States/908.png" width="150px" height="230px" preserveAspectRatio="xMinYMin meet" x="2127.25" y="-574"/>
<polygon fill="none" stroke="peru" points="2126.25,-343 2126.25,-665 2278.25,-665 2278.25,-343 2126.25,-343"/>
</a>
</g>
</g>
<!-- state_908&#45;&gt;state_908 -->
<g id="edge6" class="edge"><title>state_908&#45;&gt;state_908</title>
<path fill="none" stroke="black" d="M2278.6,-535.12C2289.18,-529.994 2296.25,-519.621 2296.25,-504 2296.25,-493.016 2292.75,-484.627 2287,-478.832"/>
<polygon fill="black" stroke="black" points="2288.78,-475.805 2278.6,-472.88 2284.73,-481.517 2288.78,-475.805"/>
<text text-anchor="middle" x="2396.25" y="-507.8" font-family="Times New Roman,serif" font-size="14.00">click(&quot;一般報告選項 index=0&quot;): 896</text>
<text text-anchor="middle" x="2396.25" y="-492.8" font-family="Times New Roman,serif" font-size="14.00">click(&quot;index=4&quot;): 903</text>
</g>
<!-- state_925 -->
<g id="node10" class="node"><title>state_925</title>
<g id="a_node10"><a xlink:href="../States/925Equivalent.svg" xlink:title="&lt;TABLE&gt;">
<polygon fill="none" stroke="peru" points="2666.25,-665 2514.25,-665 2514.25,-343 2666.25,-343 2666.25,-665"/>
<text text-anchor="start" x="2563.25" y="-652.8" font-family="Times New Roman,serif" font-size="14.00">state_925</text>
<text text-anchor="start" x="2557.75" y="-637.8" font-family="Times New Roman,serif" font-size="14.00">incoming: 4</text>
<text text-anchor="start" x="2558.75" y="-622.8" font-family="Times New Roman,serif" font-size="14.00">outgoing: 3</text>
<text text-anchor="start" x="2570.25" y="-607.8" font-family="Times New Roman,serif" font-size="14.00">loop: 2</text>
<text text-anchor="start" x="2545.25" y="-592.8" font-family="Times New Roman,serif" font-size="14.00">Equivalent State</text>
<text text-anchor="start" x="2523.25" y="-577.8" font-family="Times New Roman,serif" font-size="14.00">EquivalentStateCount: 1</text>
<image xlink:href="../States/925.png" width="150px" height="230px" preserveAspectRatio="xMinYMin meet" x="2515.25" y="-574"/>
<polygon fill="none" stroke="peru" points="2514.25,-343 2514.25,-665 2666.25,-665 2666.25,-343 2514.25,-343"/>
</a>
</g>
</g>
<!-- state_925&#45;&gt;state_925 -->
<g id="edge8" class="edge"><title>state_925&#45;&gt;state_925</title>
<path fill="none" stroke="black" d="M2666.6,-535.12C2677.18,-529.994 2684.25,-519.621 2684.25,-504 2684.25,-493.016 2680.75,-484.627 2675,-478.832"/>
<polygon fill="black" stroke="black" points="2676.78,-475.805 2666.6,-472.88 2672.73,-481.517 2676.78,-475.805"/>
<text text-anchor="middle" x="2784.25" y="-507.8" font-family="Times New Roman,serif" font-size="14.00">click(&quot;一般報告選項 index=0&quot;): 912</text>
<text text-anchor="middle" x="2784.25" y="-492.8" font-family="Times New Roman,serif" font-size="14.00">click(&quot;index=4&quot;): 919</text>
</g>
<!-- state_944 -->
<g id="node11" class="node"><title>state_944</title>
<g id="a_node11"><a xlink:href="../States/944.png" xlink:title="&lt;TABLE&gt;">
<polygon fill="none" stroke="black" points="3034.25,-650 2902.25,-650 2902.25,-358 3034.25,-358 3034.25,-650"/>
<text text-anchor="start" x="2941.25" y="-637.8" font-family="Times New Roman,serif" font-size="14.00">state_944</text>
<text text-anchor="start" x="2935.75" y="-622.8" font-family="Times New Roman,serif" font-size="14.00">incoming: 1</text>
<text text-anchor="start" x="2936.75" y="-607.8" font-family="Times New Roman,serif" font-size="14.00">outgoing: 1</text>
<text text-anchor="start" x="2948.25" y="-592.8" font-family="Times New Roman,serif" font-size="14.00">loop: 0</text>
<image xlink:href="../States/944.png" width="130px" height="230px" preserveAspectRatio="xMinYMin meet" x="2903.25" y="-589"/>
<polygon fill="none" stroke="black" points="2902.25,-358 2902.25,-650 3034.25,-650 3034.25,-358 2902.25,-358"/>
</a>
</g>
</g>
<!-- state_948 -->
<g id="node12" class="node"><title>state_948</title>
<g id="a_node12"><a xlink:href="../States/948.png" xlink:title="&lt;TABLE&gt;">
<polygon fill="none" stroke="black" points="3184.25,-650 3052.25,-650 3052.25,-358 3184.25,-358 3184.25,-650"/>
<text text-anchor="start" x="3091.25" y="-637.8" font-family="Times New Roman,serif" font-size="14.00">state_948</text>
<text text-anchor="start" x="3085.75" y="-622.8" font-family="Times New Roman,serif" font-size="14.00">incoming: 1</text>
<text text-anchor="start" x="3086.75" y="-607.8" font-family="Times New Roman,serif" font-size="14.00">outgoing: 1</text>
<text text-anchor="start" x="3098.25" y="-592.8" font-family="Times New Roman,serif" font-size="14.00">loop: 0</text>
<image xlink:href="../States/948.png" width="130px" height="230px" preserveAspectRatio="xMinYMin meet" x="3053.25" y="-589"/>
<polygon fill="none" stroke="black" points="3052.25,-358 3052.25,-650 3184.25,-650 3184.25,-358 3052.25,-358"/>
</a>
</g>
</g>
<!-- activityReport2DChartActivity -->
<g id="node13" class="node"><title>activityReport2DChartActivity</title>
<ellipse fill="none" stroke="teal" cx="378.25" cy="-504" rx="120.779" ry="18"/>
<text text-anchor="middle" x="378.25" y="-500.3" font-family="Times New Roman,serif" font-size="14.00" fill="teal">activityReport2DChartActivity</text>
</g>
<!-- activityReport2DChartActivity&#45;&gt;state_873 -->
<g id="edge1" class="edge"><title>activityReport2DChartActivity&#45;&gt;state_873</title>
<path fill="none" stroke="teal" d="M289.503,-491.751C160.256,-471.415 -57.0207,-420.005 14.25,-310 77.7172,-212.039 215.436,-172.412 302.096,-156.772"/>
<polygon fill="teal" stroke="teal" points="302.89,-160.186 312.142,-155.024 301.69,-153.29 302.89,-160.186"/>
<text text-anchor="middle" x="102.75" y="-313.8" font-family="Times New Roman,serif" font-size="14.00" fill="teal"> &#160;&#160;click(&quot;index=3&quot;): 861, 2818 &#160;&#160;</text>
</g>
<!-- activityReport2DChartActivity&#45;&gt;state_873 -->
<g id="edge5" class="edge"><title>activityReport2DChartActivity&#45;&gt;state_873</title>
<path fill="none" stroke="teal" d="M353.927,-486.229C315.579,-458.124 242.523,-397.412 214.25,-325 191.63,-267.066 249.987,-216.622 303.247,-184.373"/>
<polygon fill="teal" stroke="teal" points="305.248,-187.256 312.079,-179.158 301.689,-181.228 305.248,-187.256"/>
<text text-anchor="middle" x="285.25" y="-313.8" font-family="Times New Roman,serif" font-size="14.00" fill="teal"> &#160;&#160;click(&quot;index=3&quot;): 893 &#160;&#160;</text>
</g>
<!-- activityReport2DChartActivity&#45;&gt;state_873 -->
<g id="edge7" class="edge"><title>activityReport2DChartActivity&#45;&gt;state_873</title>
<path fill="none" stroke="teal" d="M378.25,-485.829C378.25,-452.268 378.25,-374.918 378.25,-302.585"/>
<polygon fill="teal" stroke="teal" points="381.75,-302.417 378.25,-292.417 374.75,-302.417 381.75,-302.417"/>
<text text-anchor="middle" x="449.25" y="-313.8" font-family="Times New Roman,serif" font-size="14.00" fill="teal"> &#160;&#160;click(&quot;index=3&quot;): 910 &#160;&#160;</text>
</g>
<!-- activityReport2DChartActivity&#45;&gt;state_873 -->
<g id="edge9" class="edge"><title>activityReport2DChartActivity&#45;&gt;state_873</title>
<path fill="none" stroke="teal" d="M392.29,-485.833C427.992,-442.139 519.556,-329.814 521.25,-325 539.461,-273.254 496.196,-225.438 452.598,-192.425"/>
<polygon fill="teal" stroke="teal" points="454.595,-189.549 444.468,-186.435 450.443,-195.184 454.595,-189.549"/>
<text text-anchor="middle" x="595.25" y="-313.8" font-family="Times New Roman,serif" font-size="14.00" fill="teal"> &#160;&#160;click(&quot;index=3&quot;): 926 &#160;&#160;</text>
</g>
<!-- activityReport2DChartActivity&#45;&gt;state_873 -->
<g id="edge10" class="edge"><title>activityReport2DChartActivity&#45;&gt;state_873</title>
<path fill="none" stroke="teal" d="M386.309,-486.032C403.404,-452.154 446.83,-376.519 508.25,-343 540.045,-325.648 646.093,-351.99 670.25,-325 742.532,-244.241 563.246,-188.147 454.418,-162.606"/>
<polygon fill="teal" stroke="teal" points="454.972,-159.142 444.441,-160.304 453.398,-165.963 454.972,-159.142"/>
<text text-anchor="middle" x="753.75" y="-313.8" font-family="Times New Roman,serif" font-size="14.00" fill="teal"> &#160;&#160;click(&quot;index=3&quot;): 2844 &#160;&#160;</text>
</g>
</g>
</svg>
