<?xml version="1.0" encoding="UTF-8" standalone="no"?>
<!DOCTYPE svg PUBLIC "-//W3C//DTD SVG 1.1//EN"
 "http://www.w3.org/Graphics/SVG/1.1/DTD/svg11.dtd">
<!-- Generated by graphviz version 2.38.0 (20140413.2041)
 -->
<!-- Title: activityPayeeListActivity Pages: 1 -->
<svg width="1490pt" height="904pt"
 viewBox="0.00 0.00 1489.68 904.00" xmlns="http://www.w3.org/2000/svg" xmlns:xlink="http://www.w3.org/1999/xlink">
<g id="graph0" class="graph" transform="scale(1 1) rotate(0) translate(4 900)">
<title>activityPayeeListActivity</title>
<polygon fill="white" stroke="none" points="-4,4 -4,-900 1485.68,-900 1485.68,4 -4,4"/>
<!-- state_1665 -->
<g id="node1" class="node"><title>state_1665</title>
<g id="a_node1"><a xlink:href="../States/1665.png" xlink:title="&lt;TABLE&gt;">
<polygon fill="none" stroke="black" points="659.684,-809 527.684,-809 527.684,-517 659.684,-517 659.684,-809"/>
<text text-anchor="start" x="563.184" y="-796.8" font-family="Times New Roman,serif" font-size="14.00">state_1665</text>
<text text-anchor="start" x="561.184" y="-781.8" font-family="Times New Roman,serif" font-size="14.00">incoming: 2</text>
<text text-anchor="start" x="562.184" y="-766.8" font-family="Times New Roman,serif" font-size="14.00">outgoing: 2</text>
<text text-anchor="start" x="573.684" y="-751.8" font-family="Times New Roman,serif" font-size="14.00">loop: 1</text>
<image xlink:href="../States/1665.png" width="130px" height="230px" preserveAspectRatio="xMinYMin meet" x="528.684" y="-748"/>
<polygon fill="none" stroke="black" points="527.684,-517 527.684,-809 659.684,-809 659.684,-517 527.684,-517"/>
</a>
</g>
</g>
<!-- state_1665&#45;&gt;state_1665 -->
<g id="edge3" class="edge"><title>state_1665&#45;&gt;state_1665</title>
<path fill="none" stroke="black" d="M659.885,-692.354C670.451,-688.058 677.684,-678.273 677.684,-663 677.684,-652.5 674.265,-644.593 668.695,-639.282"/>
<polygon fill="black" stroke="black" points="670.195,-636.086 659.885,-633.646 666.423,-641.983 670.195,-636.086"/>
<text text-anchor="middle" x="779.684" y="-659.3" font-family="Times New Roman,serif" font-size="14.00">click(&quot;Type name... index=0&quot;): 1612</text>
</g>
<!-- activityPayeeActivity -->
<g id="node6" class="node"><title>activityPayeeActivity</title>
<ellipse fill="none" stroke="teal" cx="593.684" cy="-448" rx="86.3847" ry="18"/>
<text text-anchor="middle" x="593.684" y="-444.3" font-family="Times New Roman,serif" font-size="14.00" fill="teal">activityPayeeActivity</text>
</g>
<!-- state_1665&#45;&gt;activityPayeeActivity -->
<g id="edge2" class="edge"><title>state_1665&#45;&gt;activityPayeeActivity</title>
<path fill="none" stroke="teal" d="M593.684,-516.98C593.684,-501.732 593.684,-487.702 593.684,-476.397"/>
<polygon fill="teal" stroke="teal" points="597.184,-476.057 593.684,-466.057 590.184,-476.057 597.184,-476.057"/>
<text text-anchor="middle" x="685.684" y="-487.8" font-family="Times New Roman,serif" font-size="14.00" fill="teal"> &#160;&#160;click(&quot;index=0&quot;): 1613, 3174 &#160;&#160;</text>
</g>
<!-- state_1672 -->
<g id="node2" class="node"><title>state_1672</title>
<g id="a_node2"><a xlink:href="../States/1672.png" xlink:title="&lt;TABLE&gt;">
<polygon fill="none" stroke="black" points="458.684,-379 326.684,-379 326.684,-87 458.684,-87 458.684,-379"/>
<text text-anchor="start" x="362.184" y="-366.8" font-family="Times New Roman,serif" font-size="14.00">state_1672</text>
<text text-anchor="start" x="360.184" y="-351.8" font-family="Times New Roman,serif" font-size="14.00">incoming: 3</text>
<text text-anchor="start" x="361.184" y="-336.8" font-family="Times New Roman,serif" font-size="14.00">outgoing: 3</text>
<text text-anchor="start" x="372.684" y="-321.8" font-family="Times New Roman,serif" font-size="14.00">loop: 1</text>
<image xlink:href="../States/1672.png" width="130px" height="230px" preserveAspectRatio="xMinYMin meet" x="327.684" y="-318"/>
<polygon fill="none" stroke="black" points="326.684,-87 326.684,-379 458.684,-379 458.684,-87 326.684,-87"/>
</a>
</g>
</g>
<!-- state_1672&#45;&gt;state_1672 -->
<g id="edge11" class="edge"><title>state_1672&#45;&gt;state_1672</title>
<path fill="none" stroke="black" d="M458.885,-262.354C469.451,-258.058 476.684,-248.273 476.684,-233 476.684,-222.5 473.265,-214.593 467.695,-209.282"/>
<polygon fill="black" stroke="black" points="469.195,-206.086 458.885,-203.646 465.423,-211.983 469.195,-206.086"/>
<text text-anchor="middle" x="578.684" y="-229.3" font-family="Times New Roman,serif" font-size="14.00">click(&quot;Type name... index=0&quot;): 1619</text>
</g>
<!-- state_1672&#45;&gt;activityPayeeActivity -->
<g id="edge10" class="edge"><title>state_1672&#45;&gt;activityPayeeActivity</title>
<path fill="none" stroke="teal" d="M326.655,-267.55C264.474,-303.4 187.161,-361.85 232.684,-412 250.278,-431.382 397.334,-440.352 498.24,-444.259"/>
<polygon fill="teal" stroke="teal" points="498.342,-447.765 508.466,-444.644 498.605,-440.77 498.342,-447.765"/>
<text text-anchor="middle" x="307.184" y="-400.8" font-family="Times New Roman,serif" font-size="14.00" fill="teal"> &#160;&#160;click(&quot;index=0&quot;): 3177 &#160;&#160;</text>
</g>
<!-- activityBlotterActivity -->
<g id="node7" class="node"><title>activityBlotterActivity</title>
<ellipse fill="none" stroke="teal" cx="870.684" cy="-18" rx="89.0842" ry="18"/>
<text text-anchor="middle" x="870.684" y="-14.3" font-family="Times New Roman,serif" font-size="14.00" fill="teal">activityBlotterActivity</text>
</g>
<!-- state_1672&#45;&gt;activityBlotterActivity -->
<g id="edge9" class="edge"><title>state_1672&#45;&gt;activityBlotterActivity</title>
<path fill="none" stroke="teal" d="M458.896,-202.495C557.866,-158.394 741.756,-76.4511 826.196,-38.824"/>
<polygon fill="teal" stroke="teal" points="827.796,-41.943 835.505,-34.6757 824.946,-35.5491 827.796,-41.943"/>
<text text-anchor="middle" x="864.184" y="-57.8" font-family="Times New Roman,serif" font-size="14.00" fill="teal"> &#160;&#160;click(&quot;index=0&quot;): 1620 &#160;&#160;</text>
</g>
<!-- state_3342 -->
<g id="node3" class="node"><title>state_3342</title>
<g id="a_node3"><a xlink:href="../States/3342.png" xlink:title="&lt;TABLE&gt;">
<polygon fill="none" stroke="black" points="869.684,-379 737.684,-379 737.684,-87 869.684,-87 869.684,-379"/>
<text text-anchor="start" x="773.184" y="-366.8" font-family="Times New Roman,serif" font-size="14.00">state_3342</text>
<text text-anchor="start" x="771.184" y="-351.8" font-family="Times New Roman,serif" font-size="14.00">incoming: 3</text>
<text text-anchor="start" x="772.184" y="-336.8" font-family="Times New Roman,serif" font-size="14.00">outgoing: 2</text>
<text text-anchor="start" x="783.684" y="-321.8" font-family="Times New Roman,serif" font-size="14.00">loop: 1</text>
<image xlink:href="../States/3342.png" width="130px" height="230px" preserveAspectRatio="xMinYMin meet" x="738.684" y="-318"/>
<polygon fill="none" stroke="black" points="737.684,-87 737.684,-379 869.684,-379 869.684,-87 737.684,-87"/>
</a>
</g>
</g>
<!-- state_3342&#45;&gt;state_3342 -->
<g id="edge13" class="edge"><title>state_3342&#45;&gt;state_3342</title>
<path fill="none" stroke="black" d="M869.885,-262.354C880.451,-258.058 887.684,-248.273 887.684,-233 887.684,-222.5 884.265,-214.593 878.695,-209.282"/>
<polygon fill="black" stroke="black" points="880.195,-206.086 869.885,-203.646 876.423,-211.983 880.195,-206.086"/>
<text text-anchor="middle" x="989.684" y="-229.3" font-family="Times New Roman,serif" font-size="14.00">click(&quot;Type name... index=0&quot;): 3170</text>
</g>
<!-- state_3342&#45;&gt;activityPayeeActivity -->
<g id="edge12" class="edge"><title>state_3342&#45;&gt;activityPayeeActivity</title>
<path fill="none" stroke="teal" d="M869.755,-269.449C929.129,-305.731 1000.72,-363.509 956.684,-412 938.962,-431.513 790.688,-440.45 689.212,-444.313"/>
<polygon fill="teal" stroke="teal" points="688.794,-440.826 678.93,-444.693 689.052,-447.821 688.794,-440.826"/>
<text text-anchor="middle" x="1057.68" y="-400.8" font-family="Times New Roman,serif" font-size="14.00" fill="teal"> &#160;&#160;click(&quot;index=0&quot;): 3171, 3181 &#160;&#160;</text>
</g>
<!-- state_3355 -->
<g id="node4" class="node"><title>state_3355</title>
<g id="a_node4"><a xlink:href="../States/3355.png" xlink:title="&lt;TABLE&gt;">
<polygon fill="none" stroke="black" points="1259.68,-379 1127.68,-379 1127.68,-87 1259.68,-87 1259.68,-379"/>
<text text-anchor="start" x="1163.18" y="-366.8" font-family="Times New Roman,serif" font-size="14.00">state_3355</text>
<text text-anchor="start" x="1161.18" y="-351.8" font-family="Times New Roman,serif" font-size="14.00">incoming: 1</text>
<text text-anchor="start" x="1162.18" y="-336.8" font-family="Times New Roman,serif" font-size="14.00">outgoing: 1</text>
<text text-anchor="start" x="1173.68" y="-321.8" font-family="Times New Roman,serif" font-size="14.00">loop: 1</text>
<image xlink:href="../States/3355.png" width="130px" height="230px" preserveAspectRatio="xMinYMin meet" x="1128.68" y="-318"/>
<polygon fill="none" stroke="black" points="1127.68,-87 1127.68,-379 1259.68,-379 1259.68,-87 1127.68,-87"/>
</a>
</g>
</g>
<!-- state_3355&#45;&gt;state_3355 -->
<g id="edge15" class="edge"><title>state_3355&#45;&gt;state_3355</title>
<path fill="none" stroke="black" d="M1259.89,-262.354C1270.45,-258.058 1277.68,-248.273 1277.68,-233 1277.68,-222.5 1274.27,-214.593 1268.7,-209.282"/>
<polygon fill="black" stroke="black" points="1270.2,-206.086 1259.89,-203.646 1266.42,-211.983 1270.2,-206.086"/>
<text text-anchor="middle" x="1379.68" y="-229.3" font-family="Times New Roman,serif" font-size="14.00">click(&quot;Type name... index=0&quot;): 3183</text>
</g>
<!-- state_3355&#45;&gt;activityBlotterActivity -->
<g id="edge14" class="edge"><title>state_3355&#45;&gt;activityBlotterActivity</title>
<path fill="none" stroke="teal" d="M1127.52,-112.198C1119.32,-102.872 1110.37,-94.272 1100.68,-87 1058.8,-55.5576 1002.56,-38.597 956.173,-29.4778"/>
<polygon fill="teal" stroke="teal" points="956.605,-25.9979 946.131,-27.5944 955.314,-32.8779 956.605,-25.9979"/>
<text text-anchor="middle" x="1142.18" y="-57.8" font-family="Times New Roman,serif" font-size="14.00" fill="teal"> &#160;&#160;click(&quot;index=0&quot;): 3184 &#160;&#160;</text>
</g>
<!-- activityMainActivity -->
<g id="node5" class="node"><title>activityMainActivity</title>
<ellipse fill="none" stroke="teal" cx="593.684" cy="-878" rx="83.3857" ry="18"/>
<text text-anchor="middle" x="593.684" y="-874.3" font-family="Times New Roman,serif" font-size="14.00" fill="teal">activityMainActivity</text>
</g>
<!-- activityMainActivity&#45;&gt;state_1665 -->
<g id="edge1" class="edge"><title>activityMainActivity&#45;&gt;state_1665</title>
<path fill="none" stroke="teal" d="M593.684,-859.929C593.684,-849.71 593.684,-835.615 593.684,-819.628"/>
<polygon fill="teal" stroke="teal" points="597.184,-819.447 593.684,-809.447 590.184,-819.447 597.184,-819.447"/>
<text text-anchor="middle" x="685.684" y="-830.8" font-family="Times New Roman,serif" font-size="14.00" fill="teal"> &#160;&#160;click(&quot;index=4&quot;): 1611, 3168 &#160;&#160;</text>
</g>
<!-- activityPayeeActivity&#45;&gt;state_1672 -->
<g id="edge4" class="edge"><title>activityPayeeActivity&#45;&gt;state_1672</title>
<path fill="none" stroke="teal" d="M510.557,-442.973C462.607,-438.718 408.87,-429.972 393.684,-412 387.742,-404.968 383.17,-397.163 379.728,-388.859"/>
<polygon fill="teal" stroke="teal" points="382.969,-387.528 376.311,-379.287 376.377,-389.881 382.969,-387.528"/>
<text text-anchor="middle" x="482.684" y="-400.8" font-family="Times New Roman,serif" font-size="14.00" fill="teal"> &#160;&#160;click(&quot;確定 index=0&quot;): 1618 &#160;&#160;</text>
</g>
<!-- activityPayeeActivity&#45;&gt;state_1672 -->
<g id="edge7" class="edge"><title>activityPayeeActivity&#45;&gt;state_1672</title>
<path fill="none" stroke="teal" d="M588.172,-429.861C584.441,-419.748 578.88,-407.01 571.684,-397 542.601,-356.548 502.074,-318.611 466.936,-289.532"/>
<polygon fill="teal" stroke="teal" points="469.019,-286.714 459.063,-283.089 464.585,-292.131 469.019,-286.714"/>
<text text-anchor="middle" x="669.684" y="-400.8" font-family="Times New Roman,serif" font-size="14.00" fill="teal"> &#160;&#160;click(&quot;確定 index=0&quot;): 3176 &#160;&#160;</text>
</g>
<!-- activityPayeeActivity&#45;&gt;state_1672 -->
<g id="edge8" class="edge"><title>activityPayeeActivity&#45;&gt;state_1672</title>
<path fill="none" stroke="teal" d="M508.441,-444.832C352.829,-440.455 37.1163,-429.467 20.6837,-412 -73.3881,-312.007 182.182,-261.943 316.383,-243.112"/>
<polygon fill="teal" stroke="teal" points="317.186,-246.534 326.616,-241.704 316.232,-239.6 317.186,-246.534"/>
<text text-anchor="middle" x="109.684" y="-400.8" font-family="Times New Roman,serif" font-size="14.00" fill="teal"> &#160;&#160;click(&quot;取消 index=1&quot;): 3179 &#160;&#160;</text>
</g>
<!-- activityPayeeActivity&#45;&gt;state_3342 -->
<g id="edge5" class="edge"><title>activityPayeeActivity&#45;&gt;state_3342</title>
<path fill="none" stroke="teal" d="M669.724,-439.301C708.038,-433.884 749.189,-425.199 762.684,-412 769.91,-404.932 775.973,-396.865 781.049,-388.156"/>
<polygon fill="teal" stroke="teal" points="784.183,-389.718 785.803,-379.248 778.007,-386.422 784.183,-389.718"/>
<text text-anchor="middle" x="863.684" y="-400.8" font-family="Times New Roman,serif" font-size="14.00" fill="teal"> &#160;&#160;click(&quot;取消 index=1&quot;): 3172 &#160;&#160;</text>
</g>
<!-- activityPayeeActivity&#45;&gt;state_3355 -->
<g id="edge6" class="edge"><title>activityPayeeActivity&#45;&gt;state_3355</title>
<path fill="none" stroke="teal" d="M680.307,-447.204C828.59,-446.735 1118.57,-441.944 1153.68,-412 1161.81,-405.069 1168.49,-396.876 1173.96,-387.873"/>
<polygon fill="teal" stroke="teal" points="1177.09,-389.455 1178.85,-379.007 1170.96,-386.076 1177.09,-389.455"/>
<text text-anchor="middle" x="1255.68" y="-400.8" font-family="Times New Roman,serif" font-size="14.00" fill="teal"> &#160;&#160;click(&quot;確定 index=0&quot;): 3182 &#160;&#160;</text>
</g>
</g>
</svg>
