<?xml version="1.0" encoding="UTF-8" standalone="no"?>
<!DOCTYPE svg PUBLIC "-//W3C//DTD SVG 1.1//EN"
 "http://www.w3.org/Graphics/SVG/1.1/DTD/svg11.dtd">
<!-- Generated by graphviz version 2.38.0 (20140413.2041)
 -->
<!-- Title: activityAttributeActivity Pages: 1 -->
<svg width="2151pt" height="730pt"
 viewBox="0.00 0.00 2151.00 730.00" xmlns="http://www.w3.org/2000/svg" xmlns:xlink="http://www.w3.org/1999/xlink">
<g id="graph0" class="graph" transform="scale(1 1) rotate(0) translate(4 726)">
<title>activityAttributeActivity</title>
<polygon fill="white" stroke="none" points="-4,4 -4,-726 2147,-726 2147,4 -4,4"/>
<!-- state_3255 -->
<g id="node1" class="node"><title>state_3255</title>
<g id="a_node1"><a xlink:href="../States/3255.png" xlink:title="&lt;TABLE&gt;">
<polygon fill="none" stroke="black" points="1511,-379 1379,-379 1379,-87 1511,-87 1511,-379"/>
<text text-anchor="start" x="1414.5" y="-366.8" font-family="Times New Roman,serif" font-size="14.00">state_3255</text>
<text text-anchor="start" x="1412.5" y="-351.8" font-family="Times New Roman,serif" font-size="14.00">incoming: 6</text>
<text text-anchor="start" x="1413.5" y="-336.8" font-family="Times New Roman,serif" font-size="14.00">outgoing: 2</text>
<text text-anchor="start" x="1425" y="-321.8" font-family="Times New Roman,serif" font-size="14.00">loop: 3</text>
<image xlink:href="../States/3255.png" width="130px" height="230px" preserveAspectRatio="xMinYMin meet" x="1380" y="-318"/>
<polygon fill="none" stroke="black" points="1379,-87 1379,-379 1511,-379 1511,-87 1379,-87"/>
</a>
</g>
</g>
<!-- state_3255&#45;&gt;state_3255 -->
<g id="edge4" class="edge"><title>state_3255&#45;&gt;state_3255</title>
<path fill="none" stroke="black" d="M1511.2,-262.354C1521.77,-258.058 1529,-248.273 1529,-233 1529,-222.5 1525.58,-214.593 1520.01,-209.282"/>
<polygon fill="black" stroke="black" points="1521.51,-206.086 1511.2,-203.646 1517.74,-211.983 1521.51,-206.086"/>
<text text-anchor="middle" x="1607" y="-244.3" font-family="Times New Roman,serif" font-size="14.00">click(&quot;index=1&quot;): 3085</text>
<text text-anchor="middle" x="1607" y="-229.3" font-family="Times New Roman,serif" font-size="14.00">click(&quot;index=1&quot;): 3088</text>
<text text-anchor="middle" x="1607" y="-214.3" font-family="Times New Roman,serif" font-size="14.00">click(&quot;確定 index=0&quot;): 3089</text>
</g>
<!-- activityAttributeListActivity -->
<g id="node11" class="node"><title>activityAttributeListActivity</title>
<ellipse fill="none" stroke="teal" cx="905" cy="-18" rx="110.48" ry="18"/>
<text text-anchor="middle" x="905" y="-14.3" font-family="Times New Roman,serif" font-size="14.00" fill="teal">activityAttributeListActivity</text>
</g>
<!-- state_3255&#45;&gt;activityAttributeListActivity -->
<g id="edge3" class="edge"><title>state_3255&#45;&gt;activityAttributeListActivity</title>
<path fill="none" stroke="teal" d="M1378.71,-93.8057C1375.92,-91.3926 1373.02,-89.1169 1370,-87 1319.74,-51.7161 1291.84,-86.5992 1233,-69 1218.34,-64.6137 1216.69,-58.2884 1202,-54 1143.94,-37.0531 1077.21,-28.2822 1021.74,-23.7554"/>
<polygon fill="teal" stroke="teal" points="1021.75,-20.2463 1011.51,-22.9586 1021.21,-27.2252 1021.75,-20.2463"/>
<text text-anchor="middle" x="1322" y="-57.8" font-family="Times New Roman,serif" font-size="14.00" fill="teal"> &#160;&#160;click(&quot;取消 index=1&quot;): 3090 &#160;&#160;</text>
</g>
<!-- state_3257 -->
<g id="node2" class="node"><title>state_3257</title>
<g id="a_node2"><a xlink:href="../States/3257.png" xlink:title="&lt;TABLE&gt;">
<polygon fill="none" stroke="black" points="1693,-722 1561,-722 1561,-430 1693,-430 1693,-722"/>
<text text-anchor="start" x="1596.5" y="-709.8" font-family="Times New Roman,serif" font-size="14.00">state_3257</text>
<text text-anchor="start" x="1594.5" y="-694.8" font-family="Times New Roman,serif" font-size="14.00">incoming: 1</text>
<text text-anchor="start" x="1595.5" y="-679.8" font-family="Times New Roman,serif" font-size="14.00">outgoing: 4</text>
<text text-anchor="start" x="1607" y="-664.8" font-family="Times New Roman,serif" font-size="14.00">loop: 0</text>
<image xlink:href="../States/3257.png" width="130px" height="230px" preserveAspectRatio="xMinYMin meet" x="1562" y="-661"/>
<polygon fill="none" stroke="black" points="1561,-430 1561,-722 1693,-722 1693,-430 1561,-430"/>
</a>
</g>
</g>
<!-- state_3264 -->
<g id="node3" class="node"><title>state_3264</title>
<g id="a_node3"><a xlink:href="../States/3264.png" xlink:title="&lt;TABLE&gt;">
<polygon fill="none" stroke="black" points="132,-379 0,-379 0,-87 132,-87 132,-379"/>
<text text-anchor="start" x="35.5" y="-366.8" font-family="Times New Roman,serif" font-size="14.00">state_3264</text>
<text text-anchor="start" x="33.5" y="-351.8" font-family="Times New Roman,serif" font-size="14.00">incoming: 4</text>
<text text-anchor="start" x="34.5" y="-336.8" font-family="Times New Roman,serif" font-size="14.00">outgoing: 2</text>
<text text-anchor="start" x="46" y="-321.8" font-family="Times New Roman,serif" font-size="14.00">loop: 3</text>
<image xlink:href="../States/3264.png" width="130px" height="230px" preserveAspectRatio="xMinYMin meet" x="1" y="-318"/>
<polygon fill="none" stroke="black" points="0,-87 0,-379 132,-379 132,-87 0,-87"/>
</a>
</g>
</g>
<!-- state_3264&#45;&gt;state_3264 -->
<g id="edge6" class="edge"><title>state_3264&#45;&gt;state_3264</title>
<path fill="none" stroke="black" d="M132.201,-262.354C142.768,-258.058 150,-248.273 150,-233 150,-222.5 146.582,-214.593 141.012,-209.282"/>
<polygon fill="black" stroke="black" points="142.512,-206.086 132.201,-203.646 138.74,-211.983 142.512,-206.086"/>
<text text-anchor="middle" x="228" y="-244.3" font-family="Times New Roman,serif" font-size="14.00">click(&quot;index=1&quot;): 3094</text>
<text text-anchor="middle" x="228" y="-229.3" font-family="Times New Roman,serif" font-size="14.00">click(&quot;index=1&quot;): 3109</text>
<text text-anchor="middle" x="228" y="-214.3" font-family="Times New Roman,serif" font-size="14.00">click(&quot;確定 index=0&quot;): 3110</text>
</g>
<!-- state_3264&#45;&gt;activityAttributeListActivity -->
<g id="edge5" class="edge"><title>state_3264&#45;&gt;activityAttributeListActivity</title>
<path fill="none" stroke="teal" d="M132.115,-188.31C181.151,-157.209 250.412,-115.964 315,-87 358.09,-67.6765 369.658,-63.0868 416,-54 540.152,-29.656 684.993,-21.7822 784.64,-19.4595"/>
<polygon fill="teal" stroke="teal" points="784.822,-22.9565 794.744,-19.2394 784.67,-15.9582 784.822,-22.9565"/>
<text text-anchor="middle" x="505" y="-57.8" font-family="Times New Roman,serif" font-size="14.00" fill="teal"> &#160;&#160;click(&quot;取消 index=1&quot;): 3111 &#160;&#160;</text>
</g>
<!-- state_3266 -->
<g id="node4" class="node"><title>state_3266</title>
<g id="a_node4"><a xlink:href="../States/3266.png" xlink:title="&lt;TABLE&gt;">
<polygon fill="none" stroke="black" points="1843,-722 1711,-722 1711,-430 1843,-430 1843,-722"/>
<text text-anchor="start" x="1746.5" y="-709.8" font-family="Times New Roman,serif" font-size="14.00">state_3266</text>
<text text-anchor="start" x="1744.5" y="-694.8" font-family="Times New Roman,serif" font-size="14.00">incoming: 1</text>
<text text-anchor="start" x="1745.5" y="-679.8" font-family="Times New Roman,serif" font-size="14.00">outgoing: 4</text>
<text text-anchor="start" x="1757" y="-664.8" font-family="Times New Roman,serif" font-size="14.00">loop: 0</text>
<image xlink:href="../States/3266.png" width="130px" height="230px" preserveAspectRatio="xMinYMin meet" x="1712" y="-661"/>
<polygon fill="none" stroke="black" points="1711,-430 1711,-722 1843,-722 1843,-430 1711,-430"/>
</a>
</g>
</g>
<!-- state_3269 -->
<g id="node5" class="node"><title>state_3269</title>
<g id="a_node5"><a xlink:href="../States/3269.png" xlink:title="&lt;TABLE&gt;">
<polygon fill="none" stroke="black" points="456,-379 324,-379 324,-87 456,-87 456,-379"/>
<text text-anchor="start" x="359.5" y="-366.8" font-family="Times New Roman,serif" font-size="14.00">state_3269</text>
<text text-anchor="start" x="357.5" y="-351.8" font-family="Times New Roman,serif" font-size="14.00">incoming: 4</text>
<text text-anchor="start" x="358.5" y="-336.8" font-family="Times New Roman,serif" font-size="14.00">outgoing: 2</text>
<text text-anchor="start" x="370" y="-321.8" font-family="Times New Roman,serif" font-size="14.00">loop: 4</text>
<image xlink:href="../States/3269.png" width="130px" height="230px" preserveAspectRatio="xMinYMin meet" x="325" y="-318"/>
<polygon fill="none" stroke="black" points="324,-87 324,-379 456,-379 456,-87 324,-87"/>
</a>
</g>
</g>
<!-- state_3269&#45;&gt;state_3269 -->
<g id="edge8" class="edge"><title>state_3269&#45;&gt;state_3269</title>
<path fill="none" stroke="black" d="M456.201,-262.354C466.768,-258.058 474,-248.273 474,-233 474,-222.5 470.582,-214.593 465.012,-209.282"/>
<polygon fill="black" stroke="black" points="466.512,-206.086 456.201,-203.646 462.74,-211.983 466.512,-206.086"/>
<text text-anchor="middle" x="589.5" y="-251.8" font-family="Times New Roman,serif" font-size="14.00">click(&quot;index=1&quot;): 3099</text>
<text text-anchor="middle" x="589.5" y="-236.8" font-family="Times New Roman,serif" font-size="14.00">click(&quot;使用 ; 隔開每個值 index=1&quot;): 3115</text>
<text text-anchor="middle" x="589.5" y="-221.8" font-family="Times New Roman,serif" font-size="14.00">click(&quot;index=1&quot;): 3116</text>
<text text-anchor="middle" x="589.5" y="-206.8" font-family="Times New Roman,serif" font-size="14.00">click(&quot;確定 index=0&quot;): 3117</text>
</g>
<!-- state_3269&#45;&gt;activityAttributeListActivity -->
<g id="edge7" class="edge"><title>state_3269&#45;&gt;activityAttributeListActivity</title>
<path fill="none" stroke="teal" d="M456.461,-167.339C501.225,-127.808 563.654,-79.9938 628,-54 658.023,-41.8716 732.154,-32.8698 796.177,-27.0344"/>
<polygon fill="teal" stroke="teal" points="796.708,-30.5009 806.357,-26.125 796.085,-23.5287 796.708,-30.5009"/>
<text text-anchor="middle" x="717" y="-57.8" font-family="Times New Roman,serif" font-size="14.00" fill="teal"> &#160;&#160;click(&quot;取消 index=1&quot;): 3118 &#160;&#160;</text>
</g>
<!-- state_3271 -->
<g id="node6" class="node"><title>state_3271</title>
<g id="a_node6"><a xlink:href="../States/3271.png" xlink:title="&lt;TABLE&gt;">
<polygon fill="none" stroke="black" points="1993,-722 1861,-722 1861,-430 1993,-430 1993,-722"/>
<text text-anchor="start" x="1896.5" y="-709.8" font-family="Times New Roman,serif" font-size="14.00">state_3271</text>
<text text-anchor="start" x="1894.5" y="-694.8" font-family="Times New Roman,serif" font-size="14.00">incoming: 1</text>
<text text-anchor="start" x="1895.5" y="-679.8" font-family="Times New Roman,serif" font-size="14.00">outgoing: 4</text>
<text text-anchor="start" x="1907" y="-664.8" font-family="Times New Roman,serif" font-size="14.00">loop: 0</text>
<image xlink:href="../States/3271.png" width="130px" height="230px" preserveAspectRatio="xMinYMin meet" x="1862" y="-661"/>
<polygon fill="none" stroke="black" points="1861,-430 1861,-722 1993,-722 1993,-430 1861,-430"/>
</a>
</g>
</g>
<!-- state_3274 -->
<g id="node7" class="node"><title>state_3274</title>
<g id="a_node7"><a xlink:href="../States/3274.png" xlink:title="&lt;TABLE&gt;">
<polygon fill="none" stroke="black" points="855,-379 723,-379 723,-87 855,-87 855,-379"/>
<text text-anchor="start" x="758.5" y="-366.8" font-family="Times New Roman,serif" font-size="14.00">state_3274</text>
<text text-anchor="start" x="756.5" y="-351.8" font-family="Times New Roman,serif" font-size="14.00">incoming: 4</text>
<text text-anchor="start" x="757.5" y="-336.8" font-family="Times New Roman,serif" font-size="14.00">outgoing: 3</text>
<text text-anchor="start" x="769" y="-321.8" font-family="Times New Roman,serif" font-size="14.00">loop: 3</text>
<image xlink:href="../States/3274.png" width="130px" height="230px" preserveAspectRatio="xMinYMin meet" x="724" y="-318"/>
<polygon fill="none" stroke="black" points="723,-87 723,-379 855,-379 855,-87 723,-87"/>
</a>
</g>
</g>
<!-- state_3274&#45;&gt;state_3274 -->
<g id="edge10" class="edge"><title>state_3274&#45;&gt;state_3274</title>
<path fill="none" stroke="black" d="M855.201,-262.354C865.768,-258.058 873,-248.273 873,-233 873,-222.5 869.582,-214.593 864.012,-209.282"/>
<polygon fill="black" stroke="black" points="865.512,-206.086 855.201,-203.646 861.74,-211.983 865.512,-206.086"/>
<text text-anchor="middle" x="953" y="-244.3" font-family="Times New Roman,serif" font-size="14.00">click(&quot;index=1&quot;): 3104</text>
<text text-anchor="middle" x="953" y="-229.3" font-family="Times New Roman,serif" font-size="14.00">click(&quot;是;否 index=1&quot;): 3122</text>
<text text-anchor="middle" x="953" y="-214.3" font-family="Times New Roman,serif" font-size="14.00">click(&quot;確定 index=0&quot;): 3137</text>
</g>
<!-- state_3274&#45;&gt;activityAttributeListActivity -->
<g id="edge9" class="edge"><title>state_3274&#45;&gt;activityAttributeListActivity</title>
<path fill="none" stroke="teal" d="M800.288,-86.57C805.038,-74.8521 811.16,-63.7816 819,-54 824.033,-47.7206 830.373,-42.5593 837.319,-38.3188"/>
<polygon fill="teal" stroke="teal" points="839.251,-41.2538 846.39,-33.4251 835.927,-35.0932 839.251,-41.2538"/>
<text text-anchor="middle" x="908" y="-57.8" font-family="Times New Roman,serif" font-size="14.00" fill="teal"> &#160;&#160;click(&quot;取消 index=1&quot;): 3138 &#160;&#160;</text>
</g>
<!-- state_3276 -->
<g id="node8" class="node"><title>state_3276</title>
<g id="a_node8"><a xlink:href="../States/3276.png" xlink:title="&lt;TABLE&gt;">
<polygon fill="none" stroke="black" points="2143,-722 2011,-722 2011,-430 2143,-430 2143,-722"/>
<text text-anchor="start" x="2046.5" y="-709.8" font-family="Times New Roman,serif" font-size="14.00">state_3276</text>
<text text-anchor="start" x="2044.5" y="-694.8" font-family="Times New Roman,serif" font-size="14.00">incoming: 2</text>
<text text-anchor="start" x="2045.5" y="-679.8" font-family="Times New Roman,serif" font-size="14.00">outgoing: 4</text>
<text text-anchor="start" x="2057" y="-664.8" font-family="Times New Roman,serif" font-size="14.00">loop: 0</text>
<image xlink:href="../States/3276.png" width="130px" height="230px" preserveAspectRatio="xMinYMin meet" x="2012" y="-661"/>
<polygon fill="none" stroke="black" points="2011,-430 2011,-722 2143,-722 2143,-430 2011,-430"/>
</a>
</g>
</g>
<!-- state_3294 -->
<g id="node9" class="node"><title>state_3294</title>
<g id="a_node9"><a xlink:href="../States/3294.png" xlink:title="&lt;TABLE&gt;">
<polygon fill="none" stroke="black" points="1183,-379 1051,-379 1051,-87 1183,-87 1183,-379"/>
<text text-anchor="start" x="1086.5" y="-366.8" font-family="Times New Roman,serif" font-size="14.00">state_3294</text>
<text text-anchor="start" x="1084.5" y="-351.8" font-family="Times New Roman,serif" font-size="14.00">incoming: 2</text>
<text text-anchor="start" x="1085.5" y="-336.8" font-family="Times New Roman,serif" font-size="14.00">outgoing: 3</text>
<text text-anchor="start" x="1097" y="-321.8" font-family="Times New Roman,serif" font-size="14.00">loop: 3</text>
<image xlink:href="../States/3294.png" width="130px" height="230px" preserveAspectRatio="xMinYMin meet" x="1052" y="-318"/>
<polygon fill="none" stroke="black" points="1051,-87 1051,-379 1183,-379 1183,-87 1051,-87"/>
</a>
</g>
</g>
<!-- state_3294&#45;&gt;state_3294 -->
<g id="edge12" class="edge"><title>state_3294&#45;&gt;state_3294</title>
<path fill="none" stroke="black" d="M1183.2,-262.354C1193.77,-258.058 1201,-248.273 1201,-233 1201,-222.5 1197.58,-214.593 1192.01,-209.282"/>
<polygon fill="black" stroke="black" points="1193.51,-206.086 1183.2,-203.646 1189.74,-211.983 1193.51,-206.086"/>
<text text-anchor="middle" x="1281" y="-244.3" font-family="Times New Roman,serif" font-size="14.00">click(&quot;index=1&quot;): 3124</text>
<text text-anchor="middle" x="1281" y="-229.3" font-family="Times New Roman,serif" font-size="14.00">click(&quot;是;否 index=1&quot;): 3135</text>
<text text-anchor="middle" x="1281" y="-214.3" font-family="Times New Roman,serif" font-size="14.00">click(&quot;確定 index=0&quot;): 3153</text>
</g>
<!-- state_3294&#45;&gt;activityAttributeListActivity -->
<g id="edge11" class="edge"><title>state_3294&#45;&gt;activityAttributeListActivity</title>
<path fill="none" stroke="teal" d="M1050.88,-98.0598C1048,-94.2511 1045.04,-90.5534 1042,-87 1022.48,-64.178 993.459,-48.2483 967.15,-37.5757"/>
<polygon fill="teal" stroke="teal" points="968.192,-34.2258 957.603,-33.8785 965.664,-40.7535 968.192,-34.2258"/>
<text text-anchor="middle" x="1109" y="-57.8" font-family="Times New Roman,serif" font-size="14.00" fill="teal"> &#160;&#160;click(&quot;取消 index=1&quot;): 3154 &#160;&#160;</text>
</g>
<!-- activityCategoryActivity -->
<g id="node10" class="node"><title>activityCategoryActivity</title>
<ellipse fill="none" stroke="teal" cx="1445" cy="-576" rx="98.2828" ry="18"/>
<text text-anchor="middle" x="1445" y="-572.3" font-family="Times New Roman,serif" font-size="14.00" fill="teal">activityCategoryActivity</text>
</g>
<!-- activityCategoryActivity&#45;&gt;state_3255 -->
<g id="edge1" class="edge"><title>activityCategoryActivity&#45;&gt;state_3255</title>
<path fill="none" stroke="teal" d="M1445,-557.621C1445,-525.993 1445,-456.114 1445,-389.356"/>
<polygon fill="teal" stroke="teal" points="1448.5,-389.105 1445,-379.105 1441.5,-389.105 1448.5,-389.105"/>
<text text-anchor="middle" x="1519.5" y="-400.8" font-family="Times New Roman,serif" font-size="14.00" fill="teal"> &#160;&#160;click(&quot;index=2&quot;): 3164 &#160;&#160;</text>
</g>
<!-- activityAttributeListActivity&#45;&gt;state_3255 -->
<g id="edge2" class="edge"><title>activityAttributeListActivity&#45;&gt;state_3255</title>
<path fill="none" stroke="teal" d="M1015.41,-19.4429C1156.51,-21.0884 1386.1,-27.8169 1415,-54 1422.58,-60.8651 1428.71,-68.8714 1433.64,-77.6165"/>
<polygon fill="teal" stroke="teal" points="1430.55,-79.2511 1438.19,-86.5929 1436.79,-76.09 1430.55,-79.2511"/>
<text text-anchor="middle" x="1570.5" y="-57.8" font-family="Times New Roman,serif" font-size="14.00" fill="teal"> &#160;&#160;click(&quot;index=0&quot;): 3084, 3091, 3112, 3119, 3139 &#160;&#160;</text>
</g>
</g>
</svg>
