<?xml version="1.0" encoding="UTF-8" standalone="no"?>
<!DOCTYPE svg PUBLIC "-//W3C//DTD SVG 1.1//EN"
 "http://www.w3.org/Graphics/SVG/1.1/DTD/svg11.dtd">
<!-- Generated by graphviz version 2.38.0 (20140413.2041)
 -->
<!-- Title: activitySmsDragListActivity Pages: 1 -->
<svg width="1730pt" height="817pt"
 viewBox="0.00 0.00 1730.11 817.00" xmlns="http://www.w3.org/2000/svg" xmlns:xlink="http://www.w3.org/1999/xlink">
<g id="graph0" class="graph" transform="scale(1 1) rotate(0) translate(4 813)">
<title>activitySmsDragListActivity</title>
<polygon fill="white" stroke="none" points="-4,4 -4,-813 1726.11,-813 1726.11,4 -4,4"/>
<!-- state_1586 -->
<g id="node1" class="node"><title>state_1586</title>
<g id="a_node1"><a xlink:href="../States/1586.png" xlink:title="&lt;TABLE&gt;">
<polygon fill="none" stroke="black" points="959.11,-722 827.11,-722 827.11,-430 959.11,-430 959.11,-722"/>
<text text-anchor="start" x="862.61" y="-709.8" font-family="Times New Roman,serif" font-size="14.00">state_1586</text>
<text text-anchor="start" x="860.61" y="-694.8" font-family="Times New Roman,serif" font-size="14.00">incoming: 3</text>
<text text-anchor="start" x="861.61" y="-679.8" font-family="Times New Roman,serif" font-size="14.00">outgoing: 2</text>
<text text-anchor="start" x="873.11" y="-664.8" font-family="Times New Roman,serif" font-size="14.00">loop: 0</text>
<image xlink:href="../States/1586.png" width="130px" height="230px" preserveAspectRatio="xMinYMin meet" x="828.11" y="-661"/>
<polygon fill="none" stroke="black" points="827.11,-430 827.11,-722 959.11,-722 959.11,-430 827.11,-430"/>
</a>
</g>
</g>
<!-- activitySmsTemplateActivity -->
<g id="node4" class="node"><title>activitySmsTemplateActivity</title>
<ellipse fill="none" stroke="teal" cx="893.11" cy="-361" rx="114.28" ry="18"/>
<text text-anchor="middle" x="893.11" y="-357.3" font-family="Times New Roman,serif" font-size="14.00" fill="teal">activitySmsTemplateActivity</text>
</g>
<!-- state_1586&#45;&gt;activitySmsTemplateActivity -->
<g id="edge10" class="edge"><title>state_1586&#45;&gt;activitySmsTemplateActivity</title>
<path fill="none" stroke="teal" d="M826.957,-509.649C799.954,-474.929 780.085,-432.264 804.11,-397 808.416,-390.68 814.054,-385.5 820.405,-381.257"/>
<polygon fill="teal" stroke="teal" points="822.542,-384.064 829.449,-376.03 819.04,-378.003 822.542,-384.064"/>
<text text-anchor="middle" x="878.61" y="-400.8" font-family="Times New Roman,serif" font-size="14.00" fill="teal"> &#160;&#160;click(&quot;index=1&quot;): 1537 &#160;&#160;</text>
</g>
<!-- state_1587 -->
<g id="node2" class="node"><title>state_1587</title>
<g id="a_node2"><a xlink:href="../States/1587.png" xlink:title="&lt;TABLE&gt;">
<polygon fill="none" stroke="black" points="959.11,-292 827.11,-292 827.11,-0 959.11,-0 959.11,-292"/>
<text text-anchor="start" x="862.61" y="-279.8" font-family="Times New Roman,serif" font-size="14.00">state_1587</text>
<text text-anchor="start" x="860.61" y="-264.8" font-family="Times New Roman,serif" font-size="14.00">incoming: 8</text>
<text text-anchor="start" x="861.61" y="-249.8" font-family="Times New Roman,serif" font-size="14.00">outgoing: 2</text>
<text text-anchor="start" x="873.11" y="-234.8" font-family="Times New Roman,serif" font-size="14.00">loop: 1</text>
<image xlink:href="../States/1587.png" width="130px" height="230px" preserveAspectRatio="xMinYMin meet" x="828.11" y="-231"/>
<polygon fill="none" stroke="black" points="827.11,-0 827.11,-292 959.11,-292 959.11,-0 827.11,-0"/>
</a>
</g>
</g>
<!-- state_1587&#45;&gt;state_1587 -->
<g id="edge12" class="edge"><title>state_1587&#45;&gt;state_1587</title>
<path fill="none" stroke="black" d="M959.311,-175.354C969.878,-171.058 977.11,-161.273 977.11,-146 977.11,-135.5 973.691,-127.593 968.121,-122.282"/>
<polygon fill="black" stroke="black" points="969.621,-119.086 959.311,-116.646 965.85,-124.983 969.621,-119.086"/>
<text text-anchor="middle" x="1062.11" y="-142.3" font-family="Times New Roman,serif" font-size="14.00">click(&quot;搜尋… index=0&quot;): 1535</text>
</g>
<!-- state_1587&#45;&gt;activitySmsTemplateActivity -->
<g id="edge11" class="edge"><title>state_1587&#45;&gt;activitySmsTemplateActivity</title>
<path fill="none" stroke="teal" d="M826.996,-153.378C641.865,-172.472 137.342,-233.574 224.11,-325 242.572,-344.454 581.841,-354.045 769.964,-357.886"/>
<polygon fill="teal" stroke="teal" points="770.122,-361.39 780.191,-358.092 770.264,-354.391 770.122,-361.39"/>
<text text-anchor="middle" x="402.11" y="-313.8" font-family="Times New Roman,serif" font-size="14.00" fill="teal"> &#160;&#160;click(&quot;index=1&quot;): 1546, 1552, 1554, 1569, 1576, 1594, 1597 &#160;&#160;</text>
</g>
<!-- activityMainActivity -->
<g id="node3" class="node"><title>activityMainActivity</title>
<ellipse fill="none" stroke="teal" cx="893.11" cy="-791" rx="83.3857" ry="18"/>
<text text-anchor="middle" x="893.11" y="-787.3" font-family="Times New Roman,serif" font-size="14.00" fill="teal">activityMainActivity</text>
</g>
<!-- activityMainActivity&#45;&gt;state_1586 -->
<g id="edge1" class="edge"><title>activityMainActivity&#45;&gt;state_1586</title>
<path fill="none" stroke="teal" d="M893.11,-772.929C893.11,-762.71 893.11,-748.615 893.11,-732.628"/>
<polygon fill="teal" stroke="teal" points="896.61,-732.447 893.11,-722.447 889.61,-732.447 896.61,-732.447"/>
<text text-anchor="middle" x="967.61" y="-743.8" font-family="Times New Roman,serif" font-size="14.00" fill="teal"> &#160;&#160;click(&quot;index=3&quot;): 1533 &#160;&#160;</text>
</g>
<!-- activitySmsTemplateActivity&#45;&gt;state_1586 -->
<g id="edge6" class="edge"><title>activitySmsTemplateActivity&#45;&gt;state_1586</title>
<path fill="none" stroke="teal" d="M936.912,-377.694C944.967,-382.614 952.331,-388.939 957.11,-397 960.51,-402.735 958.35,-405.45 957.11,-412 956.628,-414.548 956.106,-417.108 955.549,-419.675"/>
<polygon fill="teal" stroke="teal" points="952.096,-419.073 953.229,-429.607 958.912,-420.665 952.096,-419.073"/>
<text text-anchor="middle" x="1047.11" y="-400.8" font-family="Times New Roman,serif" font-size="14.00" fill="teal"> &#160;&#160;click(&quot;取消 index=1&quot;): 1544 &#160;&#160;</text>
</g>
<!-- activitySmsTemplateActivity&#45;&gt;state_1587 -->
<g id="edge2" class="edge"><title>activitySmsTemplateActivity&#45;&gt;state_1587</title>
<path fill="none" stroke="teal" d="M786.499,-354.415C705.594,-349.053 606.097,-339.59 593.11,-325 519.14,-241.898 705.816,-186.403 817.151,-161.687"/>
<polygon fill="teal" stroke="teal" points="817.993,-165.085 827.016,-159.533 816.5,-158.246 817.993,-165.085"/>
<text text-anchor="middle" x="682.11" y="-313.8" font-family="Times New Roman,serif" font-size="14.00" fill="teal"> &#160;&#160;click(&quot;取消 index=1&quot;): 1553 &#160;&#160;</text>
</g>
<!-- activitySmsTemplateActivity&#45;&gt;state_1587 -->
<g id="edge3" class="edge"><title>activitySmsTemplateActivity&#45;&gt;state_1587</title>
<path fill="none" stroke="teal" d="M821.441,-346.78C810.701,-341.693 800.951,-334.675 794.11,-325 769.056,-289.569 790.772,-247.203 820.175,-212.694"/>
<polygon fill="teal" stroke="teal" points="822.968,-214.818 826.961,-205.005 817.72,-210.186 822.968,-214.818"/>
<text text-anchor="middle" x="883.11" y="-313.8" font-family="Times New Roman,serif" font-size="14.00" fill="teal"> &#160;&#160;click(&quot;取消 index=1&quot;): 1551 &#160;&#160;</text>
</g>
<!-- activitySmsTemplateActivity&#45;&gt;state_1587 -->
<g id="edge4" class="edge"><title>activitySmsTemplateActivity&#45;&gt;state_1587</title>
<path fill="none" stroke="teal" d="M948.95,-345.145C958.123,-340.217 966.465,-333.676 972.11,-325 975.746,-319.412 973.602,-316.498 972.11,-310 969.686,-299.44 966.483,-288.77 962.756,-278.211"/>
<polygon fill="teal" stroke="teal" points="965.937,-276.722 959.192,-268.552 959.37,-279.145 965.937,-276.722"/>
<text text-anchor="middle" x="1063.11" y="-313.8" font-family="Times New Roman,serif" font-size="14.00" fill="teal"> &#160;&#160;click(&quot;取消 index=1&quot;): 1596 &#160;&#160;</text>
</g>
<!-- activitySmsTemplateActivity&#45;&gt;state_1587 -->
<g id="edge5" class="edge"><title>activitySmsTemplateActivity&#45;&gt;state_1587</title>
<path fill="none" stroke="teal" d="M1007.19,-359.28C1068.87,-356.198 1136.38,-347.524 1156.11,-325 1220.88,-251.04 1067.82,-193.753 968.965,-165.795"/>
<polygon fill="teal" stroke="teal" points="969.852,-162.409 959.28,-163.1 967.975,-169.152 969.852,-162.409"/>
<text text-anchor="middle" x="1254.11" y="-313.8" font-family="Times New Roman,serif" font-size="14.00" fill="teal"> &#160;&#160;click(&quot;取消 index=1&quot;): 1575 &#160;&#160;</text>
</g>
<!-- activitySmsTemplateActivity&#45;&gt;state_1587 -->
<g id="edge7" class="edge"><title>activitySmsTemplateActivity&#45;&gt;state_1587</title>
<path fill="none" stroke="teal" d="M1006.91,-359.112C1133.83,-356.911 1324.42,-349.508 1347.11,-325 1461.15,-201.829 1126.21,-162.676 969.354,-151.282"/>
<polygon fill="teal" stroke="teal" points="969.508,-147.784 959.286,-150.571 969.015,-154.767 969.508,-147.784"/>
<text text-anchor="middle" x="1443.11" y="-313.8" font-family="Times New Roman,serif" font-size="14.00" fill="teal"> &#160;&#160;click(&quot;取消 index=1&quot;): 1593 &#160;&#160;</text>
</g>
<!-- activitySmsTemplateActivity&#45;&gt;state_1587 -->
<g id="edge8" class="edge"><title>activitySmsTemplateActivity&#45;&gt;state_1587</title>
<path fill="none" stroke="teal" d="M1005.95,-357.838C1185.56,-353.837 1518.2,-343.911 1536.11,-325 1617.74,-238.806 1156.41,-176.524 969.279,-155.122"/>
<polygon fill="teal" stroke="teal" points="969.565,-151.632 959.234,-153.982 968.775,-158.587 969.565,-151.632"/>
<text text-anchor="middle" x="1633.11" y="-313.8" font-family="Times New Roman,serif" font-size="14.00" fill="teal"> &#160;&#160;click(&quot;取消 index=1&quot;): 1568 &#160;&#160;</text>
</g>
<!-- activitySmsTemplateActivity&#45;&gt;state_1587 -->
<g id="edge9" class="edge"><title>activitySmsTemplateActivity&#45;&gt;state_1587</title>
<path fill="none" stroke="teal" d="M779.028,-359.608C546.896,-358.247 39.2156,-352.165 13.1099,-325 -101.828,-205.4 582.616,-161.633 816.691,-150.274"/>
<polygon fill="teal" stroke="teal" points="817.006,-153.763 826.827,-149.789 816.671,-146.771 817.006,-153.763"/>
<text text-anchor="middle" x="102.11" y="-313.8" font-family="Times New Roman,serif" font-size="14.00" fill="teal"> &#160;&#160;click(&quot;取消 index=1&quot;): 1607 &#160;&#160;</text>
</g>
</g>
</svg>
