<?xml version="1.0" encoding="UTF-8" standalone="no"?>
<!DOCTYPE svg PUBLIC "-//W3C//DTD SVG 1.1//EN"
 "http://www.w3.org/Graphics/SVG/1.1/DTD/svg11.dtd">
<!-- Generated by graphviz version 2.38.0 (20140413.2041)
 -->
<!-- Title: activityExchangeRatesListActivity Pages: 1 -->
<svg width="437pt" height="387pt"
 viewBox="0.00 0.00 437.19 387.00" xmlns="http://www.w3.org/2000/svg" xmlns:xlink="http://www.w3.org/1999/xlink">
<g id="graph0" class="graph" transform="scale(1 1) rotate(0) translate(4 383)">
<title>activityExchangeRatesListActivity</title>
<polygon fill="white" stroke="none" points="-4,4 -4,-383 433.193,-383 433.193,4 -4,4"/>
<!-- state_1503 -->
<g id="node1" class="node"><title>state_1503</title>
<g id="a_node1"><a xlink:href="../States/1503.png" xlink:title="&lt;TABLE&gt;">
<polygon fill="none" stroke="black" points="256.193,-292 124.193,-292 124.193,-0 256.193,-0 256.193,-292"/>
<text text-anchor="start" x="159.693" y="-279.8" font-family="Times New Roman,serif" font-size="14.00">state_1503</text>
<text text-anchor="start" x="157.693" y="-264.8" font-family="Times New Roman,serif" font-size="14.00">incoming: 2</text>
<text text-anchor="start" x="158.693" y="-249.8" font-family="Times New Roman,serif" font-size="14.00">outgoing: 0</text>
<text text-anchor="start" x="170.193" y="-234.8" font-family="Times New Roman,serif" font-size="14.00">loop: 5</text>
<image xlink:href="../States/1503.png" width="130px" height="230px" preserveAspectRatio="xMinYMin meet" x="125.193" y="-231"/>
<polygon fill="none" stroke="black" points="124.193,-0 124.193,-292 256.193,-292 256.193,-0 124.193,-0"/>
</a>
</g>
</g>
<!-- state_1503&#45;&gt;state_1503 -->
<g id="edge3" class="edge"><title>state_1503&#45;&gt;state_1503</title>
<path fill="none" stroke="black" d="M256.394,-175.354C266.96,-171.058 274.193,-161.273 274.193,-146 274.193,-135.5 270.774,-127.593 265.204,-122.282"/>
<polygon fill="black" stroke="black" points="266.704,-119.086 256.394,-116.646 262.932,-124.983 266.704,-119.086"/>
<text text-anchor="middle" x="337.693" y="-172.3" font-family="Times New Roman,serif" font-size="14.00">click(&quot;index=0&quot;): 1453</text>
<text text-anchor="middle" x="337.693" y="-157.3" font-family="Times New Roman,serif" font-size="14.00">click(&quot;index=1&quot;): 1454</text>
<text text-anchor="middle" x="337.693" y="-142.3" font-family="Times New Roman,serif" font-size="14.00">click(&quot;index=2&quot;): 1455</text>
<text text-anchor="middle" x="337.693" y="-127.3" font-family="Times New Roman,serif" font-size="14.00">click(&quot;index=3&quot;): 1456</text>
<text text-anchor="middle" x="337.693" y="-112.3" font-family="Times New Roman,serif" font-size="14.00">click(&quot;index=4&quot;): 1457</text>
</g>
<!-- activityMainActivity -->
<g id="node2" class="node"><title>activityMainActivity</title>
<ellipse fill="none" stroke="teal" cx="83.1926" cy="-361" rx="83.3857" ry="18"/>
<text text-anchor="middle" x="83.1926" y="-357.3" font-family="Times New Roman,serif" font-size="14.00" fill="teal">activityMainActivity</text>
</g>
<!-- activityMainActivity&#45;&gt;state_1503 -->
<g id="edge1" class="edge"><title>activityMainActivity&#45;&gt;state_1503</title>
<path fill="none" stroke="teal" d="M91.768,-342.929C98.4367,-329.654 108.392,-309.837 119.447,-287.83"/>
<polygon fill="teal" stroke="teal" points="122.712,-289.127 124.073,-278.62 116.457,-285.985 122.712,-289.127"/>
<text text-anchor="middle" x="181.693" y="-313.8" font-family="Times New Roman,serif" font-size="14.00" fill="teal"> &#160;&#160;click(&quot;index=1&quot;): 1452 &#160;&#160;</text>
</g>
<!-- activityCurrencyListActivity -->
<g id="node3" class="node"><title>activityCurrencyListActivity</title>
<ellipse fill="none" stroke="teal" cx="297.193" cy="-361" rx="112.38" ry="18"/>
<text text-anchor="middle" x="297.193" y="-357.3" font-family="Times New Roman,serif" font-size="14.00" fill="teal">activityCurrencyListActivity</text>
</g>
<!-- activityCurrencyListActivity&#45;&gt;state_1503 -->
<g id="edge2" class="edge"><title>activityCurrencyListActivity&#45;&gt;state_1503</title>
<path fill="none" stroke="teal" d="M288.617,-342.929C281.949,-329.654 271.993,-309.837 260.938,-287.83"/>
<polygon fill="teal" stroke="teal" points="263.928,-285.985 256.312,-278.62 257.673,-289.127 263.928,-285.985"/>
<text text-anchor="middle" x="354.693" y="-313.8" font-family="Times New Roman,serif" font-size="14.00" fill="teal"> &#160;&#160;click(&quot;index=1&quot;): 3078 &#160;&#160;</text>
</g>
</g>
</svg>
