<?xml version="1.0" encoding="UTF-8" standalone="no"?>
<!DOCTYPE svg PUBLIC "-//W3C//DTD SVG 1.1//EN"
 "http://www.w3.org/Graphics/SVG/1.1/DTD/svg11.dtd">
<!-- Generated by graphviz version 2.38.0 (20140413.2041)
 -->
<!-- Title: activityAccountListTotalsDetailsActivity Pages: 1 -->
<svg width="1546pt" height="387pt"
 viewBox="0.00 0.00 1546.30 387.00" xmlns="http://www.w3.org/2000/svg" xmlns:xlink="http://www.w3.org/1999/xlink">
<g id="graph0" class="graph" transform="scale(1 1) rotate(0) translate(4 383)">
<title>activityAccountListTotalsDetailsActivity</title>
<polygon fill="white" stroke="none" points="-4,4 -4,-383 1542.3,-383 1542.3,4 -4,4"/>
<!-- state_39 -->
<g id="node1" class="node"><title>state_39</title>
<g id="a_node1"><a xlink:href="../States/39.png" xlink:title="&lt;TABLE&gt;">
<polygon fill="none" stroke="black" points="751.304,-379 619.304,-379 619.304,-87 751.304,-87 751.304,-379"/>
<text text-anchor="start" x="661.804" y="-366.8" font-family="Times New Roman,serif" font-size="14.00">state_39</text>
<text text-anchor="start" x="652.804" y="-351.8" font-family="Times New Roman,serif" font-size="14.00">incoming: 4</text>
<text text-anchor="start" x="653.804" y="-336.8" font-family="Times New Roman,serif" font-size="14.00">outgoing: 4</text>
<text text-anchor="start" x="665.304" y="-321.8" font-family="Times New Roman,serif" font-size="14.00">loop: 1</text>
<image xlink:href="../States/39.png" width="130px" height="230px" preserveAspectRatio="xMinYMin meet" x="620.304" y="-318"/>
<polygon fill="none" stroke="black" points="619.304,-87 619.304,-379 751.304,-379 751.304,-87 619.304,-87"/>
</a>
</g>
</g>
<!-- state_39&#45;&gt;state_39 -->
<g id="edge7" class="edge"><title>state_39&#45;&gt;state_39</title>
<path fill="none" stroke="black" d="M751.505,-262.354C762.071,-258.058 769.304,-248.273 769.304,-233 769.304,-222.5 765.885,-214.593 760.315,-209.282"/>
<polygon fill="black" stroke="black" points="761.815,-206.086 751.505,-203.646 758.043,-211.983 761.815,-206.086"/>
<text text-anchor="middle" x="825.804" y="-229.3" font-family="Times New Roman,serif" font-size="14.00">click(&quot;index=1&quot;): 38</text>
</g>
<!-- activityMainActivity -->
<g id="node2" class="node"><title>activityMainActivity</title>
<ellipse fill="none" stroke="teal" cx="491.304" cy="-18" rx="83.3857" ry="18"/>
<text text-anchor="middle" x="491.304" y="-14.3" font-family="Times New Roman,serif" font-size="14.00" fill="teal">activityMainActivity</text>
</g>
<!-- state_39&#45;&gt;activityMainActivity -->
<g id="edge3" class="edge"><title>state_39&#45;&gt;activityMainActivity</title>
<path fill="none" stroke="teal" d="M619.267,-226.379C463.367,-211.601 79.8033,-165.938 3.30364,-69 -0.826316,-63.7667 -1.23866,-58.8797 3.30364,-54 29.5491,-25.8048 263.625,-19.9938 397.82,-19.0013"/>
<polygon fill="teal" stroke="teal" points="398.123,-22.4995 408.1,-18.9333 398.077,-15.4997 398.123,-22.4995"/>
<text text-anchor="middle" x="85.8036" y="-57.8" font-family="Times New Roman,serif" font-size="14.00" fill="teal"> &#160;&#160;click(&quot;確定 index=0&quot;): 39 &#160;&#160;</text>
</g>
<!-- state_39&#45;&gt;activityMainActivity -->
<g id="edge4" class="edge"><title>state_39&#45;&gt;activityMainActivity</title>
<path fill="none" stroke="teal" d="M619.078,-219.983C496.555,-196.258 242.303,-139.532 191.304,-69 165.494,-33.305 300.756,-22.8995 398.099,-19.9811"/>
<polygon fill="teal" stroke="teal" points="398.384,-23.4746 408.283,-19.6986 398.189,-16.4773 398.384,-23.4746"/>
<text text-anchor="middle" x="280.304" y="-57.8" font-family="Times New Roman,serif" font-size="14.00" fill="teal"> &#160;&#160;click(&quot;確定 index=0&quot;): 1160 &#160;&#160;</text>
</g>
<!-- state_39&#45;&gt;activityMainActivity -->
<g id="edge5" class="edge"><title>state_39&#45;&gt;activityMainActivity</title>
<path fill="none" stroke="teal" d="M619.107,-216.79C547.819,-196.484 437.96,-152.896 388.304,-69 377.673,-51.0389 393.09,-39.4001 414.976,-31.9189"/>
<polygon fill="teal" stroke="teal" points="416.147,-35.2211 424.695,-28.9609 414.109,-28.5244 416.147,-35.2211"/>
<text text-anchor="middle" x="477.304" y="-57.8" font-family="Times New Roman,serif" font-size="14.00" fill="teal"> &#160;&#160;click(&quot;確定 index=0&quot;): 2013 &#160;&#160;</text>
</g>
<!-- activityBlotterActivity -->
<g id="node3" class="node"><title>activityBlotterActivity</title>
<ellipse fill="none" stroke="teal" cx="1278.3" cy="-18" rx="89.0842" ry="18"/>
<text text-anchor="middle" x="1278.3" y="-14.3" font-family="Times New Roman,serif" font-size="14.00" fill="teal">activityBlotterActivity</text>
</g>
<!-- state_39&#45;&gt;activityBlotterActivity -->
<g id="edge6" class="edge"><title>state_39&#45;&gt;activityBlotterActivity</title>
<path fill="none" stroke="teal" d="M751.578,-207.977C846.341,-173.659 1026.05,-108.7 1179.3,-54 1194.51,-48.5709 1211.05,-42.7077 1226.18,-37.3612"/>
<polygon fill="teal" stroke="teal" points="1227.63,-40.5628 1235.89,-33.9321 1225.29,-33.9624 1227.63,-40.5628"/>
<text text-anchor="middle" x="1268.3" y="-57.8" font-family="Times New Roman,serif" font-size="14.00" fill="teal"> &#160;&#160;click(&quot;確定 index=0&quot;): 3225 &#160;&#160;</text>
</g>
<!-- activityMainActivity&#45;&gt;state_39 -->
<g id="edge1" class="edge"><title>activityMainActivity&#45;&gt;state_39</title>
<path fill="none" stroke="teal" d="M535.75,-33.3561C547.797,-38.6083 560.268,-45.4241 570.304,-54 585.928,-67.3511 600.208,-83.3506 612.989,-100.207"/>
<polygon fill="teal" stroke="teal" points="610.387,-102.576 619.141,-108.543 616.019,-98.4189 610.387,-102.576"/>
<text text-anchor="middle" x="664.804" y="-57.8" font-family="Times New Roman,serif" font-size="14.00" fill="teal"> &#160;&#160;click(&quot;0.00 index=3&quot;): 37 &#160;&#160;</text>
</g>
<!-- activityMainActivity&#45;&gt;state_39 -->
<g id="edge2" class="edge"><title>activityMainActivity&#45;&gt;state_39</title>
<path fill="none" stroke="teal" d="M574.566,-18.8067C641.416,-20.6384 727.723,-28.1626 750.304,-54 770.327,-76.9114 767.398,-106.502 755.487,-134.955"/>
<polygon fill="teal" stroke="teal" points="752.263,-133.59 751.322,-144.143 758.638,-136.48 752.263,-133.59"/>
<text text-anchor="middle" x="847.804" y="-57.8" font-family="Times New Roman,serif" font-size="14.00" fill="teal"> &#160;&#160;click(&quot;0.00 index=6&quot;): 1159 &#160;&#160;</text>
</g>
<!-- activityMainActivity&#45;&gt;state_39 -->
<g id="edge8" class="edge"><title>activityMainActivity&#45;&gt;state_39</title>
<path fill="none" stroke="teal" d="M574.338,-19.5127C697.309,-21.1485 916.029,-27.7596 940.304,-54 1005.26,-124.215 858.18,-182.496 761.435,-211.732"/>
<polygon fill="teal" stroke="teal" points="760.243,-208.435 751.656,-214.641 762.239,-215.144 760.243,-208.435"/>
<text text-anchor="middle" x="1038.8" y="-57.8" font-family="Times New Roman,serif" font-size="14.00" fill="teal"> &#160;&#160;click(&quot;0.00 index=6&quot;): 2012 &#160;&#160;</text>
</g>
<!-- activityBlotterActivity&#45;&gt;state_39 -->
<g id="edge9" class="edge"><title>activityBlotterActivity&#45;&gt;state_39</title>
<path fill="none" stroke="teal" d="M1330.11,-32.7568C1351.89,-41.1514 1369.65,-53.3069 1357.3,-69 1283.82,-162.433 921.92,-208.851 761.776,-225.083"/>
<polygon fill="teal" stroke="teal" points="761.127,-221.631 751.525,-226.109 761.824,-228.596 761.127,-221.631"/>
<text text-anchor="middle" x="1449.8" y="-57.8" font-family="Times New Roman,serif" font-size="14.00" fill="teal"> &#160;&#160;click(&quot;0.00 index=6&quot;): 3224 &#160;&#160;</text>
</g>
</g>
</svg>
