<?xml version="1.0" encoding="UTF-8" standalone="no"?>
<!DOCTYPE svg PUBLIC "-//W3C//DTD SVG 1.1//EN"
 "http://www.w3.org/Graphics/SVG/1.1/DTD/svg11.dtd">
<!-- Generated by graphviz version 2.38.0 (20140413.2041)
 -->
<!-- Title: activityCategoryActivity Pages: 1 -->
<svg width="1282pt" height="1073pt"
 viewBox="0.00 0.00 1282.04 1073.00" xmlns="http://www.w3.org/2000/svg" xmlns:xlink="http://www.w3.org/1999/xlink">
<g id="graph0" class="graph" transform="scale(1 1) rotate(0) translate(4 1069)">
<title>activityCategoryActivity</title>
<polygon fill="white" stroke="none" points="-4,4 -4,-1069 1278.04,-1069 1278.04,4 -4,4"/>
<!-- state_1514 -->
<g id="node1" class="node"><title>state_1514</title>
<g id="a_node1"><a xlink:href="../States/1514.png" xlink:title="&lt;TABLE&gt;">
<polygon fill="none" stroke="black" points="653.039,-722 521.039,-722 521.039,-430 653.039,-430 653.039,-722"/>
<text text-anchor="start" x="556.539" y="-709.8" font-family="Times New Roman,serif" font-size="14.00">state_1514</text>
<text text-anchor="start" x="554.539" y="-694.8" font-family="Times New Roman,serif" font-size="14.00">incoming: 5</text>
<text text-anchor="start" x="555.539" y="-679.8" font-family="Times New Roman,serif" font-size="14.00">outgoing: 6</text>
<text text-anchor="start" x="567.039" y="-664.8" font-family="Times New Roman,serif" font-size="14.00">loop: 1</text>
<image xlink:href="../States/1514.png" width="130px" height="230px" preserveAspectRatio="xMinYMin meet" x="522.039" y="-661"/>
<polygon fill="none" stroke="black" points="521.039,-430 521.039,-722 653.039,-722 653.039,-430 521.039,-430"/>
</a>
</g>
</g>
<!-- state_1514&#45;&gt;state_1514 -->
<g id="edge8" class="edge"><title>state_1514&#45;&gt;state_1514</title>
<path fill="none" stroke="black" d="M653.24,-605.354C663.806,-601.058 671.039,-591.273 671.039,-576 671.039,-565.5 667.62,-557.593 662.05,-552.282"/>
<polygon fill="black" stroke="black" points="663.55,-549.086 653.24,-546.646 659.778,-554.983 663.55,-549.086"/>
<text text-anchor="middle" x="734.539" y="-572.3" font-family="Times New Roman,serif" font-size="14.00">click(&quot;index=1&quot;): 1469</text>
</g>
<!-- activityCategorySelectorActivity -->
<g id="node4" class="node"><title>activityCategorySelectorActivity</title>
<ellipse fill="none" stroke="teal" cx="128.039" cy="-361" rx="128.077" ry="18"/>
<text text-anchor="middle" x="128.039" y="-357.3" font-family="Times New Roman,serif" font-size="14.00" fill="teal">activityCategorySelectorActivity</text>
</g>
<!-- state_1514&#45;&gt;activityCategorySelectorActivity -->
<g id="edge4" class="edge"><title>state_1514&#45;&gt;activityCategorySelectorActivity</title>
<path fill="none" stroke="teal" d="M520.905,-565.109C388.963,-543.88 100.728,-489.509 43.0386,-412 33.2924,-398.905 42.5961,-388.629 58.1119,-380.888"/>
<polygon fill="teal" stroke="teal" points="59.548,-384.08 67.2894,-376.847 56.7269,-377.674 59.548,-384.08"/>
<text text-anchor="middle" x="117.539" y="-400.8" font-family="Times New Roman,serif" font-size="14.00" fill="teal"> &#160;&#160;click(&quot;index=0&quot;): 1463 &#160;&#160;</text>
</g>
<!-- activitySmsTemplateActivity -->
<g id="node6" class="node"><title>activitySmsTemplateActivity</title>
<ellipse fill="none" stroke="teal" cx="673.039" cy="-361" rx="114.28" ry="18"/>
<text text-anchor="middle" x="673.039" y="-357.3" font-family="Times New Roman,serif" font-size="14.00" fill="teal">activitySmsTemplateActivity</text>
</g>
<!-- state_1514&#45;&gt;activitySmsTemplateActivity -->
<g id="edge5" class="edge"><title>state_1514&#45;&gt;activitySmsTemplateActivity</title>
<path fill="none" stroke="teal" d="M520.849,-544.18C454.787,-509.344 369.326,-450.506 416.039,-397 433.988,-376.44 492.564,-367.503 549.267,-363.792"/>
<polygon fill="teal" stroke="teal" points="549.679,-367.274 559.451,-363.179 549.259,-360.287 549.679,-367.274"/>
<text text-anchor="middle" x="490.539" y="-400.8" font-family="Times New Roman,serif" font-size="14.00" fill="teal"> &#160;&#160;click(&quot;index=0&quot;): 1470 &#160;&#160;</text>
</g>
<!-- state_1514&#45;&gt;activitySmsTemplateActivity -->
<g id="edge6" class="edge"><title>state_1514&#45;&gt;activitySmsTemplateActivity</title>
<path fill="none" stroke="teal" d="M573.46,-429.68C576.598,-418.076 581.304,-406.995 588.039,-397 592.208,-390.813 597.688,-385.718 603.863,-381.523"/>
<polygon fill="teal" stroke="teal" points="605.817,-384.434 612.655,-376.342 602.263,-378.403 605.817,-384.434"/>
<text text-anchor="middle" x="662.539" y="-400.8" font-family="Times New Roman,serif" font-size="14.00" fill="teal"> &#160;&#160;click(&quot;index=2&quot;): 1511 &#160;&#160;</text>
</g>
<!-- activityAttributeActivity -->
<g id="node7" class="node"><title>activityAttributeActivity</title>
<ellipse fill="none" stroke="teal" cx="1161.04" cy="-361" rx="96.6831" ry="18"/>
<text text-anchor="middle" x="1161.04" y="-357.3" font-family="Times New Roman,serif" font-size="14.00" fill="teal">activityAttributeActivity</text>
</g>
<!-- state_1514&#45;&gt;activityAttributeActivity -->
<g id="edge7" class="edge"><title>state_1514&#45;&gt;activityAttributeActivity</title>
<path fill="none" stroke="teal" d="M653.208,-563.513C755.344,-543.788 955.251,-497.139 1105.04,-412 1117.2,-405.088 1129,-395.185 1138.62,-386.013"/>
<polygon fill="teal" stroke="teal" points="1141.17,-388.407 1145.82,-378.885 1136.25,-383.432 1141.17,-388.407"/>
<text text-anchor="middle" x="1199.54" y="-400.8" font-family="Times New Roman,serif" font-size="14.00" fill="teal"> &#160;&#160;click(&quot;index=2&quot;): 3164 &#160;&#160;</text>
</g>
<!-- state_1517 -->
<g id="node2" class="node"><title>state_1517</title>
<g id="a_node2"><a xlink:href="../States/1517.png" xlink:title="&lt;TABLE&gt;">
<polygon fill="none" stroke="black" points="194.039,-292 62.0386,-292 62.0386,-0 194.039,-0 194.039,-292"/>
<text text-anchor="start" x="97.5386" y="-279.8" font-family="Times New Roman,serif" font-size="14.00">state_1517</text>
<text text-anchor="start" x="95.5386" y="-264.8" font-family="Times New Roman,serif" font-size="14.00">incoming: 2</text>
<text text-anchor="start" x="96.5386" y="-249.8" font-family="Times New Roman,serif" font-size="14.00">outgoing: 2</text>
<text text-anchor="start" x="108.039" y="-234.8" font-family="Times New Roman,serif" font-size="14.00">loop: 0</text>
<image xlink:href="../States/1517.png" width="130px" height="230px" preserveAspectRatio="xMinYMin meet" x="63.0386" y="-231"/>
<polygon fill="none" stroke="black" points="62.0386,-0 62.0386,-292 194.039,-292 194.039,-0 62.0386,-0"/>
</a>
</g>
</g>
<!-- state_1517&#45;&gt;activityCategorySelectorActivity -->
<g id="edge9" class="edge"><title>state_1517&#45;&gt;activityCategorySelectorActivity</title>
<path fill="none" stroke="teal" d="M194.121,-268.552C199.378,-282.227 203.872,-296.208 207.039,-310 208.53,-316.498 210.675,-319.412 207.039,-325 203.441,-330.528 198.749,-335.19 193.445,-339.12"/>
<polygon fill="teal" stroke="teal" points="191.224,-336.385 184.674,-344.712 194.987,-342.287 191.224,-336.385"/>
<text text-anchor="middle" x="284.539" y="-313.8" font-family="Times New Roman,serif" font-size="14.00" fill="teal"> &#160;&#160;click(&quot;index=0&quot;): 1466 &#160;&#160;</text>
</g>
<!-- state_1581 -->
<g id="node3" class="node"><title>state_1581</title>
<g id="a_node3"><a xlink:href="../States/1581.png" xlink:title="&lt;TABLE&gt;">
<polygon fill="none" stroke="black" points="853.039,-1065 721.039,-1065 721.039,-773 853.039,-773 853.039,-1065"/>
<text text-anchor="start" x="756.539" y="-1052.8" font-family="Times New Roman,serif" font-size="14.00">state_1581</text>
<text text-anchor="start" x="754.539" y="-1037.8" font-family="Times New Roman,serif" font-size="14.00">incoming: 1</text>
<text text-anchor="start" x="755.539" y="-1022.8" font-family="Times New Roman,serif" font-size="14.00">outgoing: 0</text>
<text text-anchor="start" x="767.039" y="-1007.8" font-family="Times New Roman,serif" font-size="14.00">loop: 0</text>
<image xlink:href="../States/1581.png" width="130px" height="230px" preserveAspectRatio="xMinYMin meet" x="722.039" y="-1004"/>
<polygon fill="none" stroke="black" points="721.039,-773 721.039,-1065 853.039,-1065 853.039,-773 721.039,-773"/>
</a>
</g>
</g>
<!-- activityCategorySelectorActivity&#45;&gt;state_1514 -->
<g id="edge1" class="edge"><title>activityCategorySelectorActivity&#45;&gt;state_1514</title>
<path fill="none" stroke="teal" d="M159.281,-378.636C178.189,-388.571 202.856,-401.298 225.039,-412 323.116,-459.318 438.015,-510.315 511.617,-542.427"/>
<polygon fill="teal" stroke="teal" points="510.264,-545.655 520.829,-546.442 513.06,-539.238 510.264,-545.655"/>
<text text-anchor="middle" x="314.039" y="-400.8" font-family="Times New Roman,serif" font-size="14.00" fill="teal"> &#160;&#160;click(&quot;選取 index=1&quot;): 1464 &#160;&#160;</text>
</g>
<!-- activityCategorySelectorActivity&#45;&gt;state_1517 -->
<g id="edge2" class="edge"><title>activityCategorySelectorActivity&#45;&gt;state_1517</title>
<path fill="none" stroke="teal" d="M54.889,-346.064C44.7359,-341.04 35.5643,-334.228 29.0386,-325 3.98457,-289.569 25.7006,-247.203 55.1037,-212.694"/>
<polygon fill="teal" stroke="teal" points="57.8967,-214.818 61.89,-205.005 52.6485,-210.186 57.8967,-214.818"/>
<text text-anchor="middle" x="118.039" y="-313.8" font-family="Times New Roman,serif" font-size="14.00" fill="teal"> &#160;&#160;click(&quot;選取 index=1&quot;): 1467 &#160;&#160;</text>
</g>
<!-- activityCategoryListActivity2 -->
<g id="node5" class="node"><title>activityCategoryListActivity2</title>
<ellipse fill="none" stroke="teal" cx="587.039" cy="-919" rx="116.18" ry="18"/>
<text text-anchor="middle" x="587.039" y="-915.3" font-family="Times New Roman,serif" font-size="14.00" fill="teal">activityCategoryListActivity2</text>
</g>
<!-- activityCategoryListActivity2&#45;&gt;state_1514 -->
<g id="edge3" class="edge"><title>activityCategoryListActivity2&#45;&gt;state_1514</title>
<path fill="none" stroke="teal" d="M587.039,-900.621C587.039,-868.993 587.039,-799.114 587.039,-732.356"/>
<polygon fill="teal" stroke="teal" points="590.539,-732.105 587.039,-722.105 583.539,-732.105 590.539,-732.105"/>
<text text-anchor="middle" x="679.039" y="-743.8" font-family="Times New Roman,serif" font-size="14.00" fill="teal"> &#160;&#160;click(&quot;index=0&quot;): 1462, 3163 &#160;&#160;</text>
</g>
<!-- activitySmsTemplateActivity&#45;&gt;state_1514 -->
<g id="edge10" class="edge"><title>activitySmsTemplateActivity&#45;&gt;state_1514</title>
<path fill="none" stroke="teal" d="M716.84,-377.694C724.895,-382.614 732.259,-388.939 737.039,-397 740.439,-402.735 739.461,-405.789 737.039,-412 721.319,-452.295 690.46,-488.645 660.798,-516.74"/>
<polygon fill="teal" stroke="teal" points="658.244,-514.335 653.293,-523.702 663.004,-519.467 658.244,-514.335"/>
<text text-anchor="middle" x="828.039" y="-400.8" font-family="Times New Roman,serif" font-size="14.00" fill="teal"> &#160;&#160;click(&quot;取消 index=1&quot;): 1510 &#160;&#160;</text>
</g>
<!-- activitySmsTemplateActivity&#45;&gt;state_1514 -->
<g id="edge11" class="edge"><title>activitySmsTemplateActivity&#45;&gt;state_1514</title>
<path fill="none" stroke="teal" d="M786.046,-363.912C842.714,-367.519 903.073,-376.32 921.039,-397 925.411,-402.033 924.571,-406.346 921.039,-412 864.897,-501.869 743.334,-543.514 663.391,-561.824"/>
<polygon fill="teal" stroke="teal" points="662.374,-558.464 653.37,-564.047 663.891,-565.298 662.374,-558.464"/>
<text text-anchor="middle" x="1012.04" y="-400.8" font-family="Times New Roman,serif" font-size="14.00" fill="teal"> &#160;&#160;click(&quot;取消 index=1&quot;): 1528 &#160;&#160;</text>
</g>
</g>
</svg>
