<?xml version="1.0" encoding="UTF-8" standalone="no"?>
<!DOCTYPE svg PUBLIC "-//W3C//DTD SVG 1.1//EN"
 "http://www.w3.org/Graphics/SVG/1.1/DTD/svg11.dtd">
<!-- Generated by graphviz version 2.38.0 (20140413.2041)
 -->
<!-- Title: activityTemplatesListActivity Pages: 1 -->
<svg width="715pt" height="790pt"
 viewBox="0.00 0.00 715.38 790.00" xmlns="http://www.w3.org/2000/svg" xmlns:xlink="http://www.w3.org/1999/xlink">
<g id="graph0" class="graph" transform="scale(1 1) rotate(0) translate(4 786)">
<title>activityTemplatesListActivity</title>
<polygon fill="white" stroke="none" points="-4,4 -4,-786 711.379,-786 711.379,4 -4,4"/>
<!-- state_116 -->
<g id="node1" class="node"><title>state_116</title>
<g id="a_node1"><a xlink:href="../States/116Equivalent.svg" xlink:title="&lt;TABLE&gt;">
<polygon fill="none" stroke="peru" points="348.379,-409 196.379,-409 196.379,-87 348.379,-87 348.379,-409"/>
<text text-anchor="start" x="245.379" y="-396.8" font-family="Times New Roman,serif" font-size="14.00">state_116</text>
<text text-anchor="start" x="239.879" y="-381.8" font-family="Times New Roman,serif" font-size="14.00">incoming: 3</text>
<text text-anchor="start" x="240.879" y="-366.8" font-family="Times New Roman,serif" font-size="14.00">outgoing: 3</text>
<text text-anchor="start" x="252.379" y="-351.8" font-family="Times New Roman,serif" font-size="14.00">loop: 2</text>
<text text-anchor="start" x="227.379" y="-336.8" font-family="Times New Roman,serif" font-size="14.00">Equivalent State</text>
<text text-anchor="start" x="205.379" y="-321.8" font-family="Times New Roman,serif" font-size="14.00">EquivalentStateCount: 2</text>
<image xlink:href="../States/116.png" width="150px" height="230px" preserveAspectRatio="xMinYMin meet" x="197.379" y="-318"/>
<polygon fill="none" stroke="peru" points="196.379,-87 196.379,-409 348.379,-409 348.379,-87 196.379,-87"/>
</a>
</g>
</g>
<!-- state_116&#45;&gt;state_116 -->
<g id="edge4" class="edge"><title>state_116&#45;&gt;state_116</title>
<path fill="none" stroke="DodgerBlue" d="M348.726,-279.12C359.307,-273.994 366.379,-263.621 366.379,-248 366.379,-237.016 362.882,-228.627 357.129,-222.832"/>
<polygon fill="DodgerBlue" stroke="DodgerBlue" points="358.909,-219.805 348.726,-216.88 354.863,-225.517 358.909,-219.805"/>
<text text-anchor="middle" x="429.879" y="-251.8" font-family="Times New Roman,serif" font-size="14.00" fill="DodgerBlue">click(&quot;index=0&quot;): 2106</text>
<text text-anchor="middle" x="429.879" y="-236.8" font-family="Times New Roman,serif" font-size="14.00" fill="DodgerBlue">click(&quot;index=1&quot;): 3251</text>
</g>
<!-- activityTransactionActivity -->
<g id="node4" class="node"><title>activityTransactionActivity</title>
<ellipse fill="none" stroke="teal" cx="162.379" cy="-18" rx="107.781" ry="18"/>
<text text-anchor="middle" x="162.379" y="-14.3" font-family="Times New Roman,serif" font-size="14.00" fill="teal">activityTransactionActivity</text>
</g>
<!-- state_116&#45;&gt;activityTransactionActivity -->
<g id="edge2" class="edge"><title>state_116&#45;&gt;activityTransactionActivity</title>
<path fill="none" stroke="teal" d="M196.28,-89.2679C188.2,-72.5201 180.836,-57.2565 175.051,-45.266"/>
<polygon fill="teal" stroke="teal" points="178.08,-43.4888 170.582,-36.0031 171.775,-46.5305 178.08,-43.4888"/>
<text text-anchor="middle" x="257.379" y="-57.8" font-family="Times New Roman,serif" font-size="14.00" fill="teal"> &#160;&#160;click(&quot;index=0&quot;): 113 &#160;&#160;</text>
</g>
<!-- activityTransferActivity -->
<g id="node5" class="node"><title>activityTransferActivity</title>
<ellipse fill="none" stroke="teal" cx="383.379" cy="-18" rx="95.5831" ry="18"/>
<text text-anchor="middle" x="383.379" y="-14.3" font-family="Times New Roman,serif" font-size="14.00" fill="teal">activityTransferActivity</text>
</g>
<!-- state_116&#45;&gt;activityTransferActivity -->
<g id="edge3" class="edge"><title>state_116&#45;&gt;activityTransferActivity</title>
<path fill="none" stroke="teal" d="M348.41,-90.8277C356.859,-73.4732 364.569,-57.6366 370.586,-45.2764"/>
<polygon fill="teal" stroke="teal" points="373.801,-46.6697 375.031,-36.1465 367.507,-43.6056 373.801,-46.6697"/>
<text text-anchor="middle" x="438.879" y="-57.8" font-family="Times New Roman,serif" font-size="14.00" fill="teal"> &#160;&#160;click(&quot;index=1&quot;): 1271 &#160;&#160;</text>
</g>
<!-- state_1854 -->
<g id="node2" class="node"><title>state_1854</title>
<g id="a_node2"><a xlink:href="../States/1854Equivalent.svg" xlink:title="&lt;TABLE&gt;">
<polygon fill="none" stroke="peru" points="562.379,-782 410.379,-782 410.379,-460 562.379,-460 562.379,-782"/>
<text text-anchor="start" x="455.879" y="-769.8" font-family="Times New Roman,serif" font-size="14.00">state_1854</text>
<text text-anchor="start" x="453.879" y="-754.8" font-family="Times New Roman,serif" font-size="14.00">incoming: 1</text>
<text text-anchor="start" x="454.879" y="-739.8" font-family="Times New Roman,serif" font-size="14.00">outgoing: 0</text>
<text text-anchor="start" x="466.379" y="-724.8" font-family="Times New Roman,serif" font-size="14.00">loop: 2</text>
<text text-anchor="start" x="441.379" y="-709.8" font-family="Times New Roman,serif" font-size="14.00">Equivalent State</text>
<text text-anchor="start" x="419.379" y="-694.8" font-family="Times New Roman,serif" font-size="14.00">EquivalentStateCount: 1</text>
<image xlink:href="../States/1854.png" width="150px" height="230px" preserveAspectRatio="xMinYMin meet" x="411.379" y="-691"/>
<polygon fill="none" stroke="peru" points="410.379,-460 410.379,-782 562.379,-782 562.379,-460 410.379,-460"/>
</a>
</g>
</g>
<!-- state_1854&#45;&gt;state_1854 -->
<g id="edge6" class="edge"><title>state_1854&#45;&gt;state_1854</title>
<path fill="none" stroke="black" d="M562.726,-652.12C573.307,-646.994 580.379,-636.621 580.379,-621 580.379,-610.016 576.882,-601.627 571.129,-595.832"/>
<polygon fill="black" stroke="black" points="572.909,-592.805 562.726,-589.88 568.863,-598.517 572.909,-592.805"/>
<text text-anchor="middle" x="643.879" y="-624.8" font-family="Times New Roman,serif" font-size="14.00">click(&quot;index=0&quot;): 1796</text>
<text text-anchor="middle" x="643.879" y="-609.8" font-family="Times New Roman,serif" font-size="14.00">click(&quot;index=0&quot;): 1797</text>
</g>
<!-- activitySelectTemplateActivity -->
<g id="node3" class="node"><title>activitySelectTemplateActivity</title>
<ellipse fill="none" stroke="teal" cx="272.379" cy="-621" rx="120.479" ry="18"/>
<text text-anchor="middle" x="272.379" y="-617.3" font-family="Times New Roman,serif" font-size="14.00" fill="teal">activitySelectTemplateActivity</text>
</g>
<!-- activitySelectTemplateActivity&#45;&gt;state_116 -->
<g id="edge1" class="edge"><title>activitySelectTemplateActivity&#45;&gt;state_116</title>
<path fill="none" stroke="teal" d="M226.034,-604.337C163.644,-580.441 55.1902,-528.323 9.37886,-442 -35.494,-357.446 93.5281,-300.413 186.384,-271.418"/>
<polygon fill="teal" stroke="teal" points="187.56,-274.718 196.098,-268.445 185.511,-268.025 187.56,-274.718"/>
<text text-anchor="middle" x="129.879" y="-430.8" font-family="Times New Roman,serif" font-size="14.00" fill="teal"> &#160;&#160;click(&quot;編輯 index=0&quot;): 112, 1794, 3250 &#160;&#160;</text>
</g>
<!-- activitySelectTemplateActivity&#45;&gt;state_116 -->
<g id="edge5" class="edge"><title>activitySelectTemplateActivity&#45;&gt;state_116</title>
<path fill="none" stroke="teal" d="M272.379,-602.604C272.379,-569.15 272.379,-492.657 272.379,-419.343"/>
<polygon fill="teal" stroke="teal" points="275.879,-419.024 272.379,-409.024 268.879,-419.024 275.879,-419.024"/>
<text text-anchor="middle" x="361.379" y="-430.8" font-family="Times New Roman,serif" font-size="14.00" fill="teal"> &#160;&#160;click(&quot;編輯 index=0&quot;): 1270 &#160;&#160;</text>
</g>
<!-- activitySelectTemplateActivity&#45;&gt;state_116 -->
<g id="edge7" class="edge"><title>activitySelectTemplateActivity&#45;&gt;state_116</title>
<path fill="none" stroke="teal" d="M281.78,-602.958C300.451,-570.604 345.287,-499.952 401.379,-460 420.616,-446.298 437.798,-461.323 451.379,-442 455.212,-436.546 453.939,-433.156 451.379,-427 431.74,-379.776 392.81,-338.617 356.256,-307.808"/>
<polygon fill="teal" stroke="teal" points="358.436,-305.069 348.5,-301.392 353.975,-310.463 358.436,-305.069"/>
<text text-anchor="middle" x="542.379" y="-430.8" font-family="Times New Roman,serif" font-size="14.00" fill="teal"> &#160;&#160;click(&quot;編輯 index=0&quot;): 2105 &#160;&#160;</text>
</g>
</g>
</svg>
