<?xml version="1.0" encoding="UTF-8" standalone="no"?>
<!DOCTYPE svg PUBLIC "-//W3C//DTD SVG 1.1//EN"
 "http://www.w3.org/Graphics/SVG/1.1/DTD/svg11.dtd">
<!-- Generated by graphviz version 2.38.0 (20140413.2041)
 -->
<!-- Title: activityTransferActivity Pages: 1 -->
<svg width="1805pt" height="1073pt"
 viewBox="0.00 0.00 1805.34 1073.00" xmlns="http://www.w3.org/2000/svg" xmlns:xlink="http://www.w3.org/1999/xlink">
<g id="graph0" class="graph" transform="scale(1 1) rotate(0) translate(4 1069)">
<title>activityTransferActivity</title>
<polygon fill="white" stroke="none" points="-4,4 -4,-1069 1801.34,-1069 1801.34,4 -4,4"/>
<!-- state_91 -->
<g id="node1" class="node"><title>state_91</title>
<g id="a_node1"><a xlink:href="../States/91.png" xlink:title="&lt;TABLE&gt;">
<polygon fill="none" stroke="black" points="590.34,-722 458.34,-722 458.34,-430 590.34,-430 590.34,-722"/>
<text text-anchor="start" x="500.84" y="-709.8" font-family="Times New Roman,serif" font-size="14.00">state_91</text>
<text text-anchor="start" x="491.84" y="-694.8" font-family="Times New Roman,serif" font-size="14.00">incoming: 4</text>
<text text-anchor="start" x="492.84" y="-679.8" font-family="Times New Roman,serif" font-size="14.00">outgoing: 4</text>
<text text-anchor="start" x="504.34" y="-664.8" font-family="Times New Roman,serif" font-size="14.00">loop: 0</text>
<image xlink:href="../States/91.png" width="130px" height="230px" preserveAspectRatio="xMinYMin meet" x="459.34" y="-661"/>
<polygon fill="none" stroke="black" points="458.34,-430 458.34,-722 590.34,-722 590.34,-430 458.34,-430"/>
</a>
</g>
</g>
<!-- activityTransactionActivity -->
<g id="node10" class="node"><title>activityTransactionActivity</title>
<ellipse fill="none" stroke="teal" cx="524.34" cy="-361" rx="107.781" ry="18"/>
<text text-anchor="middle" x="524.34" y="-357.3" font-family="Times New Roman,serif" font-size="14.00" fill="teal">activityTransactionActivity</text>
</g>
<!-- state_91&#45;&gt;activityTransactionActivity -->
<g id="edge5" class="edge"><title>state_91&#45;&gt;activityTransactionActivity</title>
<path fill="none" stroke="teal" d="M458.309,-569.322C318.704,-554.983 14.6021,-510.065 118.34,-397 128.274,-386.173 296.347,-374.656 413.094,-367.906"/>
<polygon fill="teal" stroke="teal" points="413.383,-371.395 423.166,-367.328 412.982,-364.407 413.383,-371.395"/>
<text text-anchor="middle" x="186.34" y="-400.8" font-family="Times New Roman,serif" font-size="14.00" fill="teal"> &#160;&#160;click(&quot;index=0&quot;): 89 &#160;&#160;</text>
</g>
<!-- state_91&#45;&gt;activityTransactionActivity -->
<g id="edge6" class="edge"><title>state_91&#45;&gt;activityTransactionActivity</title>
<path fill="none" stroke="teal" d="M458.163,-557.071C365.303,-528.798 214.355,-469.539 277.34,-397 294.749,-376.95 352.147,-368.077 407.233,-364.275"/>
<polygon fill="teal" stroke="teal" points="407.725,-367.75 417.482,-363.622 407.28,-360.765 407.725,-367.75"/>
<text text-anchor="middle" x="389.84" y="-400.8" font-family="Times New Roman,serif" font-size="14.00" fill="teal"> &#160;&#160;click(&quot;2020年6月16日 index=1&quot;): 91 &#160;&#160;</text>
</g>
<!-- state_91&#45;&gt;activityTransactionActivity -->
<g id="edge7" class="edge"><title>state_91&#45;&gt;activityTransactionActivity</title>
<path fill="none" stroke="teal" d="M521.53,-429.698C521.457,-423.72 521.393,-417.802 521.34,-412 521.278,-405.334 521.055,-403.661 521.34,-397 521.449,-394.441 521.603,-391.779 521.785,-389.118"/>
<polygon fill="teal" stroke="teal" points="525.28,-389.317 522.582,-379.071 518.302,-388.763 525.28,-389.317"/>
<text text-anchor="middle" x="592.34" y="-400.8" font-family="Times New Roman,serif" font-size="14.00" fill="teal"> &#160;&#160;click(&quot;index=1&quot;): 106 &#160;&#160;</text>
</g>
<!-- state_97 -->
<g id="node2" class="node"><title>state_97</title>
<g id="a_node2"><a xlink:href="../States/97.png" xlink:title="&lt;TABLE&gt;">
<polygon fill="none" stroke="black" points="757.34,-1065 625.34,-1065 625.34,-773 757.34,-773 757.34,-1065"/>
<text text-anchor="start" x="667.84" y="-1052.8" font-family="Times New Roman,serif" font-size="14.00">state_97</text>
<text text-anchor="start" x="658.84" y="-1037.8" font-family="Times New Roman,serif" font-size="14.00">incoming: 3</text>
<text text-anchor="start" x="659.84" y="-1022.8" font-family="Times New Roman,serif" font-size="14.00">outgoing: 3</text>
<text text-anchor="start" x="671.34" y="-1007.8" font-family="Times New Roman,serif" font-size="14.00">loop: 1</text>
<image xlink:href="../States/97.png" width="130px" height="230px" preserveAspectRatio="xMinYMin meet" x="626.34" y="-1004"/>
<polygon fill="none" stroke="black" points="625.34,-773 625.34,-1065 757.34,-1065 757.34,-773 625.34,-773"/>
</a>
</g>
</g>
<!-- state_97&#45;&gt;state_97 -->
<g id="edge8" class="edge"><title>state_97&#45;&gt;state_97</title>
<path fill="none" stroke="black" d="M757.541,-948.354C768.107,-944.058 775.34,-934.273 775.34,-919 775.34,-908.5 771.921,-900.593 766.351,-895.282"/>
<polygon fill="black" stroke="black" points="767.851,-892.086 757.541,-889.646 764.079,-897.983 767.851,-892.086"/>
<text text-anchor="middle" x="837.34" y="-915.3" font-family="Times New Roman,serif" font-size="14.00">click(&quot;4 index=0&quot;): 95</text>
</g>
<!-- state_99 -->
<g id="node3" class="node"><title>state_99</title>
<g id="a_node3"><a xlink:href="../States/99.png" xlink:title="&lt;TABLE&gt;">
<polygon fill="none" stroke="black" points="1049.34,-1065 917.34,-1065 917.34,-773 1049.34,-773 1049.34,-1065"/>
<text text-anchor="start" x="959.84" y="-1052.8" font-family="Times New Roman,serif" font-size="14.00">state_99</text>
<text text-anchor="start" x="950.84" y="-1037.8" font-family="Times New Roman,serif" font-size="14.00">incoming: 1</text>
<text text-anchor="start" x="951.84" y="-1022.8" font-family="Times New Roman,serif" font-size="14.00">outgoing: 1</text>
<text text-anchor="start" x="963.34" y="-1007.8" font-family="Times New Roman,serif" font-size="14.00">loop: 0</text>
<image xlink:href="../States/99.png" width="130px" height="230px" preserveAspectRatio="xMinYMin meet" x="918.34" y="-1004"/>
<polygon fill="none" stroke="black" points="917.34,-773 917.34,-1065 1049.34,-1065 1049.34,-773 917.34,-773"/>
</a>
</g>
</g>
<!-- state_101 -->
<g id="node4" class="node"><title>state_101</title>
<g id="a_node4"><a xlink:href="../States/101.png" xlink:title="&lt;TABLE&gt;">
<polygon fill="none" stroke="black" points="1199.34,-1065 1067.34,-1065 1067.34,-773 1199.34,-773 1199.34,-1065"/>
<text text-anchor="start" x="1106.34" y="-1052.8" font-family="Times New Roman,serif" font-size="14.00">state_101</text>
<text text-anchor="start" x="1100.84" y="-1037.8" font-family="Times New Roman,serif" font-size="14.00">incoming: 1</text>
<text text-anchor="start" x="1101.84" y="-1022.8" font-family="Times New Roman,serif" font-size="14.00">outgoing: 1</text>
<text text-anchor="start" x="1113.34" y="-1007.8" font-family="Times New Roman,serif" font-size="14.00">loop: 0</text>
<image xlink:href="../States/101.png" width="130px" height="230px" preserveAspectRatio="xMinYMin meet" x="1068.34" y="-1004"/>
<polygon fill="none" stroke="black" points="1067.34,-773 1067.34,-1065 1199.34,-1065 1199.34,-773 1067.34,-773"/>
</a>
</g>
</g>
<!-- state_102 -->
<g id="node5" class="node"><title>state_102</title>
<g id="a_node5"><a xlink:href="../States/102.png" xlink:title="&lt;TABLE&gt;">
<polygon fill="none" stroke="black" points="1349.34,-1065 1217.34,-1065 1217.34,-773 1349.34,-773 1349.34,-1065"/>
<text text-anchor="start" x="1256.34" y="-1052.8" font-family="Times New Roman,serif" font-size="14.00">state_102</text>
<text text-anchor="start" x="1250.84" y="-1037.8" font-family="Times New Roman,serif" font-size="14.00">incoming: 2</text>
<text text-anchor="start" x="1251.84" y="-1022.8" font-family="Times New Roman,serif" font-size="14.00">outgoing: 2</text>
<text text-anchor="start" x="1263.34" y="-1007.8" font-family="Times New Roman,serif" font-size="14.00">loop: 1</text>
<image xlink:href="../States/102.png" width="130px" height="230px" preserveAspectRatio="xMinYMin meet" x="1218.34" y="-1004"/>
<polygon fill="none" stroke="black" points="1217.34,-773 1217.34,-1065 1349.34,-1065 1349.34,-773 1217.34,-773"/>
</a>
</g>
</g>
<!-- state_102&#45;&gt;state_102 -->
<g id="edge9" class="edge"><title>state_102&#45;&gt;state_102</title>
<path fill="none" stroke="black" d="M1349.54,-948.354C1360.11,-944.058 1367.34,-934.273 1367.34,-919 1367.34,-908.5 1363.92,-900.593 1358.35,-895.282"/>
<polygon fill="black" stroke="black" points="1359.85,-892.086 1349.54,-889.646 1356.08,-897.983 1359.85,-892.086"/>
<text text-anchor="middle" x="1432.34" y="-915.3" font-family="Times New Roman,serif" font-size="14.00">click(&quot;4 index=0&quot;): 100</text>
</g>
<!-- state_104 -->
<g id="node6" class="node"><title>state_104</title>
<g id="a_node6"><a xlink:href="../States/104.png" xlink:title="&lt;TABLE&gt;">
<polygon fill="none" stroke="black" points="1647.34,-1065 1515.34,-1065 1515.34,-773 1647.34,-773 1647.34,-1065"/>
<text text-anchor="start" x="1554.34" y="-1052.8" font-family="Times New Roman,serif" font-size="14.00">state_104</text>
<text text-anchor="start" x="1548.84" y="-1037.8" font-family="Times New Roman,serif" font-size="14.00">incoming: 1</text>
<text text-anchor="start" x="1549.84" y="-1022.8" font-family="Times New Roman,serif" font-size="14.00">outgoing: 1</text>
<text text-anchor="start" x="1561.34" y="-1007.8" font-family="Times New Roman,serif" font-size="14.00">loop: 0</text>
<image xlink:href="../States/104.png" width="130px" height="230px" preserveAspectRatio="xMinYMin meet" x="1516.34" y="-1004"/>
<polygon fill="none" stroke="black" points="1515.34,-773 1515.34,-1065 1647.34,-1065 1647.34,-773 1515.34,-773"/>
</a>
</g>
</g>
<!-- state_106 -->
<g id="node7" class="node"><title>state_106</title>
<g id="a_node7"><a xlink:href="../States/106.png" xlink:title="&lt;TABLE&gt;">
<polygon fill="none" stroke="black" points="1797.34,-1065 1665.34,-1065 1665.34,-773 1797.34,-773 1797.34,-1065"/>
<text text-anchor="start" x="1704.34" y="-1052.8" font-family="Times New Roman,serif" font-size="14.00">state_106</text>
<text text-anchor="start" x="1698.84" y="-1037.8" font-family="Times New Roman,serif" font-size="14.00">incoming: 1</text>
<text text-anchor="start" x="1699.84" y="-1022.8" font-family="Times New Roman,serif" font-size="14.00">outgoing: 1</text>
<text text-anchor="start" x="1711.34" y="-1007.8" font-family="Times New Roman,serif" font-size="14.00">loop: 0</text>
<image xlink:href="../States/106.png" width="130px" height="230px" preserveAspectRatio="xMinYMin meet" x="1666.34" y="-1004"/>
<polygon fill="none" stroke="black" points="1665.34,-773 1665.34,-1065 1797.34,-1065 1797.34,-773 1665.34,-773"/>
</a>
</g>
</g>
<!-- state_1305 -->
<g id="node8" class="node"><title>state_1305</title>
<g id="a_node8"><a xlink:href="../States/1305.png" xlink:title="&lt;TABLE&gt;">
<polygon fill="none" stroke="black" points="472.34,-292 340.34,-292 340.34,-0 472.34,-0 472.34,-292"/>
<text text-anchor="start" x="375.84" y="-279.8" font-family="Times New Roman,serif" font-size="14.00">state_1305</text>
<text text-anchor="start" x="373.84" y="-264.8" font-family="Times New Roman,serif" font-size="14.00">incoming: 2</text>
<text text-anchor="start" x="374.84" y="-249.8" font-family="Times New Roman,serif" font-size="14.00">outgoing: 2</text>
<text text-anchor="start" x="386.34" y="-234.8" font-family="Times New Roman,serif" font-size="14.00">loop: 3</text>
<image xlink:href="../States/1305.png" width="130px" height="230px" preserveAspectRatio="xMinYMin meet" x="341.34" y="-231"/>
<polygon fill="none" stroke="black" points="340.34,-0 340.34,-292 472.34,-292 472.34,-0 340.34,-0"/>
</a>
</g>
</g>
<!-- state_1305&#45;&gt;state_1305 -->
<g id="edge13" class="edge"><title>state_1305&#45;&gt;state_1305</title>
<path fill="none" stroke="black" d="M472.541,-175.354C483.107,-171.058 490.34,-161.273 490.34,-146 490.34,-135.5 486.921,-127.593 481.351,-122.282"/>
<polygon fill="black" stroke="black" points="482.851,-119.086 472.541,-116.646 479.079,-124.983 482.851,-119.086"/>
<text text-anchor="middle" x="598.34" y="-157.3" font-family="Times New Roman,serif" font-size="14.00">click(&quot;2020年6月16日 index=1&quot;): 1274</text>
<text text-anchor="middle" x="598.34" y="-142.3" font-family="Times New Roman,serif" font-size="14.00">click(&quot;下午5:22 index=2&quot;): 1275</text>
<text text-anchor="middle" x="598.34" y="-127.3" font-family="Times New Roman,serif" font-size="14.00">click(&quot;index=1&quot;): 1276</text>
</g>
<!-- state_1305&#45;&gt;activityTransactionActivity -->
<g id="edge11" class="edge"><title>state_1305&#45;&gt;activityTransactionActivity</title>
<path fill="none" stroke="teal" d="M472.434,-255.168C482.807,-273.277 493.132,-292.023 502.34,-310 506.17,-317.478 509.984,-325.768 513.334,-333.413"/>
<polygon fill="teal" stroke="teal" points="510.135,-334.834 517.296,-342.642 516.568,-332.072 510.135,-334.834"/>
<text text-anchor="middle" x="583.84" y="-313.8" font-family="Times New Roman,serif" font-size="14.00" fill="teal"> &#160;&#160;click(&quot;index=0&quot;): 1272 &#160;&#160;</text>
</g>
<!-- state_1305&#45;&gt;activityTransactionActivity -->
<g id="edge12" class="edge"><title>state_1305&#45;&gt;activityTransactionActivity</title>
<path fill="none" stroke="teal" d="M472.556,-168.287C534.16,-192.034 622.289,-237.019 662.34,-310 674.08,-331.394 657.725,-343.778 632.652,-350.9"/>
<polygon fill="teal" stroke="teal" points="631.519,-347.575 622.656,-353.38 633.204,-354.369 631.519,-347.575"/>
<text text-anchor="middle" x="739.84" y="-313.8" font-family="Times New Roman,serif" font-size="14.00" fill="teal"> &#160;&#160;click(&quot;index=3&quot;): 1277 &#160;&#160;</text>
</g>
<!-- activityMainActivity -->
<g id="node9" class="node"><title>activityMainActivity</title>
<ellipse fill="none" stroke="teal" cx="524.34" cy="-919" rx="83.3857" ry="18"/>
<text text-anchor="middle" x="524.34" y="-915.3" font-family="Times New Roman,serif" font-size="14.00" fill="teal">activityMainActivity</text>
</g>
<!-- activityMainActivity&#45;&gt;state_91 -->
<g id="edge1" class="edge"><title>activityMainActivity&#45;&gt;state_91</title>
<path fill="none" stroke="teal" d="M524.34,-900.621C524.34,-868.993 524.34,-799.114 524.34,-732.356"/>
<polygon fill="teal" stroke="teal" points="527.84,-732.105 524.34,-722.105 520.84,-732.105 527.84,-732.105"/>
<text text-anchor="middle" x="592.34" y="-743.8" font-family="Times New Roman,serif" font-size="14.00" fill="teal"> &#160;&#160;click(&quot;index=1&quot;): 88 &#160;&#160;</text>
</g>
<!-- activityTransactionActivity&#45;&gt;state_91 -->
<g id="edge2" class="edge"><title>activityTransactionActivity&#45;&gt;state_91</title>
<path fill="none" stroke="teal" d="M605.478,-372.991C633.022,-378.511 658.977,-386.343 667.34,-397 703.445,-443.008 650.438,-495.107 599.041,-530.994"/>
<polygon fill="teal" stroke="teal" points="596.773,-528.305 590.488,-536.833 600.72,-534.086 596.773,-528.305"/>
<text text-anchor="middle" x="757.84" y="-400.8" font-family="Times New Roman,serif" font-size="14.00" fill="teal"> &#160;&#160;click(&quot;擱置 index=1&quot;): 90 &#160;&#160;</text>
</g>
<!-- activityTransactionActivity&#45;&gt;state_91 -->
<g id="edge4" class="edge"><title>activityTransactionActivity&#45;&gt;state_91</title>
<path fill="none" stroke="teal" d="M627.29,-366.492C715.254,-371.416 829.86,-380.85 844.34,-397 923.307,-485.076 718.413,-539.156 600.592,-562.128"/>
<polygon fill="teal" stroke="teal" points="599.684,-558.738 590.522,-564.057 601.002,-565.613 599.684,-558.738"/>
<text text-anchor="middle" x="936.84" y="-400.8" font-family="Times New Roman,serif" font-size="14.00" fill="teal"> &#160;&#160;click(&quot;取消 index=0&quot;): 93 &#160;&#160;</text>
</g>
<!-- activityTransactionActivity&#45;&gt;state_1305 -->
<g id="edge3" class="edge"><title>activityTransactionActivity&#45;&gt;state_1305</title>
<path fill="none" stroke="teal" d="M418.491,-357.407C364.412,-353.607 306.442,-344.839 289.34,-325 256.265,-286.634 292.079,-238.365 332.533,-201.774"/>
<polygon fill="teal" stroke="teal" points="334.937,-204.321 340.125,-195.083 330.308,-199.069 334.937,-204.321"/>
<text text-anchor="middle" x="395.84" y="-313.8" font-family="Times New Roman,serif" font-size="14.00" fill="teal"> &#160;&#160;click(&quot;已出(入)帳 index=3&quot;): 1273 &#160;&#160;</text>
</g>
<!-- activityTemplatesListActivity -->
<g id="node11" class="node"><title>activityTemplatesListActivity</title>
<ellipse fill="none" stroke="teal" cx="116.34" cy="-361" rx="116.18" ry="18"/>
<text text-anchor="middle" x="116.34" y="-357.3" font-family="Times New Roman,serif" font-size="14.00" fill="teal">activityTemplatesListActivity</text>
</g>
<!-- activityTemplatesListActivity&#45;&gt;state_1305 -->
<g id="edge10" class="edge"><title>activityTemplatesListActivity&#45;&gt;state_1305</title>
<path fill="none" stroke="teal" d="M117.119,-342.834C118.35,-332.463 121.321,-319.466 128.34,-310 178.895,-241.817 267.164,-197.202 330.692,-172.167"/>
<polygon fill="teal" stroke="teal" points="332.205,-175.334 340.271,-168.465 329.682,-168.805 332.205,-175.334"/>
<text text-anchor="middle" x="202.84" y="-313.8" font-family="Times New Roman,serif" font-size="14.00" fill="teal"> &#160;&#160;click(&quot;index=1&quot;): 1271 &#160;&#160;</text>
</g>
</g>
</svg>
