<?xml version="1.0" encoding="UTF-8" standalone="no"?>
<!DOCTYPE svg PUBLIC "-//W3C//DTD SVG 1.1//EN"
 "http://www.w3.org/Graphics/SVG/1.1/DTD/svg11.dtd">
<!-- Generated by graphviz version 2.38.0 (20140413.2041)
 -->
<!-- Title: activityBlotterActivity Pages: 1 -->
<svg width="1189pt" height="504pt"
 viewBox="0.00 0.00 1189.00 504.00" xmlns="http://www.w3.org/2000/svg" xmlns:xlink="http://www.w3.org/1999/xlink">
<g id="graph0" class="graph" transform="scale(1 1) rotate(0) translate(4 500)">
<title>activityBlotterActivity</title>
<polygon fill="white" stroke="none" points="-4,4 -4,-500 1185,-500 1185,4 -4,4"/>
<!-- state_1674 -->
<g id="node1" class="node"><title>state_1674</title>
<g id="a_node1"><a xlink:href="../States/1674Equivalent.svg" xlink:title="&lt;TABLE&gt;">
<polygon fill="none" stroke="peru" points="697,-409 545,-409 545,-87 697,-87 697,-409"/>
<text text-anchor="start" x="590.5" y="-396.8" font-family="Times New Roman,serif" font-size="14.00">state_1674</text>
<text text-anchor="start" x="588.5" y="-381.8" font-family="Times New Roman,serif" font-size="14.00">incoming: 8</text>
<text text-anchor="start" x="589.5" y="-366.8" font-family="Times New Roman,serif" font-size="14.00">outgoing: 4</text>
<text text-anchor="start" x="601" y="-351.8" font-family="Times New Roman,serif" font-size="14.00">loop: 2</text>
<text text-anchor="start" x="576" y="-336.8" font-family="Times New Roman,serif" font-size="14.00">Equivalent State</text>
<text text-anchor="start" x="554" y="-321.8" font-family="Times New Roman,serif" font-size="14.00">EquivalentStateCount: 2</text>
<image xlink:href="../States/1674.png" width="150px" height="230px" preserveAspectRatio="xMinYMin meet" x="546" y="-318"/>
<polygon fill="none" stroke="peru" points="545,-87 545,-409 697,-409 697,-87 545,-87"/>
</a>
</g>
</g>
<!-- state_1674&#45;&gt;state_1674 -->
<g id="edge7" class="edge"><title>state_1674&#45;&gt;state_1674</title>
<path fill="none" stroke="black" d="M697.347,-279.12C707.928,-273.994 715,-263.621 715,-248 715,-237.016 711.504,-228.627 705.75,-222.832"/>
<polygon fill="black" stroke="black" points="707.53,-219.805 697.347,-216.88 703.484,-225.517 707.53,-219.805"/>
<text text-anchor="middle" x="778.5" y="-251.8" font-family="Times New Roman,serif" font-size="14.00">click(&quot;index=0&quot;): 1621</text>
<text text-anchor="middle" x="778.5" y="-236.8" font-family="Times New Roman,serif" font-size="14.00">click(&quot;index=1&quot;): 1635</text>
</g>
<!-- activityAccountListTotalsDetailsActivity -->
<g id="node3" class="node"><title>activityAccountListTotalsDetailsActivity</title>
<ellipse fill="none" stroke="teal" cx="680" cy="-18" rx="157.072" ry="18"/>
<text text-anchor="middle" x="680" y="-14.3" font-family="Times New Roman,serif" font-size="14.00" fill="teal">activityAccountListTotalsDetailsActivity</text>
</g>
<!-- state_1674&#45;&gt;activityAccountListTotalsDetailsActivity -->
<g id="edge6" class="edge"><title>state_1674&#45;&gt;activityAccountListTotalsDetailsActivity</title>
<path fill="none" stroke="teal" d="M604.808,-86.9705C607.725,-75.4094 612.002,-64.2737 618,-54 620.804,-49.1965 624.539,-45.0002 628.789,-41.3461"/>
<polygon fill="teal" stroke="teal" points="630.95,-44.1012 636.908,-35.3404 626.787,-38.4735 630.95,-44.1012"/>
<text text-anchor="middle" x="706.5" y="-57.8" font-family="Times New Roman,serif" font-size="14.00" fill="teal"> &#160;&#160;click(&quot;0.00 index=6&quot;): 3224 &#160;&#160;</text>
</g>
<!-- activitySelectTemplateActivity -->
<g id="node4" class="node"><title>activitySelectTemplateActivity</title>
<ellipse fill="none" stroke="teal" cx="248" cy="-18" rx="120.479" ry="18"/>
<text text-anchor="middle" x="248" y="-14.3" font-family="Times New Roman,serif" font-size="14.00" fill="teal">activitySelectTemplateActivity</text>
</g>
<!-- state_1674&#45;&gt;activitySelectTemplateActivity -->
<g id="edge4" class="edge"><title>state_1674&#45;&gt;activitySelectTemplateActivity</title>
<path fill="none" stroke="teal" d="M544.836,-203.331C482.146,-168.615 390.213,-120.485 306,-87 279.733,-76.5558 261.925,-91.6401 245,-69 240.221,-62.6073 239.255,-54.3716 239.981,-46.4361"/>
<polygon fill="teal" stroke="teal" points="243.469,-46.8089 241.733,-36.3573 236.572,-45.6102 243.469,-46.8089"/>
<text text-anchor="middle" x="319.5" y="-57.8" font-family="Times New Roman,serif" font-size="14.00" fill="teal"> &#160;&#160;click(&quot;index=2&quot;): 1649 &#160;&#160;</text>
</g>
<!-- activityBlotterFilterActivity -->
<g id="node6" class="node"><title>activityBlotterFilterActivity</title>
<ellipse fill="none" stroke="teal" cx="1022" cy="-18" rx="107.781" ry="18"/>
<text text-anchor="middle" x="1022" y="-14.3" font-family="Times New Roman,serif" font-size="14.00" fill="teal">activityBlotterFilterActivity</text>
</g>
<!-- state_1674&#45;&gt;activityBlotterFilterActivity -->
<g id="edge5" class="edge"><title>state_1674&#45;&gt;activityBlotterFilterActivity</title>
<path fill="none" stroke="teal" d="M697.088,-221.582C774.903,-193.01 896.46,-141.017 984,-69 992.249,-62.2139 999.749,-53.2991 1005.87,-44.8788"/>
<polygon fill="teal" stroke="teal" points="1008.92,-46.6133 1011.71,-36.3928 1003.16,-42.6416 1008.92,-46.6133"/>
<text text-anchor="middle" x="1072.5" y="-57.8" font-family="Times New Roman,serif" font-size="14.00" fill="teal"> &#160;&#160;click(&quot;index=4&quot;): 3185 &#160;&#160;</text>
</g>
<!-- state_1707 -->
<g id="node2" class="node"><title>state_1707</title>
<g id="a_node2"><a xlink:href="../States/1707Equivalent.svg" xlink:title="&lt;TABLE&gt;">
<polygon fill="none" stroke="peru" points="152,-409 0,-409 0,-87 152,-87 152,-409"/>
<text text-anchor="start" x="45.5" y="-396.8" font-family="Times New Roman,serif" font-size="14.00">state_1707</text>
<text text-anchor="start" x="43.5" y="-381.8" font-family="Times New Roman,serif" font-size="14.00">incoming: 1</text>
<text text-anchor="start" x="44.5" y="-366.8" font-family="Times New Roman,serif" font-size="14.00">outgoing: 1</text>
<text text-anchor="start" x="56" y="-351.8" font-family="Times New Roman,serif" font-size="14.00">loop: 3</text>
<text text-anchor="start" x="31" y="-336.8" font-family="Times New Roman,serif" font-size="14.00">Equivalent State</text>
<text text-anchor="start" x="9" y="-321.8" font-family="Times New Roman,serif" font-size="14.00">EquivalentStateCount: 2</text>
<image xlink:href="../States/1707.png" width="150px" height="230px" preserveAspectRatio="xMinYMin meet" x="1" y="-318"/>
<polygon fill="none" stroke="peru" points="0,-87 0,-409 152,-409 152,-87 0,-87"/>
</a>
</g>
</g>
<!-- state_1707&#45;&gt;state_1707 -->
<g id="edge11" class="edge"><title>state_1707&#45;&gt;state_1707</title>
<path fill="none" stroke="black" d="M152.347,-279.12C162.928,-273.994 170,-263.621 170,-248 170,-237.016 166.504,-228.627 160.75,-222.832"/>
<polygon fill="black" stroke="black" points="162.53,-219.805 152.347,-216.88 158.484,-225.517 162.53,-219.805"/>
<text text-anchor="middle" x="233.5" y="-259.3" font-family="Times New Roman,serif" font-size="14.00">click(&quot;index=0&quot;): 1652</text>
<text text-anchor="middle" x="233.5" y="-244.3" font-family="Times New Roman,serif" font-size="14.00">click(&quot;index=0&quot;): 1653</text>
<text text-anchor="middle" x="233.5" y="-229.3" font-family="Times New Roman,serif" font-size="14.00">click(&quot;index=1&quot;): 3227</text>
</g>
<!-- state_1707&#45;&gt;activitySelectTemplateActivity -->
<g id="edge10" class="edge"><title>state_1707&#45;&gt;activitySelectTemplateActivity</title>
<path fill="none" stroke="teal" d="M59.3716,-86.9105C63.2238,-75.0181 68.9242,-63.844 77,-54 85.9832,-43.0499 111.206,-35.43 139.611,-30.1682"/>
<polygon fill="teal" stroke="teal" points="140.516,-33.5635 149.77,-28.4038 139.318,-26.6668 140.516,-33.5635"/>
<text text-anchor="middle" x="151.5" y="-57.8" font-family="Times New Roman,serif" font-size="14.00" fill="teal"> &#160;&#160;click(&quot;index=2&quot;): 3249 &#160;&#160;</text>
</g>
<!-- activityAccountListTotalsDetailsActivity&#45;&gt;state_1674 -->
<g id="edge1" class="edge"><title>activityAccountListTotalsDetailsActivity&#45;&gt;state_1674</title>
<path fill="none" stroke="teal" d="M777.178,-32.1795C795.237,-39.5767 806.418,-51.0915 799,-69 779.561,-115.93 741.08,-156.939 704.855,-187.728"/>
<polygon fill="teal" stroke="teal" points="702.604,-185.048 697.167,-194.142 707.088,-190.424 702.604,-185.048"/>
<text text-anchor="middle" x="891" y="-57.8" font-family="Times New Roman,serif" font-size="14.00" fill="teal"> &#160;&#160;click(&quot;確定 index=0&quot;): 3225 &#160;&#160;</text>
</g>
<!-- activitySelectTemplateActivity&#45;&gt;state_1674 -->
<g id="edge2" class="edge"><title>activitySelectTemplateActivity&#45;&gt;state_1674</title>
<path fill="none" stroke="teal" d="M331.482,-30.9897C353.859,-36.1815 377.51,-43.5577 398,-54 449.107,-80.0458 498.191,-120.257 537.234,-157.248"/>
<polygon fill="teal" stroke="teal" points="535.264,-160.207 544.906,-164.598 540.106,-155.153 535.264,-160.207"/>
<text text-anchor="middle" x="508" y="-57.8" font-family="Times New Roman,serif" font-size="14.00" fill="teal"> &#160;&#160;click(&quot;取消 index=4&quot;): 1650 &#160;&#160;</text>
</g>
<!-- activityPayeeListActivity -->
<g id="node5" class="node"><title>activityPayeeListActivity</title>
<ellipse fill="none" stroke="teal" cx="307" cy="-478" rx="100.182" ry="18"/>
<text text-anchor="middle" x="307" y="-474.3" font-family="Times New Roman,serif" font-size="14.00" fill="teal">activityPayeeListActivity</text>
</g>
<!-- activityPayeeListActivity&#45;&gt;state_1674 -->
<g id="edge3" class="edge"><title>activityPayeeListActivity&#45;&gt;state_1674</title>
<path fill="none" stroke="teal" d="M229.747,-466.476C199.236,-459.089 175.029,-446.861 192,-427 208.661,-407.502 281.601,-416.904 306,-409 387.757,-382.514 474.377,-337.094 536.048,-301.398"/>
<polygon fill="teal" stroke="teal" points="538.083,-304.263 544.963,-296.205 534.56,-298.214 538.083,-304.263"/>
<text text-anchor="middle" x="266.5" y="-430.8" font-family="Times New Roman,serif" font-size="14.00" fill="teal"> &#160;&#160;click(&quot;index=0&quot;): 1620 &#160;&#160;</text>
</g>
<!-- activityPayeeListActivity&#45;&gt;state_1674 -->
<g id="edge12" class="edge"><title>activityPayeeListActivity&#45;&gt;state_1674</title>
<path fill="none" stroke="teal" d="M329.835,-460.419C372.621,-429.351 466.828,-360.947 536.556,-310.316"/>
<polygon fill="teal" stroke="teal" points="538.898,-312.941 544.933,-304.233 534.785,-307.277 538.898,-312.941"/>
<text text-anchor="middle" x="449.5" y="-430.8" font-family="Times New Roman,serif" font-size="14.00" fill="teal"> &#160;&#160;click(&quot;index=0&quot;): 3184 &#160;&#160;</text>
</g>
<!-- activityProjectListActivity -->
<g id="node7" class="node"><title>activityProjectListActivity</title>
<ellipse fill="none" stroke="teal" cx="590" cy="-478" rx="104.782" ry="18"/>
<text text-anchor="middle" x="590" y="-474.3" font-family="Times New Roman,serif" font-size="14.00" fill="teal">activityProjectListActivity</text>
</g>
<!-- activityProjectListActivity&#45;&gt;state_1674 -->
<g id="edge8" class="edge"><title>activityProjectListActivity&#45;&gt;state_1674</title>
<path fill="none" stroke="teal" d="M554.298,-461.063C546.971,-456.056 540.215,-449.754 536,-442 532.816,-436.143 534.527,-433.502 536,-427 537.625,-419.824 539.577,-412.599 541.788,-405.384"/>
<polygon fill="teal" stroke="teal" points="545.219,-406.148 544.957,-395.556 538.557,-403.999 545.219,-406.148"/>
<text text-anchor="middle" x="610.5" y="-430.8" font-family="Times New Roman,serif" font-size="14.00" fill="teal"> &#160;&#160;click(&quot;index=0&quot;): 1634 &#160;&#160;</text>
</g>
<!-- activityProjectListActivity&#45;&gt;state_1674 -->
<g id="edge13" class="edge"><title>activityProjectListActivity&#45;&gt;state_1674</title>
<path fill="none" stroke="teal" d="M657.392,-463.959C668.256,-458.869 678.164,-451.804 685,-442 695.591,-426.811 699.155,-409.743 698.127,-392.204"/>
<polygon fill="teal" stroke="teal" points="701.561,-391.401 697.009,-381.834 694.601,-392.152 701.561,-391.401"/>
<text text-anchor="middle" x="767.5" y="-430.8" font-family="Times New Roman,serif" font-size="14.00" fill="teal"> &#160;&#160;click(&quot;index=0&quot;): 3223 &#160;&#160;</text>
</g>
<!-- activityLocationsListActivity -->
<g id="node8" class="node"><title>activityLocationsListActivity</title>
<ellipse fill="none" stroke="teal" cx="965" cy="-478" rx="114.28" ry="18"/>
<text text-anchor="middle" x="965" y="-474.3" font-family="Times New Roman,serif" font-size="14.00" fill="teal">activityLocationsListActivity</text>
</g>
<!-- activityLocationsListActivity&#45;&gt;state_1674 -->
<g id="edge9" class="edge"><title>activityLocationsListActivity&#45;&gt;state_1674</title>
<path fill="none" stroke="teal" d="M920.771,-461.223C907.345,-455.794 892.774,-449.238 880,-442 818.186,-406.975 754.118,-359.346 705.168,-320.168"/>
<polygon fill="teal" stroke="teal" points="707.122,-317.248 697.137,-313.707 702.734,-322.702 707.122,-317.248"/>
<text text-anchor="middle" x="954.5" y="-430.8" font-family="Times New Roman,serif" font-size="14.00" fill="teal"> &#160;&#160;click(&quot;index=0&quot;): 1648 &#160;&#160;</text>
</g>
<!-- activityLocationsListActivity&#45;&gt;state_1674 -->
<g id="edge14" class="edge"><title>activityLocationsListActivity&#45;&gt;state_1674</title>
<path fill="none" stroke="teal" d="M1008.69,-461.211C1025.23,-452.63 1038.11,-440.92 1029,-427 957.858,-318.346 804.298,-275.638 707.185,-259.119"/>
<polygon fill="teal" stroke="teal" points="707.528,-255.628 697.093,-257.461 706.394,-262.536 707.528,-255.628"/>
<text text-anchor="middle" x="1106.5" y="-430.8" font-family="Times New Roman,serif" font-size="14.00" fill="teal"> &#160;&#160;click(&quot;index=0&quot;): 3247 &#160;&#160;</text>
</g>
</g>
</svg>
