<?xml version="1.0" encoding="UTF-8" standalone="no"?>
<!DOCTYPE svg PUBLIC "-//W3C//DTD SVG 1.1//EN"
 "http://www.w3.org/Graphics/SVG/1.1/DTD/svg11.dtd">
<!-- Generated by graphviz version 2.38.0 (20140413.2041)
 -->
<!-- Title: activityLocationActivity Pages: 1 -->
<svg width="1556pt" height="387pt"
 viewBox="0.00 0.00 1556.17 387.00" xmlns="http://www.w3.org/2000/svg" xmlns:xlink="http://www.w3.org/1999/xlink">
<g id="graph0" class="graph" transform="scale(1 1) rotate(0) translate(4 383)">
<title>activityLocationActivity</title>
<polygon fill="white" stroke="none" points="-4,4 -4,-383 1552.17,-383 1552.17,4 -4,4"/>
<!-- state_1697 -->
<g id="node1" class="node"><title>state_1697</title>
<g id="a_node1"><a xlink:href="../States/1697.png" xlink:title="&lt;TABLE&gt;">
<polygon fill="none" stroke="black" points="593.169,-379 461.169,-379 461.169,-87 593.169,-87 593.169,-379"/>
<text text-anchor="start" x="496.669" y="-366.8" font-family="Times New Roman,serif" font-size="14.00">state_1697</text>
<text text-anchor="start" x="494.669" y="-351.8" font-family="Times New Roman,serif" font-size="14.00">incoming: 4</text>
<text text-anchor="start" x="495.669" y="-336.8" font-family="Times New Roman,serif" font-size="14.00">outgoing: 4</text>
<text text-anchor="start" x="507.169" y="-321.8" font-family="Times New Roman,serif" font-size="14.00">loop: 1</text>
<image xlink:href="../States/1697.png" width="130px" height="230px" preserveAspectRatio="xMinYMin meet" x="462.169" y="-318"/>
<polygon fill="none" stroke="black" points="461.169,-87 461.169,-379 593.169,-379 593.169,-87 461.169,-87"/>
</a>
</g>
</g>
<!-- state_1697&#45;&gt;state_1697 -->
<g id="edge5" class="edge"><title>state_1697&#45;&gt;state_1697</title>
<path fill="none" stroke="black" d="M593.371,-262.354C603.937,-258.058 611.169,-248.273 611.169,-233 611.169,-222.5 607.751,-214.593 602.181,-209.282"/>
<polygon fill="black" stroke="black" points="603.681,-206.086 593.371,-203.646 599.909,-211.983 603.681,-206.086"/>
<text text-anchor="middle" x="674.669" y="-229.3" font-family="Times New Roman,serif" font-size="14.00">click(&quot;index=1&quot;): 1642</text>
</g>
<!-- activityLocationsListActivity -->
<g id="node3" class="node"><title>activityLocationsListActivity</title>
<ellipse fill="none" stroke="teal" cx="731.169" cy="-18" rx="114.28" ry="18"/>
<text text-anchor="middle" x="731.169" y="-14.3" font-family="Times New Roman,serif" font-size="14.00" fill="teal">activityLocationsListActivity</text>
</g>
<!-- state_1697&#45;&gt;activityLocationsListActivity -->
<g id="edge2" class="edge"><title>state_1697&#45;&gt;activityLocationsListActivity</title>
<path fill="none" stroke="teal" d="M461.108,-229.995C297.415,-222.915 -104.593,-191.415 26.1694,-54 45.8511,-33.317 410.578,-24.1984 607.487,-20.7685"/>
<polygon fill="teal" stroke="teal" points="607.665,-24.2661 617.603,-20.5947 607.545,-17.2671 607.665,-24.2661"/>
<text text-anchor="middle" x="115.169" y="-57.8" font-family="Times New Roman,serif" font-size="14.00" fill="teal"> &#160;&#160;click(&quot;確定 index=0&quot;): 1646 &#160;&#160;</text>
</g>
<!-- state_1697&#45;&gt;activityLocationsListActivity -->
<g id="edge3" class="edge"><title>state_1697&#45;&gt;activityLocationsListActivity</title>
<path fill="none" stroke="teal" d="M461.108,-219.194C350.88,-195.13 148.881,-137.914 227.169,-54 252.569,-26.7755 466.005,-20.268 606.861,-18.9723"/>
<polygon fill="teal" stroke="teal" points="606.903,-22.4722 616.873,-18.8878 606.844,-15.4725 606.903,-22.4722"/>
<text text-anchor="middle" x="316.169" y="-57.8" font-family="Times New Roman,serif" font-size="14.00" fill="teal"> &#160;&#160;click(&quot;取消 index=1&quot;): 3235 &#160;&#160;</text>
</g>
<!-- state_1697&#45;&gt;activityLocationsListActivity -->
<g id="edge4" class="edge"><title>state_1697&#45;&gt;activityLocationsListActivity</title>
<path fill="none" stroke="teal" d="M461.134,-170.492C429.698,-133.874 404.897,-88.0624 435.169,-54 447.362,-40.2805 536.959,-31.0176 614.417,-25.4856"/>
<polygon fill="teal" stroke="teal" points="615.037,-28.951 624.769,-24.763 614.549,-21.968 615.037,-28.951"/>
<text text-anchor="middle" x="524.169" y="-57.8" font-family="Times New Roman,serif" font-size="14.00" fill="teal"> &#160;&#160;click(&quot;確定 index=0&quot;): 3245 &#160;&#160;</text>
</g>
<!-- state_1699 -->
<g id="node2" class="node"><title>state_1699</title>
<g id="a_node2"><a xlink:href="../States/1699.png" xlink:title="&lt;TABLE&gt;">
<polygon fill="none" stroke="black" points="1380.17,-379 1248.17,-379 1248.17,-87 1380.17,-87 1380.17,-379"/>
<text text-anchor="start" x="1283.67" y="-366.8" font-family="Times New Roman,serif" font-size="14.00">state_1699</text>
<text text-anchor="start" x="1281.67" y="-351.8" font-family="Times New Roman,serif" font-size="14.00">incoming: 1</text>
<text text-anchor="start" x="1282.67" y="-336.8" font-family="Times New Roman,serif" font-size="14.00">outgoing: 3</text>
<text text-anchor="start" x="1294.17" y="-321.8" font-family="Times New Roman,serif" font-size="14.00">loop: 1</text>
<image xlink:href="../States/1699.png" width="130px" height="230px" preserveAspectRatio="xMinYMin meet" x="1249.17" y="-318"/>
<polygon fill="none" stroke="black" points="1248.17,-87 1248.17,-379 1380.17,-379 1380.17,-87 1248.17,-87"/>
</a>
</g>
</g>
<!-- state_1699&#45;&gt;state_1699 -->
<g id="edge8" class="edge"><title>state_1699&#45;&gt;state_1699</title>
<path fill="none" stroke="black" d="M1380.37,-262.354C1390.94,-258.058 1398.17,-248.273 1398.17,-233 1398.17,-222.5 1394.75,-214.593 1389.18,-209.282"/>
<polygon fill="black" stroke="black" points="1390.68,-206.086 1380.37,-203.646 1386.91,-211.983 1390.68,-206.086"/>
<text text-anchor="middle" x="1461.67" y="-229.3" font-family="Times New Roman,serif" font-size="14.00">click(&quot;index=1&quot;): 1644</text>
</g>
<!-- state_1699&#45;&gt;activityLocationsListActivity -->
<g id="edge6" class="edge"><title>state_1699&#45;&gt;activityLocationsListActivity</title>
<path fill="none" stroke="teal" d="M1247.82,-129.246C1223.58,-99.9893 1193.55,-71.3749 1159.17,-54 1107.84,-28.0592 962.945,-20.6731 855.893,-18.8992"/>
<polygon fill="teal" stroke="teal" points="855.707,-15.3961 845.655,-18.7446 855.601,-22.3953 855.707,-15.3961"/>
<text text-anchor="middle" x="1269.17" y="-57.8" font-family="Times New Roman,serif" font-size="14.00" fill="teal"> &#160;&#160;click(&quot;確定 index=0&quot;): 3239 &#160;&#160;</text>
</g>
<!-- state_1699&#45;&gt;activityLocationsListActivity -->
<g id="edge7" class="edge"><title>state_1699&#45;&gt;activityLocationsListActivity</title>
<path fill="none" stroke="teal" d="M1378.02,-86.839C1376.21,-74.8472 1371.3,-63.6489 1362.17,-54 1345,-35.8468 1032.6,-25.8039 853.935,-21.5226"/>
<polygon fill="teal" stroke="teal" points="853.765,-18.0177 843.685,-21.2797 853.599,-25.0157 853.765,-18.0177"/>
<text text-anchor="middle" x="1459.17" y="-57.8" font-family="Times New Roman,serif" font-size="14.00" fill="teal"> &#160;&#160;click(&quot;取消 index=1&quot;): 3242 &#160;&#160;</text>
</g>
<!-- activityLocationsListActivity&#45;&gt;state_1697 -->
<g id="edge1" class="edge"><title>activityLocationsListActivity&#45;&gt;state_1697</title>
<path fill="none" stroke="teal" d="M667.336,-33.0372C653.762,-38.0823 640.211,-44.8779 629.169,-54 618.453,-62.8534 608.634,-73.1443 599.687,-84.2287"/>
<polygon fill="teal" stroke="teal" points="596.688,-82.3837 593.326,-92.4308 602.22,-86.6736 596.688,-82.3837"/>
<text text-anchor="middle" x="721.169" y="-57.8" font-family="Times New Roman,serif" font-size="14.00" fill="teal"> &#160;&#160;click(&quot;index=0&quot;): 1641, 3237 &#160;&#160;</text>
</g>
<!-- activityLocationsListActivity&#45;&gt;state_1697 -->
<g id="edge9" class="edge"><title>activityLocationsListActivity&#45;&gt;state_1697</title>
<path fill="none" stroke="teal" d="M789.239,-33.5496C808.287,-41.472 822.468,-52.9975 813.169,-69 768.287,-146.24 671.586,-189.926 603.08,-212.237"/>
<polygon fill="teal" stroke="teal" points="601.661,-209.015 593.187,-215.375 603.777,-215.688 601.661,-209.015"/>
<text text-anchor="middle" x="889.669" y="-57.8" font-family="Times New Roman,serif" font-size="14.00" fill="teal"> &#160;&#160;click(&quot;index=0&quot;): 3240 &#160;&#160;</text>
</g>
<!-- activityLocationsListActivity&#45;&gt;state_1697 -->
<g id="edge10" class="edge"><title>activityLocationsListActivity&#45;&gt;state_1697</title>
<path fill="none" stroke="teal" d="M843.075,-21.8456C896.091,-25.8005 951.456,-34.6366 968.169,-54 972.525,-59.0467 971.98,-63.5295 968.169,-69 885.548,-187.622 706.182,-220.128 603.47,-228.898"/>
<polygon fill="teal" stroke="teal" points="603.16,-225.411 593.471,-229.697 603.718,-232.389 603.16,-225.411"/>
<text text-anchor="middle" x="1063.17" y="-57.8" font-family="Times New Roman,serif" font-size="14.00" fill="teal"> &#160;&#160;click(&quot;index=0&quot;): 3234, 3244 &#160;&#160;</text>
</g>
</g>
</svg>
