<?xml version="1.0" encoding="UTF-8" standalone="no"?>
<!DOCTYPE svg PUBLIC "-//W3C//DTD SVG 1.1//EN"
 "http://www.w3.org/Graphics/SVG/1.1/DTD/svg11.dtd">
<!-- Generated by graphviz version 2.38.0 (20140413.2041)
 -->
<!-- Title: comandroidinternalappChooserActivity Pages: 1 -->
<svg width="240pt" height="387pt"
 viewBox="0.00 0.00 240.19 387.00" xmlns="http://www.w3.org/2000/svg" xmlns:xlink="http://www.w3.org/1999/xlink">
<g id="graph0" class="graph" transform="scale(1 1) rotate(0) translate(4 383)">
<title>comandroidinternalappChooserActivity</title>
<polygon fill="white" stroke="none" points="-4,4 -4,-383 236.193,-383 236.193,4 -4,4"/>
<!-- state_1063 -->
<g id="node1" class="node"><title>state_1063</title>
<g id="a_node1"><a xlink:href="../States/1063.png" xlink:title="&lt;TABLE&gt;">
<polygon fill="none" stroke="black" points="149.193,-292 17.1926,-292 17.1926,-0 149.193,-0 149.193,-292"/>
<text text-anchor="start" x="52.6926" y="-279.8" font-family="Times New Roman,serif" font-size="14.00">state_1063</text>
<text text-anchor="start" x="50.6926" y="-264.8" font-family="Times New Roman,serif" font-size="14.00">incoming: 1</text>
<text text-anchor="start" x="51.6926" y="-249.8" font-family="Times New Roman,serif" font-size="14.00">outgoing: 0</text>
<text text-anchor="start" x="63.1926" y="-234.8" font-family="Times New Roman,serif" font-size="14.00">loop: 0</text>
<image xlink:href="../States/1063.png" width="130px" height="230px" preserveAspectRatio="xMinYMin meet" x="18.1926" y="-231"/>
<polygon fill="none" stroke="black" points="17.1926,-0 17.1926,-292 149.193,-292 149.193,-0 17.1926,-0"/>
</a>
</g>
</g>
<!-- activityMainActivity -->
<g id="node2" class="node"><title>activityMainActivity</title>
<ellipse fill="none" stroke="teal" cx="83.1926" cy="-361" rx="83.3857" ry="18"/>
<text text-anchor="middle" x="83.1926" y="-357.3" font-family="Times New Roman,serif" font-size="14.00" fill="teal">activityMainActivity</text>
</g>
<!-- activityMainActivity&#45;&gt;state_1063 -->
<g id="edge1" class="edge"><title>activityMainActivity&#45;&gt;state_1063</title>
<path fill="none" stroke="teal" d="M83.1926,-342.929C83.1926,-332.71 83.1926,-318.615 83.1926,-302.628"/>
<polygon fill="teal" stroke="teal" points="86.6927,-302.447 83.1926,-292.447 79.6927,-302.447 86.6927,-302.447"/>
<text text-anchor="middle" x="157.693" y="-313.8" font-family="Times New Roman,serif" font-size="14.00" fill="teal"> &#160;&#160;click(&quot;index=8&quot;): 1045 &#160;&#160;</text>
</g>
</g>
</svg>
