<?xml version="1.0" encoding="UTF-8" standalone="no"?>
<!DOCTYPE svg PUBLIC "-//W3C//DTD SVG 1.1//EN"
 "http://www.w3.org/Graphics/SVG/1.1/DTD/svg11.dtd">
<!-- Generated by graphviz version 2.38.0 (20140413.2041)
 -->
<!-- Title: orgachartengineGraphicalActivity Pages: 1 -->
<svg width="1824pt" height="387pt"
 viewBox="0.00 0.00 1823.70 387.00" xmlns="http://www.w3.org/2000/svg" xmlns:xlink="http://www.w3.org/1999/xlink">
<g id="graph0" class="graph" transform="scale(1 1) rotate(0) translate(4 383)">
<title>orgachartengineGraphicalActivity</title>
<polygon fill="white" stroke="none" points="-4,4 -4,-383 1819.7,-383 1819.7,4 -4,4"/>
<!-- state_793 -->
<g id="node1" class="node"><title>state_793</title>
<g id="a_node1"><a xlink:href="../States/793.png" xlink:title="&lt;TABLE&gt;">
<polygon fill="none" stroke="black" points="930.701,-292 798.701,-292 798.701,-0 930.701,-0 930.701,-292"/>
<text text-anchor="start" x="837.701" y="-279.8" font-family="Times New Roman,serif" font-size="14.00">state_793</text>
<text text-anchor="start" x="828.701" y="-264.8" font-family="Times New Roman,serif" font-size="14.00">incoming: 11</text>
<text text-anchor="start" x="833.201" y="-249.8" font-family="Times New Roman,serif" font-size="14.00">outgoing: 0</text>
<text text-anchor="start" x="844.701" y="-234.8" font-family="Times New Roman,serif" font-size="14.00">loop: 0</text>
<image xlink:href="../States/793.png" width="130px" height="230px" preserveAspectRatio="xMinYMin meet" x="799.701" y="-231"/>
<polygon fill="none" stroke="black" points="798.701,-0 798.701,-292 930.701,-292 930.701,-0 798.701,-0"/>
</a>
</g>
</g>
<!-- activityReportActivity -->
<g id="node2" class="node"><title>activityReportActivity</title>
<ellipse fill="none" stroke="teal" cx="864.701" cy="-361" rx="90.1842" ry="18"/>
<text text-anchor="middle" x="864.701" y="-357.3" font-family="Times New Roman,serif" font-size="14.00" fill="teal">activityReportActivity</text>
</g>
<!-- activityReportActivity&#45;&gt;state_793 -->
<g id="edge1" class="edge"><title>activityReportActivity&#45;&gt;state_793</title>
<path fill="none" stroke="teal" d="M774.402,-359.611C560.492,-358.245 38.7452,-352.136 12.7012,-325 -98.2723,-209.374 559.581,-163.154 788.389,-150.706"/>
<polygon fill="teal" stroke="teal" points="788.833,-154.187 798.631,-150.155 788.457,-147.197 788.833,-154.187"/>
<text text-anchor="middle" x="83.7012" y="-313.8" font-family="Times New Roman,serif" font-size="14.00" fill="teal"> &#160;&#160;click(&quot;index=2&quot;): 786 &#160;&#160;</text>
</g>
<!-- activityReportActivity&#45;&gt;state_793 -->
<g id="edge2" class="edge"><title>activityReportActivity&#45;&gt;state_793</title>
<path fill="none" stroke="teal" d="M774.932,-358.671C593.364,-355.541 197.947,-346.304 177.701,-325 89.9472,-232.662 592.178,-173.36 788.547,-153.97"/>
<polygon fill="teal" stroke="teal" points="788.896,-157.452 798.508,-152.994 788.214,-150.486 788.896,-157.452"/>
<text text-anchor="middle" x="252.201" y="-313.8" font-family="Times New Roman,serif" font-size="14.00" fill="teal"> &#160;&#160;click(&quot;index=2&quot;): 2682 &#160;&#160;</text>
</g>
<!-- activityReportActivity&#45;&gt;state_793 -->
<g id="edge3" class="edge"><title>activityReportActivity&#45;&gt;state_793</title>
<path fill="none" stroke="teal" d="M774.363,-360.405C634.347,-360.077 377.998,-355.285 349.701,-325 219.177,-185.304 615.701,-155.239 788.464,-148.771"/>
<polygon fill="teal" stroke="teal" points="788.648,-152.267 798.516,-148.412 788.398,-145.272 788.648,-152.267"/>
<text text-anchor="middle" x="424.201" y="-313.8" font-family="Times New Roman,serif" font-size="14.00" fill="teal"> &#160;&#160;click(&quot;index=2&quot;): 1295 &#160;&#160;</text>
</g>
<!-- activityReportActivity&#45;&gt;state_793 -->
<g id="edge4" class="edge"><title>activityReportActivity&#45;&gt;state_793</title>
<path fill="none" stroke="teal" d="M776.52,-357.031C680.58,-352.873 538.527,-343.63 521.701,-325 436.874,-231.077 663.308,-178.921 788.34,-157.977"/>
<polygon fill="teal" stroke="teal" points="788.967,-161.421 798.266,-156.344 787.831,-154.514 788.967,-161.421"/>
<text text-anchor="middle" x="596.201" y="-313.8" font-family="Times New Roman,serif" font-size="14.00" fill="teal"> &#160;&#160;click(&quot;index=2&quot;): 1329 &#160;&#160;</text>
</g>
<!-- activityReportActivity&#45;&gt;state_793 -->
<g id="edge5" class="edge"><title>activityReportActivity&#45;&gt;state_793</title>
<path fill="none" stroke="teal" d="M783.268,-353.105C745.095,-348.012 705.436,-339.38 693.701,-325 650.941,-272.601 725.899,-217.156 789.68,-182.337"/>
<polygon fill="teal" stroke="teal" points="791.429,-185.37 798.592,-177.563 788.124,-179.199 791.429,-185.37"/>
<text text-anchor="middle" x="768.201" y="-313.8" font-family="Times New Roman,serif" font-size="14.00" fill="teal"> &#160;&#160;click(&quot;index=2&quot;): 1356 &#160;&#160;</text>
</g>
<!-- activityReportActivity&#45;&gt;state_793 -->
<g id="edge6" class="edge"><title>activityReportActivity&#45;&gt;state_793</title>
<path fill="none" stroke="teal" d="M864.701,-342.929C864.701,-332.71 864.701,-318.615 864.701,-302.628"/>
<polygon fill="teal" stroke="teal" points="868.201,-302.447 864.701,-292.447 861.201,-302.447 868.201,-302.447"/>
<text text-anchor="middle" x="939.201" y="-313.8" font-family="Times New Roman,serif" font-size="14.00" fill="teal"> &#160;&#160;click(&quot;index=2&quot;): 1373 &#160;&#160;</text>
</g>
<!-- activityReportActivity&#45;&gt;state_793 -->
<g id="edge7" class="edge"><title>activityReportActivity&#45;&gt;state_793</title>
<path fill="none" stroke="teal" d="M940.745,-351.088C972.81,-345.618 1004.98,-337.254 1014.7,-325 1052.49,-277.373 994.057,-224.247 939.445,-188.536"/>
<polygon fill="teal" stroke="teal" points="941.038,-185.399 930.728,-182.957 937.264,-191.295 941.038,-185.399"/>
<text text-anchor="middle" x="1097.2" y="-313.8" font-family="Times New Roman,serif" font-size="14.00" fill="teal"> &#160;&#160;click(&quot;index=2&quot;): 2705 &#160;&#160;</text>
</g>
<!-- activityReportActivity&#45;&gt;state_793 -->
<g id="edge8" class="edge"><title>activityReportActivity&#45;&gt;state_793</title>
<path fill="none" stroke="teal" d="M951.771,-356.057C1038.52,-351.213 1160.92,-341.534 1175.7,-325 1252.44,-239.14 1055.61,-184.382 940.701,-160.638"/>
<polygon fill="teal" stroke="teal" points="941.368,-157.202 930.871,-158.641 939.974,-164.062 941.368,-157.202"/>
<text text-anchor="middle" x="1260.2" y="-313.8" font-family="Times New Roman,serif" font-size="14.00" fill="teal"> &#160;&#160;click(&quot;index=2&quot;): 2746 &#160;&#160;</text>
</g>
<!-- activityReportActivity&#45;&gt;state_793 -->
<g id="edge9" class="edge"><title>activityReportActivity&#45;&gt;state_793</title>
<path fill="none" stroke="teal" d="M955.023,-359.805C1085.3,-358.568 1313.2,-352.452 1338.7,-325 1458.05,-196.516 1103.54,-160.187 941.228,-150.409"/>
<polygon fill="teal" stroke="teal" points="941.009,-146.89 930.822,-149.803 940.602,-153.878 941.009,-146.89"/>
<text text-anchor="middle" x="1421.2" y="-313.8" font-family="Times New Roman,serif" font-size="14.00" fill="teal"> &#160;&#160;click(&quot;index=2&quot;): 1362 &#160;&#160;</text>
</g>
<!-- activityReportActivity&#45;&gt;state_793 -->
<g id="edge10" class="edge"><title>activityReportActivity&#45;&gt;state_793</title>
<path fill="none" stroke="teal" d="M954.17,-358.279C1124.74,-354.558 1481.26,-344.484 1499.7,-325 1580.21,-239.927 1126.38,-177.136 940.927,-155.354"/>
<polygon fill="teal" stroke="teal" points="941.306,-151.875 930.968,-154.194 940.496,-158.828 941.306,-151.875"/>
<text text-anchor="middle" x="1582.2" y="-313.8" font-family="Times New Roman,serif" font-size="14.00" fill="teal"> &#160;&#160;click(&quot;index=2&quot;): 2771 &#160;&#160;</text>
</g>
<!-- activityReportActivity&#45;&gt;state_793 -->
<g id="edge11" class="edge"><title>activityReportActivity&#45;&gt;state_793</title>
<path fill="none" stroke="teal" d="M954.673,-359.335C1157.88,-357.393 1636.63,-350.156 1660.7,-325 1763.77,-217.305 1158.95,-166.358 940.861,-151.659"/>
<polygon fill="teal" stroke="teal" points="940.983,-148.159 930.773,-150.986 940.518,-155.144 940.983,-148.159"/>
<text text-anchor="middle" x="1741.2" y="-313.8" font-family="Times New Roman,serif" font-size="14.00" fill="teal"> &#160;&#160;click(&quot;index=2&quot;): 2776 &#160;&#160;</text>
</g>
</g>
</svg>
